<svg width="32" height="32" viewBox="0 0 32 32" fill="none" xmlns="http://www.w3.org/2000/svg">
<path d="M28 16C28 9.37258 22.6274 4 16 4C9.37258 4 4 9.37258 4 16C4 21.9895 8.38823 26.954 14.125 27.8542V19.4688H11.0781V16H14.125V13.3563C14.125 10.3488 15.9165 8.6875 18.6576 8.6875C19.9705 8.6875 21.3438 8.92188 21.3438 8.92188V11.875H19.8306C18.3399 11.875 17.875 12.8 17.875 13.749V16H21.2031L20.6711 19.4688H17.875V27.8542C23.6118 26.954 28 21.9895 28 16Z" fill="#1877F2"/>
<path d="M20.6711 19.4688L21.2031 16H17.875V13.749C17.875 12.8 18.3399 11.875 19.8306 11.875H21.3438V8.92188C21.3438 8.92188 19.9705 8.6875 18.6576 8.6875C15.9165 8.6875 14.125 10.3488 14.125 13.3563V16H11.0781V19.4688H14.125V27.8542C14.7359 27.9501 15.3621 28 16 28C16.6379 28 17.2641 27.9501 17.875 27.8542V19.4688H20.6711Z" fill="white"/>
</svg>
