<svg width="32" height="32" viewBox="0 0 32 32" fill="none" xmlns="http://www.w3.org/2000/svg">
<g clip-path="url(#clip0_217_710)">
<path d="M16.0057 4.18164C11.0709 4.18164 9.62768 4.18673 9.34714 4.21C8.33445 4.29419 7.70428 4.45364 7.01776 4.79546C6.48868 5.05819 6.07142 5.36273 5.65962 5.78964C4.90964 6.56819 4.45511 7.526 4.29057 8.66455C4.21057 9.21728 4.1873 9.33 4.18257 12.1533C4.18075 13.0944 4.18257 14.3329 4.18257 15.9942C4.18257 20.9251 4.18803 22.3669 4.21166 22.6469C4.29348 23.6324 4.44802 24.2524 4.77528 24.9305C5.40072 26.2287 6.59523 27.2033 8.00246 27.5669C8.48971 27.6924 9.02788 27.7615 9.71877 27.7942C10.0115 27.8069 12.995 27.816 15.9804 27.816C18.9658 27.816 21.9511 27.8124 22.2366 27.7978C23.0365 27.7602 23.5011 27.6978 24.0147 27.5651C25.431 27.1996 26.6037 26.2396 27.2419 24.9233C27.5628 24.2615 27.7255 23.6178 27.7991 22.6838C27.8151 22.4802 27.8219 19.2335 27.8219 15.9911C27.8219 12.7482 27.8146 9.50746 27.7986 9.30382C27.724 8.35473 27.5613 7.71655 27.2301 7.042C26.9583 6.48982 26.6564 6.07746 26.2183 5.65582C25.4363 4.90891 24.48 4.45437 23.3404 4.29C22.7882 4.21019 22.6782 4.18655 19.8528 4.18164H16.0057Z" fill="url(#paint0_radial_217_710)"/>
<path d="M16.0057 4.18164C11.0709 4.18164 9.62768 4.18673 9.34714 4.21C8.33445 4.29419 7.70428 4.45364 7.01776 4.79546C6.48868 5.05819 6.07142 5.36273 5.65962 5.78964C4.90964 6.56819 4.45511 7.526 4.29057 8.66455C4.21057 9.21728 4.1873 9.33 4.18257 12.1533C4.18075 13.0944 4.18257 14.3329 4.18257 15.9942C4.18257 20.9251 4.18803 22.3669 4.21166 22.6469C4.29348 23.6324 4.44802 24.2524 4.77528 24.9305C5.40072 26.2287 6.59523 27.2033 8.00246 27.5669C8.48971 27.6924 9.02788 27.7615 9.71877 27.7942C10.0115 27.8069 12.995 27.816 15.9804 27.816C18.9658 27.816 21.9511 27.8124 22.2366 27.7978C23.0365 27.7602 23.5011 27.6978 24.0147 27.5651C25.431 27.1996 26.6037 26.2396 27.2419 24.9233C27.5628 24.2615 27.7255 23.6178 27.7991 22.6838C27.8151 22.4802 27.8219 19.2335 27.8219 15.9911C27.8219 12.7482 27.8146 9.50746 27.7986 9.30382C27.724 8.35473 27.5613 7.71655 27.2301 7.042C26.9583 6.48982 26.6564 6.07746 26.2183 5.65582C25.4363 4.90891 24.48 4.45437 23.3404 4.29C22.7882 4.21019 22.6782 4.18655 19.8528 4.18164H16.0057Z" fill="url(#paint1_radial_217_710)"/>
<path d="M16.0003 7.27295C13.6302 7.27295 13.3328 7.28331 12.4019 7.32568C11.4728 7.36822 10.8387 7.51531 10.2838 7.73113C9.70978 7.95404 9.22289 8.25222 8.73781 8.73749C8.25237 9.22259 7.9542 9.70949 7.73057 10.2833C7.51421 10.8384 7.36694 11.4728 7.32513 12.4015C7.28349 13.3324 7.27258 13.63 7.27258 16.0002C7.27258 18.3704 7.28313 18.667 7.32531 19.5979C7.36803 20.527 7.51512 21.1611 7.73075 21.716C7.95384 22.29 8.25201 22.777 8.73727 23.262C9.22216 23.7475 9.70905 24.0464 10.2827 24.2693C10.8379 24.4851 11.4723 24.6322 12.4012 24.6748C13.332 24.7171 13.6293 24.7275 15.9992 24.7275C18.3695 24.7275 18.6661 24.7171 19.5969 24.6748C20.526 24.6322 21.1609 24.4851 21.7161 24.2693C22.2899 24.0464 22.7761 23.7475 23.261 23.262C23.7465 22.777 24.0446 22.29 24.2683 21.7162C24.4828 21.1611 24.6301 20.5268 24.6737 19.598C24.7155 18.6671 24.7264 18.3704 24.7264 16.0002C24.7264 13.63 24.7155 13.3326 24.6737 12.4017C24.6301 11.4726 24.4828 10.8384 24.2683 10.2835C24.0446 9.70949 23.7465 9.22259 23.261 8.73749C22.7756 8.25204 22.2901 7.95386 21.7156 7.73113C21.1593 7.51531 20.5247 7.36822 19.5957 7.32568C18.6648 7.28331 18.3684 7.27295 15.9976 7.27295H16.0003ZM15.2174 8.84568C15.4498 8.84531 15.7091 8.84568 16.0003 8.84568C18.3304 8.84568 18.6066 8.85404 19.5268 8.89586C20.3776 8.93477 20.8394 9.07695 21.1471 9.1964C21.5543 9.35459 21.8447 9.54368 22.15 9.84913C22.4554 10.1546 22.6445 10.4455 22.803 10.8528C22.9225 11.16 23.0648 11.6219 23.1036 12.4728C23.1454 13.3928 23.1545 13.6691 23.1545 15.9982C23.1545 18.3273 23.1454 18.6037 23.1036 19.5237C23.0647 20.3746 22.9225 20.8364 22.803 21.1437C22.6448 21.551 22.4554 21.841 22.15 22.1462C21.8445 22.4517 21.5545 22.6408 21.1471 22.799C20.8398 22.919 20.3776 23.0608 19.5268 23.0997C18.6068 23.1415 18.3304 23.1506 16.0003 23.1506C13.67 23.1506 13.3939 23.1415 12.4739 23.0997C11.623 23.0604 11.1612 22.9182 10.8534 22.7988C10.4461 22.6406 10.1552 22.4515 9.84978 22.146C9.54433 21.8406 9.35525 21.5504 9.19671 21.143C9.07726 20.8357 8.9349 20.3739 8.89617 19.523C8.85435 18.603 8.84599 18.3266 8.84599 15.996C8.84599 13.6655 8.85435 13.3906 8.89617 12.4706C8.93508 11.6197 9.07726 11.1579 9.19671 10.8502C9.35488 10.4429 9.54433 10.152 9.84978 9.84659C10.1552 9.54113 10.4461 9.35204 10.8534 9.19349C11.161 9.07349 11.623 8.93168 12.4739 8.89259C13.2789 8.85622 13.5909 8.84531 15.2174 8.84349V8.84568ZM20.6587 10.2948C20.0806 10.2948 19.6115 10.7633 19.6115 11.3417C19.6115 11.9199 20.0806 12.3889 20.6587 12.3889C21.2369 12.3889 21.706 11.9199 21.706 11.3417C21.706 10.7635 21.2369 10.2944 20.6587 10.2944V10.2948ZM16.0003 11.5184C13.5253 11.5184 11.5186 13.5251 11.5186 16.0002C11.5186 18.4753 13.5253 20.4811 16.0003 20.4811C18.4753 20.4811 20.4813 18.4753 20.4813 16.0002C20.4813 13.5251 18.4753 11.5184 16.0003 11.5184ZM16.0003 13.0911C17.6068 13.0911 18.9093 14.3935 18.9093 16.0002C18.9093 17.6068 17.6068 18.9093 16.0003 18.9093C14.3936 18.9093 13.0913 17.6068 13.0913 16.0002C13.0913 14.3935 14.3936 13.0911 16.0003 13.0911Z" fill="white"/>
</g>
<defs>
<radialGradient id="paint0_radial_217_710" cx="0" cy="0" r="1" gradientUnits="userSpaceOnUse" gradientTransform="translate(10.4612 29.6363) rotate(-90) scale(23.4234 21.7909)">
<stop stop-color="#FFDD55"/>
<stop offset="0.1" stop-color="#FFDD55"/>
<stop offset="0.5" stop-color="#FF543E"/>
<stop offset="1" stop-color="#C837AB"/>
</radialGradient>
<radialGradient id="paint1_radial_217_710" cx="0" cy="0" r="1" gradientTransform="matrix(2.05559 10.2667 -42.3291 8.47576 0.221921 5.88422)" gradientUnits="userSpaceOnUse">
<stop stop-color="#3771C8"/>
<stop offset="0.128" stop-color="#3771C8"/>
<stop offset="1" stop-color="#6600FF" stop-opacity="0"/>
</radialGradient>
<clipPath id="clip0_217_710">
<rect width="24" height="24" fill="white" transform="translate(4 4)"/>
</clipPath>
</defs>
</svg>
