<svg width="57" height="57" viewBox="0 0 57 57" fill="none" xmlns="http://www.w3.org/2000/svg">
<rect x="0.5" y="0.5" width="56" height="56" rx="11.5" fill="#F5F5F5"/>
<rect x="0.5" y="0.5" width="56" height="56" rx="11.5" stroke="#505050"/>
<path d="M20.9978 43.2961H17.8778C17.3323 43.2961 16.8921 42.8559 16.8921 42.3103V34.5775C16.8921 34.032 17.3323 33.5918 17.8778 33.5918H20.9978C20.4522 33.5918 20.012 34.032 20.012 34.5775V42.3103C20.012 42.8559 20.4522 43.2961 20.9978 43.2961Z" fill="#80CF00"/>
<path d="M40.0713 34.5775V42.3103C40.0713 42.8559 39.6311 43.2961 39.0856 43.2961H29.7545V47.4496H31.3719C30.6542 48.6842 29.1995 51.2107 28.4817 52.4549L25.5915 47.4496H27.2088V43.2961H20.9977C20.4522 43.2961 20.012 42.8559 20.012 42.3103V34.5775C20.012 34.032 20.4522 33.5918 20.9977 33.5918H39.0856C39.6311 33.5918 40.0713 34.032 40.0713 34.5775Z" fill="#A3E72E"/>
<path d="M23.5833 33.5918H19.1427C5.73471 23.8301 14.0417 2.55528 30.7037 4.68946C16.4248 6.67051 11.9076 25.2561 23.5833 33.5918Z" fill="#F2F1EB"/>
<path d="M44.5138 20.5666C44.5138 25.9355 41.8724 30.6824 37.8242 33.5918H23.5835C11.9077 25.2561 16.4345 6.67051 30.7038 4.68945C38.5036 5.76133 44.5138 12.4701 44.5138 20.5666Z" fill="white"/>
<path d="M21.5528 27.783C21.0169 26.759 20.7202 25.6297 20.7585 24.4621C20.8063 23.0936 21.6198 21.8303 21.5146 20.4426C21.438 19.4377 21.0265 18.6529 20.7202 18.1648C21.8974 18.0691 24.3091 18.94 25.046 19.6291C25.0364 18.0883 25.2278 15.6574 26.4146 12.9682C27.1132 11.3795 27.9745 10.1258 28.721 9.20703C28.3286 12.327 29.9747 16.3273 32.1089 18.2701C32.3386 17.8873 32.9606 17.0068 34.1569 16.4422C34.9991 16.0498 35.7839 15.9828 36.2241 15.9732C35.9274 16.5092 35.5446 17.3705 35.4106 18.4615C35.2192 20.0215 35.8222 21.4762 36.004 23.0074C36.205 24.7205 35.9657 26.5102 35.1618 28.0701C32.3481 33.4965 24.3091 32.9988 21.5528 27.783Z" fill="#FFB508"/>
<path d="M32.1088 30.0031C32.3959 29.5246 32.5491 29.0078 32.5204 28.4623C32.4916 27.8307 32.0706 27.2373 32.128 26.5961C32.1663 26.1271 32.3768 25.7635 32.5395 25.5434C31.9461 25.4955 30.6637 25.8975 30.2713 26.2229C30.2809 25.5146 30.1756 24.3854 29.5536 23.1412C29.1899 22.4043 28.7401 21.8301 28.3477 21.3994C28.386 21.8684 28.386 22.634 28.0415 23.524C27.6395 24.5576 26.9696 25.2467 26.5676 25.6008C26.4432 25.4285 26.1274 25.017 25.4958 24.7586C25.0555 24.5768 24.644 24.548 24.4143 24.5385C24.5674 24.7873 24.7684 25.1797 24.845 25.6869C24.9502 26.4047 24.6344 27.0842 24.5387 27.7924C24.4334 28.5867 24.5579 29.4193 24.979 30.1371C26.4624 32.6541 30.6733 32.4244 32.1088 30.0031Z" fill="#FF9500"/>
<path d="M45.0404 20.5666C45.0404 11.4461 37.6139 4.01953 28.4934 4.01953C13.2287 4.0291 6.1467 23.1697 17.6885 33.1037C16.9516 33.1994 16.3774 33.8215 16.3774 34.5871V42.3199C16.3774 43.1525 17.0569 43.8225 17.8799 43.8225H26.6942V46.9328H25.5936C25.2108 46.9232 24.9428 47.3826 25.1438 47.708L28.034 52.7133C28.2158 53.0578 28.7518 53.0578 28.9336 52.7133L31.8238 47.708C32.0248 47.3826 31.7664 46.9137 31.374 46.9328H30.283V43.8225H39.0973C39.9299 43.8225 40.5998 43.143 40.5998 42.3199V34.5871C40.5998 33.8215 40.0256 33.1994 39.2887 33.1037C42.9063 29.9742 45.0404 25.39 45.0404 20.5666ZM39.5662 34.5871V42.3199C39.5662 42.5783 39.3557 42.7889 39.0973 42.7889H29.7662C29.4791 42.7889 29.2494 43.0186 29.2494 43.3057V47.4496C29.2494 47.7367 29.4791 47.9664 29.7662 47.9664H30.484L28.4934 51.4117L26.5028 47.9664H27.2205C27.5076 47.9664 27.7373 47.7367 27.7373 47.4496V43.3057C27.7373 43.0186 27.5076 42.7889 27.2205 42.7889H17.8799C17.6215 42.7889 17.411 42.5783 17.411 42.3199V34.5871C17.411 34.3287 17.6215 34.1182 17.8799 34.1182H39.0973C39.3557 34.1182 39.5662 34.3287 39.5662 34.5871ZM37.6617 33.075H19.3154C7.32385 24.2416 13.5733 5.09141 28.4838 5.05313C43.4039 5.10098 49.6533 24.2512 37.6617 33.075Z" fill="black"/>
<path d="M22.8256 36.032C22.6534 35.8024 22.328 35.7545 22.0983 35.9268L20.0981 37.4197V36.3479C20.0981 35.6684 19.0645 35.6684 19.0549 36.3479V40.5684C19.0549 41.2479 20.0885 41.2479 20.0981 40.5684V39.4965L22.0983 40.9895C22.6438 41.3914 23.2659 40.5684 22.7204 40.1568L20.4522 38.4629L22.7204 36.769C22.95 36.5871 22.9979 36.2617 22.8256 36.032Z" fill="#231F20"/>
<path d="M27.3811 36.8645C28.0605 36.8645 28.0605 35.8309 27.3811 35.8213H24.5578C24.2707 35.8213 24.041 36.051 24.041 36.3381V40.5586C24.041 40.8457 24.2707 41.0754 24.5578 41.0754H27.3811C28.0605 41.0754 28.0605 40.0418 27.3811 40.0322H25.0746V36.8549H27.3811V36.8645Z" fill="#231F20"/>
<path d="M32.3481 35.8213H29.5249C29.2377 35.8213 29.0081 36.051 29.0081 36.3381V40.5586C29.0081 41.2381 30.0417 41.2381 30.0512 40.5586V38.9699H31.8409V40.5586C31.8409 41.2381 32.8745 41.2381 32.884 40.5586V36.3381C32.8649 36.0605 32.6352 35.8213 32.3481 35.8213ZM30.0321 37.9363V36.8645H31.8217V37.9363H30.0321Z" fill="#231F20"/>
<path d="M37.3916 40.0426H34.999V36.3485C34.999 35.669 33.9654 35.669 33.9558 36.3485V40.569C33.9558 40.8561 34.1855 41.0858 34.4726 41.0858H37.382C38.071 41.0762 38.071 40.0522 37.3916 40.0426Z" fill="#231F20"/>
<path d="M36.2342 15.475C34.7125 15.4271 32.875 16.365 32.0711 17.4656C30.0517 15.2262 28.999 12.2498 29.2574 9.25428C29.2765 9.02459 29.1426 8.81404 28.932 8.72791C28.7215 8.64178 28.4822 8.70877 28.3387 8.88103C26.0609 11.666 24.7211 15.1017 24.5584 18.681C23.9554 18.2312 19.6392 16.7 20.29 18.4322C20.7111 19.0926 20.9504 19.7816 21.0078 20.4707C21.0939 21.801 20.2804 23.0642 20.2517 24.4328C20.1082 28.5002 23.6301 32.0125 27.6687 32.3762C30.9513 32.7781 34.1765 31.1799 35.6312 28.3088C36.4447 26.7392 36.7605 24.8826 36.5308 22.9494C36.3681 21.466 35.7556 19.9922 35.9375 18.5279C36.0332 17.7431 36.2916 16.9679 36.6935 16.231C36.8945 15.9056 36.6265 15.4558 36.2342 15.475ZM25.4388 29.8879C25.0943 29.3041 24.9699 28.6054 25.0656 27.8781C25.2092 27.0263 25.5824 26.1554 25.2953 25.2367C25.7355 25.409 26.0226 25.7056 26.1566 25.9066C26.2428 26.031 26.3767 26.1076 26.5203 26.1267C26.6734 26.1459 26.817 26.098 26.9222 26.0023C27.8888 25.141 28.5492 24.0691 28.798 22.8441C29.4392 23.8681 29.7838 25.0453 29.7646 26.232C29.7646 26.4234 29.8699 26.5957 30.0326 26.6914C30.1953 26.7871 30.4058 26.7775 30.5685 26.6722C30.9035 26.4521 31.2767 26.2894 31.6787 26.1937C31.4203 27.0072 31.9179 27.7633 32.0137 28.5002C32.0328 28.9117 31.9084 29.3424 31.6691 29.7539C30.5494 31.7732 26.6447 32.0412 25.4388 29.8879ZM34.7125 27.8398C34.1957 28.8256 33.4683 29.639 32.5879 30.2324C32.9133 29.6678 33.076 29.0457 33.0568 28.4428C33.0472 27.8015 32.6453 27.2273 32.6549 26.6435C32.674 26.3756 32.7888 26.1076 32.9707 25.8492C33.5162 24.5285 31.3533 25.141 30.7599 25.3898C30.5877 23.7724 29.8508 22.2603 28.7406 21.0449C28.5875 20.8822 28.3482 20.8344 28.1472 20.9205C27.9463 21.0066 27.8219 21.2172 27.841 21.4373C27.9558 22.691 27.4773 23.9064 26.6064 24.8347C26.1949 24.2892 23.5152 23.2939 23.9842 24.7965C24.6445 25.7152 24.2138 26.701 24.032 27.7154C23.9172 28.5863 24.0607 29.4189 24.4244 30.1558C22.5582 28.9691 21.1801 26.6818 21.2853 24.4711C21.3523 23.1025 22.1658 21.8392 22.0414 20.3941C22.0031 19.839 21.8595 19.284 21.6299 18.748C22.7592 18.9203 23.831 19.3605 24.7498 20.04C25.0752 20.2984 25.592 20.0304 25.5824 19.6189C25.5537 16.4703 26.4724 13.4174 28.2047 10.8047C28.3674 13.7428 29.6689 16.5373 31.7648 18.6332C31.8797 18.748 32.0328 18.8054 32.1955 18.7863C32.3582 18.7672 32.4922 18.681 32.5783 18.547C32.9228 17.8388 34.2531 16.7478 35.3824 16.5947C34.3967 18.7097 35.1431 20.9588 35.4972 23.0738C35.7078 24.8156 35.4303 26.4617 34.7125 27.8398Z" fill="#231F20"/>
</svg>
