<svg width="57" height="57" viewBox="0 0 57 57" fill="none" xmlns="http://www.w3.org/2000/svg">
<rect x="0.5" y="0.5" width="56" height="56" rx="11.5" fill="#F5F5F5"/>
<rect x="0.5" y="0.5" width="56" height="56" rx="11.5" stroke="#BE4EFF"/>
<path d="M28.6024 40.9382C34.7842 40.9382 39.7956 35.9268 39.7956 29.745C39.7956 23.5631 34.7842 18.5518 28.6024 18.5518C22.4205 18.5518 17.4092 23.5631 17.4092 29.745C17.4092 35.9268 22.4205 40.9382 28.6024 40.9382Z" fill="#FFDA62"/>
<path d="M28.2913 14.084C29.2597 14.084 30.1885 14.4687 30.8733 15.1535C31.5581 15.8383 31.9428 16.767 31.9428 17.7354V22.8584H27.8645V14.5114C27.8644 14.3981 27.9094 14.2895 27.9894 14.2093C28.0695 14.1292 28.178 14.0841 28.2913 14.084Z" fill="#5AC242"/>
<path d="M27.8645 19.7168H31.944V24.8397C31.944 25.3193 31.8495 25.7942 31.6659 26.2373C31.4823 26.6804 31.2132 27.083 30.874 27.422C30.5348 27.7611 30.1321 28.03 29.689 28.2134C29.2459 28.3968 28.7709 28.4912 28.2913 28.491C28.1781 28.4909 28.0695 28.4458 27.9895 28.3657C27.9095 28.2856 27.8645 28.177 27.8645 28.0638V19.7168Z" fill="#5AC242"/>
<path d="M34.7615 17.5365C33.6955 17.0342 32.5022 16.6865 31.2432 16.6865C26.6959 16.6865 22.2314 21.2185 22.2314 21.2185C22.2314 21.2185 26.6959 25.7504 31.2435 25.7504C32.5805 25.7504 33.8426 25.3584 34.9589 24.8053C34.0227 23.838 33.4831 22.5549 33.4466 21.2093C33.41 19.8636 33.8792 18.5532 34.7615 17.5365Z" fill="white" stroke="#7A1800" stroke-width="0.738" stroke-linecap="round" stroke-linejoin="round"/>
<path d="M38.3258 20.0166C37.49 19.2352 36.2475 18.2356 34.7614 17.5361C33.8792 18.5528 33.41 19.8633 33.4466 21.209C33.4831 22.5546 34.0227 23.8377 34.9588 24.805C36.3576 24.1121 37.5273 23.1663 38.3258 22.4196C38.4903 22.2657 38.6215 22.0797 38.7112 21.873C38.8009 21.6663 38.8471 21.4434 38.8471 21.2181C38.8471 20.9928 38.8009 20.7699 38.7112 20.5633C38.6215 20.3566 38.4903 20.1705 38.3258 20.0166Z" fill="white" stroke="#7A1800" stroke-width="0.738" stroke-linecap="round" stroke-linejoin="round"/>
<path d="M35.7884 21.3864C36.0459 21.3864 36.2546 21.1777 36.2546 20.9203C36.2546 20.6628 36.0459 20.4541 35.7884 20.4541C35.531 20.4541 35.3223 20.6628 35.3223 20.9203C35.3223 21.1777 35.531 21.3864 35.7884 21.3864Z" fill="#7A1800"/>
<path d="M21.0522 17.8974C22.3628 18.8691 22.4093 21.0267 22.4093 21.0267C22.4093 21.0267 20.3312 21.6091 19.0207 20.6372C17.7101 19.6653 17.6636 17.5079 17.6636 17.5079C17.6636 17.5079 19.7417 16.9259 21.0522 17.8974Z" fill="#5AC242" stroke="#7A1800" stroke-width="0.738" stroke-linecap="round" stroke-linejoin="round"/>
<path d="M21.0522 24.5387C22.3628 23.567 22.4093 21.4094 22.4093 21.4094C22.4093 21.4094 20.3312 20.827 19.0207 21.7989C17.7101 22.7708 17.6636 24.9282 17.6636 24.9282C17.6636 24.9282 19.7417 25.5104 21.0522 24.5387Z" fill="#5AC242" stroke="#7A1800" stroke-width="0.738" stroke-linecap="round" stroke-linejoin="round"/>
<path d="M41.0367 27.4807C38.517 26.2009 35.8375 26.8805 35.8375 26.8805L34.6895 27.9655C34.785 28.1436 34.8192 28.3483 34.7869 28.5478C34.7545 28.7473 34.6573 28.9306 34.5103 29.0694C34.3633 29.2082 34.1747 29.2947 33.9737 29.3155C33.7726 29.3364 33.5703 29.2905 33.398 29.1849L30.0786 32.3199L43.9161 30.8402C43.9161 30.8402 43.5563 28.7605 41.0367 27.4807Z" fill="white" stroke="#7A1800" stroke-width="0.738" stroke-linecap="round" stroke-linejoin="round"/>
<path d="M30.0786 33.7197V33.8796C30.3226 33.8796 30.5565 33.9765 30.729 34.149C30.9015 34.3215 30.9984 34.5555 30.9984 34.7994C30.9984 35.0434 30.9015 35.2773 30.729 35.4498C30.5565 35.6223 30.3226 35.7192 30.0786 35.7192V37.799L39.0445 36.6069C39.0396 36.5578 39.0371 36.5084 39.0371 36.4591C39.0373 36.0926 39.1754 35.7397 39.4238 35.4703C39.6722 35.2009 40.0129 35.0348 40.3781 35.005C40.7434 34.9752 41.1065 35.0838 41.3953 35.3093C41.6841 35.5349 41.8776 35.8607 41.9372 36.2223L43.9163 35.9591V30.96L30.0788 32.3197L30.0786 33.7197Z" fill="white" stroke="#7A1800" stroke-width="0.738" stroke-linecap="round" stroke-linejoin="round"/>
<path d="M39.7567 30.16C40.2648 30.16 40.6766 29.7482 40.6766 29.2401C40.6766 28.7321 40.2648 28.3203 39.7567 28.3203C39.2487 28.3203 38.8369 28.7321 38.8369 29.2401C38.8369 29.7482 39.2487 30.16 39.7567 30.16Z" fill="white" stroke="#7A1800" stroke-width="0.738" stroke-linecap="round" stroke-linejoin="round"/>
<path d="M33.3578 35.9988C33.8658 35.9988 34.2777 35.587 34.2777 35.079C34.2777 34.571 33.8658 34.1592 33.3578 34.1592C32.8498 34.1592 32.438 34.571 32.438 35.079C32.438 35.587 32.8498 35.9988 33.3578 35.9988Z" fill="white" stroke="#7A1800" stroke-width="0.738" stroke-linecap="round" stroke-linejoin="round"/>
<path d="M37.6369 34.56C38.0014 34.56 38.2968 34.2646 38.2968 33.9001C38.2968 33.5357 38.0014 33.2402 37.6369 33.2402C37.2725 33.2402 36.9771 33.5357 36.9771 33.9001C36.9771 34.2646 37.2725 34.56 37.6369 34.56Z" fill="#FFDA62"/>
<path d="M36.5771 30.6001C36.9416 30.6001 37.237 30.3046 37.237 29.9402C37.237 29.5757 36.9416 29.2803 36.5771 29.2803C36.2127 29.2803 35.9172 29.5757 35.9172 29.9402C35.9172 30.3046 36.2127 30.6001 36.5771 30.6001Z" fill="#FFDA62"/>
<path d="M42.0964 33.9194C42.4609 33.9194 42.7563 33.624 42.7563 33.2595C42.7563 32.8951 42.4609 32.5996 42.0964 32.5996C41.732 32.5996 41.4365 32.8951 41.4365 33.2595C41.4365 33.624 41.732 33.9194 42.0964 33.9194Z" fill="#FFDA62"/>
<path d="M26.942 34.6141C26.942 37.5102 25.4775 39.1284 23.3258 39.1284C21.0544 39.1284 19.7395 37.5102 19.7395 34.6141C19.7395 31.9237 21.6821 28.6406 23.3258 28.6406C24.9695 28.6406 26.942 31.9854 26.942 34.6141Z" fill="#C0773D"/>
<path d="M22.2135 37.872C21.4611 37.1135 21.0727 35.8956 21.111 34.2802C21.1417 32.9887 21.6317 31.5693 22.3129 30.459" stroke="#7A1800" stroke-width="0.738" stroke-linecap="round" stroke-linejoin="round"/>
<path d="M24.2109 30.3291C24.9623 31.1505 25.4834 32.4322 25.574 33.844C25.656 35.1327 25.3366 36.8073 24.4949 37.8725" stroke="#7A1800" stroke-width="0.738" stroke-linecap="round" stroke-linejoin="round"/>
<path d="M23.3406 31.2861V34.6295" stroke="#7A1800" stroke-width="0.738" stroke-linecap="round" stroke-linejoin="round"/>
<path d="M20.7669 33.6145C22.987 35.6625 23.1918 37.7619 21.6703 39.1653C20.0641 40.6468 17.894 40.3603 15.6738 38.3125C13.6115 36.4101 12.4685 32.8216 13.6306 31.7494C14.7928 30.6773 18.7511 31.7552 20.7669 33.6145Z" fill="#C0773D" stroke="#7A1800" stroke-width="0.738" stroke-linecap="round" stroke-linejoin="round"/>
<path d="M19.9215 38.6954C18.8083 38.6499 17.5997 38.042 16.3885 36.8748C15.4209 35.9422 15.1091 34.9258 14.7395 33.6973" stroke="#7A1800" stroke-width="0.738" stroke-linecap="round" stroke-linejoin="round"/>
<path d="M17.5325 33.5586C19.316 33.9891 20.9445 35.9671 21.1659 37.2691" stroke="#7A1800" stroke-width="0.738" stroke-linecap="round" stroke-linejoin="round"/>
<path d="M16.3022 34.1738L19.7462 37.372" stroke="#7A1800" stroke-width="0.738" stroke-linecap="round" stroke-linejoin="round"/>
<path d="M18.6437 28.9407C19.3374 30.1968 19.1152 31.1738 18.2187 31.5785C17.2727 32.0055 16.3373 31.551 15.6435 30.295C14.999 29.1281 15.0218 27.3391 15.7065 27.0301C16.3912 26.7212 18.0137 27.8003 18.6437 28.9407Z" fill="white" stroke="#7A1800" stroke-width="0.738" stroke-linecap="round" stroke-linejoin="round"/>
<path d="M24.4957 40.9938C23.2966 42.1008 22.0674 42.2019 21.2456 41.4448C20.3782 40.6453 20.5459 39.5636 21.745 38.4574C22.8587 37.4299 24.96 36.8604 25.5877 37.4396C26.2154 38.0187 25.5844 39.9896 24.4957 40.9938Z" fill="white" stroke="#7A1800" stroke-width="0.738" stroke-linecap="round" stroke-linejoin="round"/>
<path d="M29.8338 43.3218C28.2073 43.1965 27.2957 42.3657 27.2918 41.2476C27.2873 40.0674 28.1938 39.4543 29.8198 39.5795C31.3307 39.696 33.1783 40.8472 33.1818 41.7013C33.1853 42.5553 31.3104 43.4354 29.8338 43.3218Z" fill="white" stroke="#7A1800" stroke-width="0.738" stroke-linecap="round" stroke-linejoin="round"/>
</svg>
