<svg width="24" height="25" viewBox="0 0 24 25" fill="none" xmlns="http://www.w3.org/2000/svg">
<path d="M21.609 14.3477L21.8382 11.9125C22.0182 9.99983 22.1082 9.04352 21.781 8.64821C21.604 8.43436 21.3633 8.30333 21.106 8.28073C20.6303 8.23895 20.0329 8.91904 18.8381 10.2792C18.2202 10.9826 17.9113 11.3343 17.5666 11.3888C17.3757 11.419 17.1811 11.388 17.0047 11.2992C16.6865 11.1391 16.4743 10.7043 16.0499 9.83465L13.8131 5.25099C13.0112 3.60775 12.6102 2.78613 12 2.78613C11.3898 2.78613 10.9888 3.60775 10.1869 5.25099L7.95007 9.83465C7.5257 10.7043 7.31351 11.1391 6.99526 11.2992C6.81892 11.388 6.62434 11.419 6.43337 11.3888C6.08872 11.3343 5.77977 10.9826 5.16187 10.2792C3.96708 8.91904 3.36968 8.23895 2.89399 8.28073C2.63666 8.30333 2.39598 8.43436 2.21899 8.64821C1.8918 9.04352 1.9818 9.99983 2.16181 11.9124L2.391 14.3477C2.76865 18.3603 2.95748 20.3666 4.14009 21.5764C5.32271 22.7861 7.09517 22.7861 10.6401 22.7861H13.3599C16.9048 22.7861 18.6773 22.7861 19.8599 21.5764C21.0425 20.3666 21.2313 18.3603 21.609 14.3477Z" stroke="#505050"/>
<path d="M9 18.7861H15" stroke="#505050" stroke-linecap="round"/>
</svg>
