<svg width="60" height="61" viewBox="0 0 60 61" fill="none" xmlns="http://www.w3.org/2000/svg">
<g clip-path="url(#clip0_611_7396)">
<path d="M43.0665 12.8184V54.9344C43.0665 55.9293 42.756 56.8516 42.2275 57.6098C42.2275 57.6098 3.92498 49.8495 9.52748 8.13086H38.379C40.9677 8.13086 43.0665 10.2285 43.0665 12.8184Z" fill="#99B2E9"/>
<path d="M42.4148 51.523L42.2273 57.6098C41.3812 58.8262 39.9727 59.6219 38.3789 59.6219H5.56641C2.97773 59.6219 0.878906 57.523 0.878906 54.9344V12.8184C0.878906 10.2285 2.97773 8.13086 5.56641 8.13086H9.52734C9.60938 29.3652 23.5734 47.2551 42.4148 51.523Z" fill="#85A4E4"/>
<path d="M38.9647 13.4043V50.5727C19.3428 48.1727 8.01996 32.8019 9.71824 12.2324H37.7928C38.4397 12.2324 38.9647 12.7562 38.9647 13.4043Z" fill="#FFF8E6"/>
<path d="M38.9648 50.5727V54.3484C38.9648 54.9953 38.4398 55.5203 37.793 55.5203H6.15234C5.50547 55.5203 4.98047 54.9953 4.98047 54.3484V13.4043C4.98047 12.7562 5.50547 12.2324 6.15234 12.2324H9.71836C11.3332 30.3484 23.0777 45.407 38.9648 50.5727Z" fill="#FFF1CF"/>
<path d="M27.6171 6.06641C27.1082 6.06641 26.674 5.70242 26.5807 5.20203C26.175 3.02609 24.2662 1.37891 21.9727 1.37891C19.6791 1.37891 17.7703 3.02609 17.3647 5.20203C17.2714 5.70242 16.8373 6.06641 16.3283 6.06641H14.3555C13.061 6.06641 12.0117 7.1157 12.0117 8.41016V11.7162C12.0117 13.0107 13.061 14.06 14.3555 14.06H29.5898C30.8843 14.06 31.9336 13.0107 31.9336 11.7162V8.41016C31.9336 7.1157 30.8843 6.06641 29.5898 6.06641H27.6171Z" fill="#FF6E80"/>
<path d="M54.1043 36.4474C54.9328 38.0013 54.9656 39.9337 54.0199 41.5708C53.2969 42.8236 52.1367 43.6673 50.8441 44.0212C50.6039 46.3286 50.243 48.6982 49.7555 51.356C48.4395 53.4794 34.65 53.4782 33.3305 51.3583C33.0668 49.9157 32.8395 48.5587 32.6484 47.2497C32.6484 47.2497 32.6484 32.3751 37.9863 17.8954C40.6582 16.1107 44.2699 16.5279 46.5023 19.1482C46.7531 19.4423 47.1223 19.6146 47.5102 19.6017C49.0758 19.5478 50.6496 20.1888 51.7348 21.4825C52.7988 22.7505 53.1645 24.3724 52.8715 25.8806C52.7766 26.3669 52.9688 26.8685 53.373 27.1544C54.723 28.1095 55.6055 29.6833 55.6055 31.4634C55.6055 32.8052 55.1051 34.0286 54.2801 34.9591C53.9145 35.3728 53.8441 35.9611 54.1043 36.4474Z" fill="#8CE09F"/>
<path d="M51.1559 40.95L32.6484 47.2488C32.4867 46.1449 32.352 45.0762 32.2418 44.0203C30.6492 43.5832 29.2852 42.4066 28.677 40.7367C28.1402 39.2613 28.3031 37.7016 28.9957 36.4207C29.25 35.9531 29.1867 35.3824 28.8305 34.9863C27.9914 34.0523 27.4805 32.8172 27.4805 31.4625C27.4805 29.6824 28.3629 28.1086 29.7129 27.1535C30.1172 26.8676 30.3094 26.366 30.2145 25.8797C29.9215 24.3715 30.2871 22.7496 31.3512 21.4816C32.4363 20.1879 34.0102 19.5469 35.5758 19.6008C35.9637 19.6137 36.3328 19.4414 36.5836 19.1473C37.0066 18.6504 37.4801 18.232 37.9863 17.8945C36.368 28.6055 40.8445 36.4066 51.1559 40.95Z" fill="#73DA8C"/>
<path d="M57.9488 44.6957C57.9488 50.691 54.0137 54.4832 49.1598 54.4832C46.6543 54.4832 44.3937 53.473 42.793 51.6695C42.793 51.6695 45.7391 39.9426 45.9324 33.673C46.932 33.0965 48.0207 32.7695 49.1598 32.7695C54.0137 32.7695 57.9488 38.6992 57.9488 44.6957Z" fill="#FFF8E6"/>
<path d="M54.1168 45.6953C54.1168 46.0633 54.077 46.4219 54.0008 46.7676C50.261 45.9038 48.2021 43.9117 47.6211 40.982C48.1051 40.8238 48.623 40.7383 49.1598 40.7383C51.8973 40.7383 54.1168 42.9578 54.1168 45.6953Z" fill="#FCE3A0"/>
<path d="M55.3301 47.4035L42.7934 51.6703C41.2934 49.9816 40.3711 47.5969 40.3711 44.6965C40.3711 40.1074 42.675 35.5582 45.9328 33.6738C45.7395 39.9434 48.9152 44.577 55.3301 47.4035Z" fill="#FFF1CF"/>
<path d="M54.0012 46.766C53.9039 47.2055 53.748 47.6238 53.543 48.0105L47.0977 50.2043C45.3902 49.4215 44.2031 47.6965 44.2031 45.6938C44.2031 43.493 45.6375 41.6273 47.6215 40.9805C48.9621 43.3242 51.0937 45.2602 54.0012 46.766Z" fill="#FFCE71"/>
<path d="M46.2301 45.3184C46.2301 51.1426 41.5086 55.8652 35.6832 55.8652C31.7937 55.8652 28.3965 53.7594 26.5684 50.627C27.3195 50.9363 32.0258 40.6941 32.6996 35.2004C33.6453 34.9203 34.6473 34.7715 35.6832 34.7715C41.5086 34.7715 46.2301 39.493 46.2301 45.3184Z" fill="#FF6E80"/>
<path d="M39.8062 47.0758L27.9176 51.1211C27.8121 51.1211 27.3199 50.9371 26.5688 50.6277C25.6582 49.068 25.1367 47.2551 25.1367 45.3191C25.1367 40.5297 28.3277 36.4867 32.7 35.2012C32.0262 40.6949 34.4379 44.7109 39.8062 47.0758Z" fill="#FD5C6F"/>
<path d="M42.7145 45.3184C42.7145 49.2008 39.5668 52.3496 35.6832 52.3496C33.6957 52.3496 31.9016 51.5246 30.623 50.1992C30.623 50.1992 33.3664 42.5422 32.75 38.927C33.643 38.5156 34.6367 38.2871 35.6832 38.2871C39.5668 38.2871 42.7145 41.4348 42.7145 45.3184Z" fill="#FFA1AC"/>
<path d="M39.8062 47.0758L30.6234 50.2C29.4035 48.9367 28.6523 47.2152 28.6523 45.3191C28.6523 42.482 30.3316 40.0387 32.7504 38.9277C33.3668 42.543 35.7363 45.2828 39.8062 47.0758Z" fill="#FF8A98"/>
<path d="M59.1215 47.9023V51.418C59.1215 55.9484 55.4488 59.6211 50.9184 59.6211H49.3773C38.6296 58.1442 33.9827 53.3412 39.6004 46.7305H57.9496C58.5965 46.7305 59.1215 47.2555 59.1215 47.9023Z" fill="#B5E9F1"/>
<path d="M49.377 59.6211H32.168C27.6375 59.6211 23.9648 55.9484 23.9648 51.418V47.9023C23.9648 47.2551 24.4895 46.7305 25.1367 46.7305H39.6C39.6551 52.0437 41.7703 57.5328 49.377 59.6211Z" fill="#9BE1EC"/>
<path d="M28.0801 11.4219H15.7754C15.29 11.4219 14.8965 11.0284 14.8965 10.543C14.8965 10.0576 15.29 9.66406 15.7754 9.66406H28.0801C28.5655 9.66406 28.959 10.0576 28.959 10.543C28.959 11.0284 28.5655 11.4219 28.0801 11.4219Z" fill="#252525"/>
<path d="M14.9768 21.2906C14.6335 20.9474 14.077 20.9474 13.7339 21.2906L11.0072 24.0174L10.2894 23.2996C9.94614 22.9563 9.38962 22.9563 9.04649 23.2996C8.70325 23.6428 8.70325 24.1993 9.04649 24.5425L10.3858 25.8818C10.5574 26.0534 10.7824 26.1393 11.0073 26.1393C11.2322 26.1393 11.4572 26.0535 11.6287 25.8818L14.9769 22.5336C15.32 22.1904 15.32 21.6339 14.9768 21.2906Z" fill="#252525"/>
<path d="M14.9768 30.0797C14.6335 29.7365 14.077 29.7365 13.7339 30.0797L11.0072 32.8064L10.2894 32.0886C9.94614 31.7454 9.38962 31.7454 9.04649 32.0886C8.70325 32.4319 8.70325 32.9884 9.04649 33.3315L10.3858 34.6709C10.5574 34.8424 10.7824 34.9283 11.0073 34.9283C11.2322 34.9283 11.4572 34.8425 11.6287 34.6709L14.9769 31.3227C15.32 30.9795 15.32 30.4229 14.9768 30.0797Z" fill="#252525"/>
<path d="M14.9768 38.8688C14.6335 38.5255 14.077 38.5255 13.7339 38.8688L11.0072 41.5955L10.2894 40.8777C9.94614 40.5345 9.38962 40.5345 9.04649 40.8777C8.70325 41.2209 8.70325 41.7775 9.04649 42.1206L10.3858 43.4599C10.5574 43.6315 10.7824 43.7174 11.0073 43.7174C11.2322 43.7174 11.4572 43.6316 11.6287 43.4599L14.9769 40.1118C15.32 39.7685 15.32 39.212 14.9768 38.8688Z" fill="#252525"/>
<path d="M35.9469 53.5291C35.4615 53.5291 35.068 53.1356 35.068 52.6502C35.068 52.2453 34.7386 51.916 34.3338 51.916C33.929 51.916 33.5996 52.2454 33.5996 52.6502C33.5996 53.1356 33.2061 53.5291 32.7207 53.5291C32.2353 53.5291 31.8418 53.1356 31.8418 52.6502C31.8418 51.2761 32.9598 50.1582 34.3338 50.1582C35.7078 50.1582 36.8258 51.2762 36.8258 52.6502C36.8258 53.1356 36.4323 53.5291 35.9469 53.5291Z" fill="#252525"/>
<path d="M50.3658 53.5291C49.8804 53.5291 49.4869 53.1356 49.4869 52.6502C49.4869 52.2453 49.1575 51.916 48.7527 51.916C48.348 51.916 48.0186 52.2454 48.0186 52.6502C48.0186 53.1356 47.625 53.5291 47.1396 53.5291C46.6543 53.5291 46.2607 53.1356 46.2607 52.6502C46.2607 51.2761 47.3787 50.1582 48.7527 50.1582C50.1268 50.1582 51.2447 51.2762 51.2447 52.6502C51.2447 53.1356 50.8512 53.5291 50.3658 53.5291Z" fill="#252525"/>
<path d="M41.5431 56.1937C40.6332 56.1937 39.7681 55.7997 39.1694 55.1126C38.8506 54.7466 38.8886 54.1915 39.2546 53.8725C39.6206 53.5537 40.1757 53.5918 40.4947 53.9577C40.7594 54.2616 41.1417 54.4359 41.5432 54.4359C41.9447 54.4359 42.3269 54.2616 42.5916 53.9577C42.9105 53.5918 43.4658 53.5537 43.8317 53.8725C44.1977 54.1914 44.2358 54.7465 43.9169 55.1126C43.318 55.7997 42.4529 56.1937 41.5431 56.1937Z" fill="#252525"/>
<path d="M58.7657 46.0211C58.8071 45.587 58.8281 45.1439 58.8281 44.6961C58.8281 41.5946 57.8304 38.4155 56.0906 35.9743C55.8519 35.6393 55.6037 35.3236 55.347 35.0273C56.0842 33.9912 56.4844 32.748 56.4844 31.4633C56.4844 29.4692 55.511 27.5902 53.8806 26.4368C53.762 26.3529 53.7045 26.2006 53.7342 26.048C54.0901 24.2159 53.6067 22.3459 52.4081 20.9176C51.1833 19.4573 49.3855 18.6582 47.481 18.7231C47.3668 18.7286 47.2519 18.6726 47.1714 18.578C46.2894 17.5428 45.1732 16.7792 43.9453 16.3452V12.8176C43.9453 9.74832 41.4482 7.25117 38.3789 7.25117H32.597C32.1305 6.04508 30.9585 5.1875 29.5898 5.1875H27.6176C27.5319 5.1875 27.4607 5.12668 27.4445 5.04055C26.9539 2.40957 24.6529 0.5 21.9727 0.5C19.2925 0.5 16.9914 2.40957 16.5011 5.03961C16.4846 5.12668 16.4135 5.1875 16.3277 5.1875H14.3555C12.9868 5.1875 11.8148 6.04508 11.3483 7.25117H5.56641C2.49715 7.25117 0 9.7482 0 12.8176V54.9336C0 58.0029 2.49715 60.5 5.56641 60.5H32.168H50.918C55.9259 60.5 60 56.4259 60 51.418V47.9023C60 47.0615 59.4914 46.3373 58.7657 46.0211ZM57.0703 44.6961C57.0703 45.0874 57.0521 45.4739 57.0161 45.8516H54.994C54.9954 45.7993 54.9961 45.7469 54.9961 45.6945C54.9961 42.4766 52.3781 39.8586 49.1602 39.8586C48.0797 39.8586 47.0392 40.1529 46.1352 40.7025C45.5289 39.335 44.6619 38.1079 43.5975 37.0845C45.1228 34.8917 47.1209 33.6488 49.1602 33.6488C53.3 33.6488 57.0703 38.9144 57.0703 44.6961ZM46.7357 42.4153C47.4339 41.8971 48.2779 41.6164 49.1602 41.6164C51.4087 41.6164 53.2383 43.4458 53.2383 45.6945C53.2383 45.7469 53.2372 45.7993 53.2352 45.8516H47.0971C47.1053 45.6741 47.1094 45.4961 47.1094 45.3184C47.1094 44.3156 46.9795 43.3426 46.7357 42.4153ZM35.6836 37.4082C31.3219 37.4082 27.7734 40.9566 27.7734 45.3184C27.7734 45.4961 27.7794 45.674 27.7914 45.8516H26.0302C26.0205 45.6744 26.0156 45.4964 26.0156 45.3184C26.0156 39.9874 30.3526 35.6504 35.6836 35.6504C41.0146 35.6504 45.3516 39.9874 45.3516 45.3184C45.3516 45.4964 45.3466 45.6744 45.337 45.8516H43.5758C43.5878 45.674 43.5938 45.4961 43.5938 45.3184C43.5938 40.9566 40.0453 37.4082 35.6836 37.4082ZM45.8334 19.7183C46.2647 20.2241 46.8857 20.5025 47.5404 20.48C48.9029 20.4339 50.1866 21.0044 51.0615 22.0474C51.9178 23.0679 52.2629 24.4038 52.0089 25.7121C51.8469 26.5415 52.1832 27.3893 52.8655 27.8718C54.0308 28.6962 54.7266 30.0389 54.7266 31.4633C54.7266 32.2848 54.4977 33.0823 54.0702 33.7734C52.5845 32.5455 50.902 31.891 49.1602 31.891C46.6562 31.891 44.2521 33.2677 42.4219 35.7105V34.916C43.7858 32.4833 45.7004 30.5821 48.1161 29.2636C48.5422 29.0309 48.699 28.497 48.4664 28.0709C48.2338 27.645 47.6998 27.488 47.2738 27.7207C45.3729 28.7584 43.7491 30.1163 42.4219 31.7748V29.2605C43.4599 27.4096 44.8164 25.8629 46.4566 24.661C46.8482 24.3741 46.933 23.8241 46.6461 23.4325C46.3591 23.041 45.8092 22.9563 45.4177 23.243C44.2973 24.0639 43.2959 25.0261 42.4219 26.1191V22.2254C42.4219 21.74 42.0284 21.3465 41.543 21.3465C41.0576 21.3465 40.6641 21.74 40.6641 22.2254V26.1199C39.7898 25.0265 38.7882 24.0642 37.6676 23.243C37.2759 22.9562 36.7261 23.0409 36.4391 23.4325C36.1522 23.8241 36.237 24.374 36.6286 24.661C38.2692 25.8632 39.626 27.4104 40.6641 29.2618V31.7757C39.3366 30.1168 37.7126 28.7586 35.8114 27.7207C35.3854 27.488 34.8514 27.645 34.6188 28.0709C34.3862 28.497 34.5431 29.0309 34.9691 29.2636C37.385 30.5824 39.3 32.4839 40.6641 34.9173V35.0363C39.158 34.3038 37.4679 33.8927 35.6836 33.8927C33.6113 33.8927 31.6661 34.4472 29.9885 35.4158C29.9171 35.0451 29.7473 34.6924 29.4843 34.3999C28.7589 33.5923 28.3594 32.5495 28.3594 31.4634C28.3594 30.039 29.0551 28.6964 30.2204 27.872C30.9027 27.3894 31.239 26.5415 31.0773 25.713C30.823 24.4039 31.1682 23.0679 32.0245 22.0474C32.8993 21.0044 34.1816 20.4327 35.5467 20.4801C36.1997 20.5012 36.8213 20.2241 37.2527 19.718C38.3673 18.4096 39.891 17.6892 41.543 17.6892C43.195 17.6892 44.7188 18.4096 45.8334 19.7183ZM32.8125 9.00898H38.3789C40.4789 9.00898 42.1875 10.7176 42.1875 12.8176V15.9603C41.974 15.941 41.7589 15.9311 41.543 15.9311C40.9664 15.9311 40.3966 16.001 39.8438 16.1356V13.4035C39.8438 12.2728 38.9237 11.3527 37.793 11.3527H32.8125V9.00898ZM5.56641 58.7422C3.46641 58.7422 1.75781 57.0336 1.75781 54.9336V12.8176C1.75781 10.7176 3.46641 9.00898 5.56641 9.00898H11.1328V11.3527H6.15234C5.0216 11.3527 4.10156 12.2728 4.10156 13.4035V39.459C4.10156 39.9444 4.49508 40.3379 4.98047 40.3379C5.46586 40.3379 5.85938 39.9444 5.85938 39.459V13.4035C5.85938 13.242 5.99086 13.1105 6.15234 13.1105H11.4504C11.9713 14.1912 13.0777 14.9387 14.3555 14.9387H19.9219C20.4073 14.9387 20.8008 14.5452 20.8008 14.0598C20.8008 13.5744 20.4073 13.1809 19.9219 13.1809H14.3555C13.5477 13.1809 12.8906 12.5238 12.8906 11.716V8.41016C12.8906 7.60238 13.5477 6.94531 14.3555 6.94531H16.3277C17.2575 6.94531 18.057 6.28004 18.2289 5.3627C18.5643 3.56363 20.1388 2.25781 21.9727 2.25781C23.8065 2.25781 25.3811 3.56363 25.7166 5.36352C25.8884 6.28004 26.6878 6.94531 27.6176 6.94531H29.5898C30.3976 6.94531 31.0547 7.60238 31.0547 8.41016V11.716C31.0547 12.5238 30.3976 13.1809 29.5898 13.1809H24.0234C23.538 13.1809 23.1445 13.5744 23.1445 14.0598C23.1445 14.5452 23.538 14.9387 24.0234 14.9387H29.5898C30.8677 14.9387 31.974 14.1911 32.4949 13.1105H37.793C37.9545 13.1105 38.0859 13.242 38.0859 13.4035V16.814C37.2744 17.2535 36.5364 17.8482 35.9148 18.5778C35.8341 18.6725 35.7179 18.7254 35.6061 18.7231C33.8154 18.661 32.1234 19.3624 30.9097 20.6562H19.0512C18.5658 20.6562 18.1723 21.0498 18.1723 21.5352C18.1723 22.0205 18.5658 22.4141 19.0512 22.4141H29.7486C29.4259 23.1525 29.2522 23.9477 29.2383 24.7578H19.0512C18.5658 24.7578 18.1723 25.1513 18.1723 25.6367C18.1723 26.1221 18.5658 26.5156 19.0512 26.5156H29.0965C28.0898 27.2613 27.3459 28.2884 26.9432 29.4453H19.0512C18.5658 29.4453 18.1723 29.8388 18.1723 30.3242C18.1723 30.8096 18.5658 31.2031 19.0512 31.2031H26.6072C26.6036 31.2896 26.6017 31.3763 26.6017 31.4633C26.6017 32.1807 26.7262 32.8845 26.9645 33.5469H19.0512C18.5658 33.5469 18.1723 33.9404 18.1723 34.4258C18.1723 34.9112 18.5658 35.3047 19.0512 35.3047H27.9479C28.0215 35.3967 28.0978 35.4868 28.177 35.5749C28.2825 35.6922 28.3008 35.8597 28.2232 36.0023C28.0351 36.3489 27.881 36.714 27.7637 37.0903C27.3925 37.4477 27.0454 37.83 26.725 38.2343H19.0512C18.5658 38.2343 18.1723 38.6278 18.1723 39.1132C18.1723 39.5986 18.5658 39.9921 19.0512 39.9921H25.577C25.1868 40.7295 24.8749 41.5145 24.6526 42.3358H19.0512C18.5658 42.3358 18.1723 42.7293 18.1723 43.2147C18.1723 43.7001 18.5658 44.0936 19.0512 44.0936H24.3231C24.28 44.4961 24.2578 44.9046 24.2578 45.3182C24.2578 45.5587 24.2654 45.7995 24.2803 46.0389C23.576 46.364 23.0859 47.0769 23.0859 47.9022V51.4179C23.0859 52.5521 23.295 53.6386 23.6766 54.6405H6.15234C5.99086 54.6405 5.85938 54.509 5.85938 54.3475V43.5604C5.85938 43.075 5.46586 42.6815 4.98047 42.6815C4.49508 42.6815 4.10156 43.075 4.10156 43.5604V54.3475C4.10156 55.4783 5.0216 56.3983 6.15234 56.3983H24.5766C25.1739 57.3057 25.9293 58.1001 26.8034 58.7421H5.56641V58.7422ZM58.2422 51.418C58.2422 55.4565 54.9565 58.7422 50.918 58.7422H32.168C28.1295 58.7422 24.8438 55.4565 24.8438 51.418V47.9023C24.8438 47.7409 24.9752 47.6094 25.1367 47.6094H33.8953C34.3807 47.6094 34.7742 47.2159 34.7742 46.7305C34.7742 46.2451 34.3807 45.8516 33.8953 45.8516H29.5542C29.539 45.6743 29.5312 45.4963 29.5312 45.3184C29.5312 41.9259 32.2911 39.166 35.6836 39.166C39.0761 39.166 41.8359 41.9259 41.8359 45.3184C41.8359 45.4961 41.8282 45.6743 41.813 45.8516H37.9969C37.5115 45.8516 37.118 46.2451 37.118 46.7305C37.118 47.2159 37.5115 47.6094 37.9969 47.6094H57.9492C58.1107 47.6094 58.2422 47.7409 58.2422 47.9023V51.418Z" fill="#252525"/>
<path d="M35.625 43.0294C35.1396 43.0294 34.7461 42.6359 34.7461 42.1505V41.8008C34.7461 41.3154 35.1396 40.9219 35.625 40.9219C36.1104 40.9219 36.5039 41.3154 36.5039 41.8008V42.1505C36.5039 42.6359 36.1104 43.0294 35.625 43.0294Z" fill="#252525"/>
<path d="M38.2876 44.2326C38.0367 44.2326 37.7877 44.1258 37.6139 43.9187C37.3018 43.5468 37.3503 42.9925 37.7222 42.6805L37.9901 42.4557C38.3619 42.1436 38.9163 42.1921 39.2283 42.564C39.5403 42.9358 39.4918 43.4901 39.12 43.8022L38.8521 44.0269C38.6874 44.1652 38.4869 44.2326 38.2876 44.2326Z" fill="#252525"/>
<path d="M33.0799 44.2326C32.8806 44.2326 32.6801 44.1651 32.5155 44.027L32.2476 43.8022C31.8757 43.4901 31.8272 42.9358 32.1393 42.564C32.4512 42.1921 33.0057 42.1437 33.3775 42.4557L33.6454 42.6805C34.0172 42.9926 34.0657 43.5469 33.7537 43.9187C33.5798 44.1259 33.3307 44.2326 33.0799 44.2326Z" fill="#252525"/>
<path d="M21.9727 6.94531C22.4581 6.94531 22.8516 6.55181 22.8516 6.06641C22.8516 5.581 22.4581 5.1875 21.9727 5.1875C21.4872 5.1875 21.0938 5.581 21.0938 6.06641C21.0938 6.55181 21.4872 6.94531 21.9727 6.94531Z" fill="#252525"/>
</g>
<defs>
<clipPath id="clip0_611_7396">
<rect width="60" height="60" fill="white" transform="translate(0 0.5)"/>
</clipPath>
</defs>
</svg>
