<svg width="24" height="25" viewBox="0 0 24 25" fill="none" xmlns="http://www.w3.org/2000/svg">
<g clip-path="url(#clip0_1225_165)">
<path d="M11.2319 5.15527H6.31006C6.1159 5.15527 5.9585 4.99787 5.9585 4.80371C5.9585 4.60955 6.1159 4.45215 6.31006 4.45215H11.2319C11.4261 4.45215 11.5835 4.60955 11.5835 4.80371C11.5835 4.99787 11.4261 5.15527 11.2319 5.15527Z" fill="#505050"/>
<path d="M5.99071 9.102C5.85341 8.9647 5.6308 8.9647 5.49355 9.102L4.40286 10.1927L4.11575 9.90557C3.97846 9.76828 3.75585 9.76828 3.6186 9.90557C3.4813 10.0429 3.4813 10.2655 3.6186 10.4027L4.15433 10.9385C4.22296 11.0071 4.31296 11.0414 4.40291 11.0414C4.49286 11.0414 4.58286 11.0071 4.65149 10.9385L5.99075 9.5992C6.128 9.4619 6.128 9.23929 5.99071 9.102Z" fill="#505050"/>
<path d="M5.99071 12.6176C5.85341 12.4803 5.6308 12.4803 5.49355 12.6176L4.40286 13.7083L4.11575 13.4212C3.97846 13.2839 3.75585 13.2839 3.6186 13.4212C3.4813 13.5585 3.4813 13.7811 3.6186 13.9184L4.15433 14.4541C4.22296 14.5227 4.31296 14.5571 4.40291 14.5571C4.49286 14.5571 4.58286 14.5228 4.65149 14.4541L5.99075 13.1148C6.128 12.9775 6.128 12.7549 5.99071 12.6176Z" fill="#505050"/>
<path d="M5.99071 16.1332C5.85341 15.9959 5.6308 15.9959 5.49355 16.1332L4.40286 17.2239L4.11575 16.9368C3.97846 16.7995 3.75585 16.7995 3.6186 16.9368C3.4813 17.0741 3.4813 17.2967 3.6186 17.434L4.15433 17.9697C4.22296 18.0383 4.31296 18.0727 4.40291 18.0727C4.49286 18.0727 4.58286 18.0384 4.65149 17.9697L5.99075 16.6304C6.128 16.4932 6.128 16.2705 5.99071 16.1332Z" fill="#505050"/>
<path d="M14.3786 21.9978C14.1844 21.9978 14.027 21.8404 14.027 21.6462C14.027 21.4843 13.8953 21.3525 13.7334 21.3525C13.5715 21.3525 13.4397 21.4843 13.4397 21.6462C13.4397 21.8404 13.2823 21.9978 13.0881 21.9978C12.894 21.9978 12.7366 21.8404 12.7366 21.6462C12.7366 21.0966 13.1838 20.6494 13.7334 20.6494C14.283 20.6494 14.7302 21.0966 14.7302 21.6462C14.7302 21.8404 14.5728 21.9978 14.3786 21.9978Z" fill="#505050"/>
<path d="M20.1464 21.9978C19.9523 21.9978 19.7949 21.8404 19.7949 21.6462C19.7949 21.4843 19.6631 21.3525 19.5012 21.3525C19.3393 21.3525 19.2075 21.4843 19.2075 21.6462C19.2075 21.8404 19.0501 21.9978 18.856 21.9978C18.6618 21.9978 18.5044 21.8404 18.5044 21.6462C18.5044 21.0966 18.9516 20.6494 19.5012 20.6494C20.0508 20.6494 20.498 21.0966 20.498 21.6462C20.498 21.8404 20.3406 21.9978 20.1464 21.9978Z" fill="#505050"/>
<path d="M16.6175 23.0638C16.2536 23.0638 15.9075 22.9062 15.6681 22.6314C15.5405 22.485 15.5557 22.2629 15.7021 22.1353C15.8485 22.0078 16.0706 22.023 16.1982 22.1694C16.3041 22.291 16.457 22.3607 16.6176 22.3607C16.7782 22.3607 16.9311 22.291 17.037 22.1694C17.1645 22.023 17.3866 22.0078 17.533 22.1353C17.6794 22.2629 17.6946 22.4849 17.5671 22.6314C17.3275 22.9062 16.9815 23.0638 16.6175 23.0638Z" fill="#505050"/>
<path d="M23.5063 18.9946C23.5229 18.8209 23.5312 18.6437 23.5312 18.4646C23.5312 17.224 23.1322 15.9524 22.4363 14.9759C22.3408 14.8418 22.2415 14.7156 22.1388 14.5971C22.4337 14.1826 22.5938 13.6853 22.5938 13.1714C22.5938 12.3738 22.2044 11.6222 21.5522 11.1608C21.5048 11.1273 21.4818 11.0664 21.4937 11.0054C21.636 10.2725 21.4427 9.52448 20.9632 8.95316C20.4733 8.36905 19.7542 8.04941 18.9924 8.07538C18.9467 8.07759 18.9007 8.05518 18.8685 8.01735C18.5158 7.60326 18.0693 7.29782 17.5781 7.1242V5.71316C17.5781 4.48546 16.5793 3.4866 15.3516 3.4866H13.0388C12.8522 3.00416 12.3834 2.66113 11.8359 2.66113H11.047C11.0128 2.66113 10.9843 2.6368 10.9778 2.60235C10.7816 1.54996 9.86114 0.786133 8.78906 0.786133C7.71698 0.786133 6.79655 1.54996 6.60042 2.60198C6.59386 2.6368 6.56541 2.66113 6.53109 2.66113H5.74219C5.19473 2.66113 4.72594 3.00416 4.53933 3.4866H2.22656C0.998859 3.4866 0 4.48541 0 5.71316V22.5596C0 23.7873 0.998859 24.7861 2.22656 24.7861H12.8672H20.3672C22.3703 24.7861 24 23.1565 24 21.1533V19.7471C24 19.4107 23.7966 19.1211 23.5063 18.9946ZM22.8281 18.4646C22.8281 18.6211 22.8209 18.7757 22.8064 18.9268H21.9976C21.9982 18.9059 21.9984 18.8849 21.9984 18.8639C21.9984 17.5768 20.9513 16.5296 19.6641 16.5296C19.2319 16.5296 18.8157 16.6473 18.4541 16.8671C18.2115 16.3201 17.8648 15.8293 17.439 15.4199C18.0491 14.5428 18.8483 14.0457 19.6641 14.0457C21.32 14.0457 22.8281 16.1519 22.8281 18.4646ZM18.6943 17.5522C18.9735 17.345 19.3111 17.2327 19.6641 17.2327C20.5635 17.2327 21.2953 17.9645 21.2953 18.8639C21.2953 18.8849 21.2949 18.9059 21.2941 18.9268H18.8388C18.8421 18.8558 18.8438 18.7846 18.8438 18.7135C18.8438 18.3124 18.7918 17.9232 18.6943 17.5522ZM14.2734 15.5494C12.5287 15.5494 11.1094 16.9688 11.1094 18.7135C11.1094 18.7846 11.1118 18.8557 11.1165 18.9268H10.4121C10.4082 18.8559 10.4062 18.7847 10.4062 18.7135C10.4062 16.5811 12.141 14.8463 14.2734 14.8463C16.4058 14.8463 18.1406 16.5811 18.1406 18.7135C18.1406 18.7847 18.1387 18.8559 18.1348 18.9268H17.4303C17.4351 18.8557 17.4375 18.7846 17.4375 18.7135C17.4375 16.9688 16.0181 15.5494 14.2734 15.5494ZM18.3334 8.47345C18.5059 8.67576 18.7543 8.78713 19.0162 8.77813C19.5612 8.75971 20.0746 8.9879 20.4246 9.40509C20.7671 9.81327 20.9052 10.3476 20.8035 10.871C20.7388 11.2027 20.8733 11.5418 21.1462 11.7349C21.6123 12.0646 21.8906 12.6017 21.8906 13.1714C21.8906 13.5 21.7991 13.8191 21.6281 14.0955C21.0338 13.6043 20.3608 13.3425 19.6641 13.3425C18.6625 13.3425 17.7008 13.8932 16.9688 14.8703V14.5525C17.5143 13.5794 18.2802 12.819 19.2465 12.2916C19.4169 12.1985 19.4796 11.9849 19.3866 11.8145C19.2935 11.6441 19.0799 11.5814 18.9095 11.6744C18.1492 12.0895 17.4997 12.6327 16.9688 13.296V12.2903C17.384 11.55 17.9265 10.9313 18.5827 10.4505C18.7393 10.3358 18.7732 10.1158 18.6585 9.95915C18.5437 9.80254 18.3237 9.76865 18.1671 9.88335C17.7189 10.2117 17.3183 10.5966 16.9688 11.0338V9.47629C16.9688 9.28213 16.8113 9.12473 16.6172 9.12473C16.423 9.12473 16.2656 9.28213 16.2656 9.47629V11.0341C15.9159 10.5967 15.5153 10.2118 15.067 9.88335C14.9104 9.7686 14.6904 9.80249 14.5756 9.95915C14.4609 10.1158 14.4948 10.3357 14.6514 10.4505C15.3077 10.9314 15.8504 11.5503 16.2656 12.2909V13.2964C15.7346 12.6329 15.085 12.0896 14.3246 11.6744C14.1541 11.5814 13.9406 11.6441 13.8475 11.8145C13.7545 11.9849 13.8173 12.1985 13.9876 12.2916C14.954 12.8191 15.72 13.5797 16.2656 14.553V14.6007C15.6632 14.3076 14.9872 14.1432 14.2734 14.1432C13.4445 14.1432 12.6664 14.365 11.9954 14.7524C11.9669 14.6042 11.8989 14.4631 11.7937 14.3461C11.5035 14.0231 11.3438 13.6059 11.3438 13.1715C11.3438 12.6017 11.622 12.0647 12.0882 11.7349C12.3611 11.5419 12.4956 11.2027 12.4309 10.8713C12.3292 10.3477 12.4673 9.81327 12.8098 9.40509C13.1597 8.9879 13.6726 8.75919 14.2187 8.77818C14.4799 8.78662 14.7285 8.67576 14.9011 8.47335C15.3469 7.94999 15.9564 7.6618 16.6172 7.6618C17.278 7.6618 17.8875 7.94999 18.3334 8.47345ZM13.125 4.18973H15.3516C16.1916 4.18973 16.875 4.87316 16.875 5.71316V6.97026C16.7896 6.96252 16.7036 6.95859 16.6172 6.95859C16.3866 6.95859 16.1587 6.98652 15.9375 7.04038V5.94754C15.9375 5.49524 15.5695 5.12723 15.1172 5.12723H13.125V4.18973ZM2.22656 24.083C1.38656 24.083 0.703125 23.3996 0.703125 22.5596V5.71316C0.703125 4.87316 1.38656 4.18973 2.22656 4.18973H4.45312V5.12723H2.46094C2.00864 5.12723 1.64062 5.49524 1.64062 5.94754V16.3697C1.64062 16.5639 1.79803 16.7213 1.99219 16.7213C2.18634 16.7213 2.34375 16.5639 2.34375 16.3697V5.94754C2.34375 5.88295 2.39634 5.83035 2.46094 5.83035H4.58016C4.78852 6.26263 5.23106 6.5616 5.74219 6.5616H7.96875C8.16291 6.5616 8.32031 6.4042 8.32031 6.21004C8.32031 6.01588 8.16291 5.85848 7.96875 5.85848H5.74219C5.41908 5.85848 5.15625 5.59565 5.15625 5.27254V3.9502C5.15625 3.62709 5.41908 3.36426 5.74219 3.36426H6.53109C6.903 3.36426 7.22278 3.09815 7.29155 2.73121C7.4257 2.01159 8.05552 1.48926 8.78906 1.48926C9.52261 1.48926 10.1524 2.01159 10.2866 2.73154C10.3553 3.09815 10.6751 3.36426 11.047 3.36426H11.8359C12.159 3.36426 12.4219 3.62709 12.4219 3.9502V5.27254C12.4219 5.59565 12.159 5.85848 11.8359 5.85848H9.60938C9.41522 5.85848 9.25781 6.01588 9.25781 6.21004C9.25781 6.4042 9.41522 6.5616 9.60938 6.5616H11.8359C12.3471 6.5616 12.7896 6.26259 12.998 5.83035H15.1172C15.1818 5.83035 15.2344 5.88295 15.2344 5.94754V7.31174C14.9098 7.48752 14.6145 7.72541 14.3659 8.01726C14.3336 8.05513 14.2872 8.07627 14.2425 8.07538C13.5262 8.05054 12.8494 8.33109 12.3639 8.84863H7.62047C7.42631 8.84863 7.26891 9.00604 7.26891 9.2002C7.26891 9.39435 7.42631 9.55176 7.62047 9.55176H11.8995C11.7704 9.84712 11.7009 10.1652 11.6953 10.4893H7.62047C7.42631 10.4893 7.26891 10.6467 7.26891 10.8408C7.26891 11.035 7.42631 11.1924 7.62047 11.1924H11.6386C11.2359 11.4906 10.9384 11.9015 10.7773 12.3643H7.62047C7.42631 12.3643 7.26891 12.5217 7.26891 12.7158C7.26891 12.91 7.42631 13.0674 7.62047 13.0674H10.6429C10.6414 13.102 10.6407 13.1367 10.6407 13.1714C10.6407 13.4584 10.6905 13.7399 10.7858 14.0049H7.62047C7.42631 14.0049 7.26891 14.1623 7.26891 14.3564C7.26891 14.5506 7.42631 14.708 7.62047 14.708H11.1792C11.2086 14.7448 11.2391 14.7809 11.2708 14.8161C11.313 14.863 11.3203 14.93 11.2893 14.9871C11.214 15.1257 11.1524 15.2717 11.1055 15.4222C10.957 15.5652 10.8181 15.7181 10.69 15.8798H7.62047C7.42631 15.8798 7.26891 16.0372 7.26891 16.2314C7.26891 16.4256 7.42631 16.583 7.62047 16.583H10.2308C10.0747 16.8779 9.94997 17.1919 9.86105 17.5205H7.62047C7.42631 17.5205 7.26891 17.6779 7.26891 17.872C7.26891 18.0662 7.42631 18.2236 7.62047 18.2236H9.72923C9.71198 18.3846 9.70312 18.548 9.70312 18.7134C9.70312 18.8096 9.70617 18.9059 9.71212 19.0017C9.43041 19.1317 9.23438 19.4169 9.23438 19.747V21.1533C9.23438 21.607 9.318 22.0416 9.47062 22.4423H2.46094C2.39634 22.4423 2.34375 22.3897 2.34375 22.3251V18.0103C2.34375 17.8161 2.18634 17.6587 1.99219 17.6587C1.79803 17.6587 1.64062 17.8161 1.64062 18.0103V22.3251C1.64062 22.7774 2.00864 23.1455 2.46094 23.1455H9.83063C10.0695 23.5084 10.3717 23.8262 10.7213 24.083H2.22656V24.083ZM23.2969 21.1533C23.2969 22.7687 21.9826 24.083 20.3672 24.083H12.8672C11.2518 24.083 9.9375 22.7687 9.9375 21.1533V19.7471C9.9375 19.6825 9.99009 19.6299 10.0547 19.6299H13.5581C13.7523 19.6299 13.9097 19.4725 13.9097 19.2783C13.9097 19.0842 13.7523 18.9268 13.5581 18.9268H11.8217C11.8156 18.8558 11.8125 18.7846 11.8125 18.7135C11.8125 17.3565 12.9165 16.2525 14.2734 16.2525C15.6304 16.2525 16.7344 17.3565 16.7344 18.7135C16.7344 18.7846 16.7313 18.8558 16.7252 18.9268H15.1987C15.0046 18.9268 14.8472 19.0842 14.8472 19.2783C14.8472 19.4725 15.0046 19.6299 15.1987 19.6299H23.1797C23.2443 19.6299 23.2969 19.6825 23.2969 19.7471V21.1533Z" fill="#505050"/>
<path d="M14.25 17.7981C14.0558 17.7981 13.8984 17.6407 13.8984 17.4465V17.3066C13.8984 17.1125 14.0558 16.9551 14.25 16.9551C14.4442 16.9551 14.6016 17.1125 14.6016 17.3066V17.4465C14.6016 17.6407 14.4442 17.7981 14.25 17.7981Z" fill="#505050"/>
<path d="M15.3149 18.2794C15.2145 18.2794 15.1149 18.2367 15.0454 18.1538C14.9206 18.0051 14.94 17.7833 15.0887 17.6585L15.1959 17.5686C15.3446 17.4438 15.5664 17.4632 15.6912 17.6119C15.816 17.7607 15.7966 17.9824 15.6478 18.1072L15.5407 18.1971C15.4748 18.2524 15.3946 18.2794 15.3149 18.2794Z" fill="#505050"/>
<path d="M13.232 18.2794C13.1522 18.2794 13.072 18.2524 13.0062 18.1971L12.899 18.1072C12.7503 17.9824 12.7309 17.7607 12.8557 17.6119C12.9805 17.4632 13.2023 17.4438 13.351 17.5686L13.4581 17.6585C13.6069 17.7834 13.6263 18.0051 13.5015 18.1538C13.4319 18.2367 13.3323 18.2794 13.232 18.2794Z" fill="#505050"/>
<path d="M8.78906 3.36426C8.98323 3.36426 9.14062 3.20686 9.14062 3.0127C9.14062 2.81853 8.98323 2.66113 8.78906 2.66113C8.5949 2.66113 8.4375 2.81853 8.4375 3.0127C8.4375 3.20686 8.5949 3.36426 8.78906 3.36426Z" fill="#505050"/>
</g>
<defs>
<clipPath id="clip0_1225_165">
<rect width="24" height="24" fill="white" transform="translate(0 0.786133)"/>
</clipPath>
</defs>
</svg>
