<svg width="57" height="57" viewBox="0 0 57 57" fill="none" xmlns="http://www.w3.org/2000/svg">
<rect x="0.5" y="0.5" width="56" height="56" rx="11.5" fill="#F5F5F5"/>
<rect x="0.5" y="0.5" width="56" height="56" rx="11.5" stroke="#FF9538"/>
<path d="M35.5469 35.5469C35.5469 32.9844 34.2656 27.2188 34.2656 27.2188C34.2656 27.2188 35.3739 24.3039 35.5469 16.3281V11.8438H12.4844V16.3281C12.6573 24.3039 13.7656 27.2188 13.7656 27.2188C13.7656 27.2188 12.4844 32.9844 12.4844 35.5469C12.4844 35.5469 11.2031 38.1094 11.2031 43.2344H36.8281C36.8281 38.1094 35.5469 35.5469 35.5469 35.5469Z" fill="#FFCCBC"/>
<path d="M35.5469 35.5469C35.5469 32.9844 34.2656 27.2188 34.2656 27.2188C34.2656 27.2188 35.3739 24.3039 35.5469 16.3281V11.8438H33.625V16.3281C33.452 24.3039 32.3438 27.2188 32.3438 27.2188C32.3438 27.2188 33.625 32.9844 33.625 35.5469C33.625 35.5469 34.9062 38.1094 34.9062 43.2344H36.8281C36.8281 38.1094 35.5469 35.5469 35.5469 35.5469Z" fill="#FFAB91"/>
<path d="M36.8281 43.2344H11.2031C11.2031 38.1094 12.4844 35.5469 12.4844 35.5469C12.4844 35.5469 16.5523 37.4688 24.0156 37.4688C31.4789 37.4688 35.5469 35.5469 35.5469 35.5469C35.5469 35.5469 36.8281 38.1094 36.8281 43.2344Z" fill="#757575"/>
<path d="M28.5 23.375C29.0095 23.3744 29.4981 23.1718 29.8584 22.8115C30.2187 22.4512 30.4213 21.9627 30.4219 21.4531C30.4219 21.2832 30.3544 21.1203 30.2342 21.0001C30.1141 20.88 29.9512 20.8125 29.7812 20.8125C29.6113 20.8125 29.4484 20.88 29.3283 21.0001C29.2081 21.1203 29.1406 21.2832 29.1406 21.4531C29.1404 21.623 29.0728 21.7858 28.9527 21.9059C28.8327 22.026 28.6698 22.0935 28.5 22.0938H24.6562V20.1719C24.6562 20.002 24.5888 19.839 24.4686 19.7189C24.3485 19.5987 24.1855 19.5312 24.0156 19.5312C23.8457 19.5312 23.6828 19.5987 23.5626 19.7189C23.4425 19.839 23.375 20.002 23.375 20.1719V22.0938H19.5312C19.3614 22.0935 19.1986 22.026 19.0785 21.9059C18.9584 21.7858 18.8908 21.623 18.8906 21.4531C18.8906 21.2832 18.8231 21.1203 18.703 21.0001C18.5829 20.88 18.4199 20.8125 18.25 20.8125C18.0801 20.8125 17.9172 20.88 17.797 21.0001C17.6769 21.1203 17.6094 21.2832 17.6094 21.4531C17.6099 21.9627 17.8126 22.4512 18.1729 22.8115C18.5332 23.1718 19.0217 23.3744 19.5312 23.375H23.375V26.5781H20.1719C20.002 26.5779 19.8392 26.5103 19.7191 26.3902C19.599 26.2702 19.5315 26.1073 19.5312 25.9375C19.5312 25.7676 19.4638 25.6046 19.3436 25.4845C19.2235 25.3644 19.0605 25.2969 18.8906 25.2969C18.7207 25.2969 18.5578 25.3644 18.4376 25.4845C18.3175 25.6046 18.25 25.7676 18.25 25.9375C18.2506 26.447 18.4532 26.9356 18.8135 27.2959C19.1738 27.6562 19.6623 27.8588 20.1719 27.8594H23.375V31.0625H20.8125C20.6427 31.0623 20.4798 30.9947 20.3598 30.8746C20.2397 30.7545 20.1721 30.5917 20.1719 30.4219C20.1719 30.252 20.1044 30.089 19.9842 29.9689C19.8641 29.8487 19.7012 29.7812 19.5312 29.7812C19.3613 29.7812 19.1984 29.8487 19.0783 29.9689C18.9581 30.089 18.8906 30.252 18.8906 30.4219C18.8912 30.9314 19.0938 31.4199 19.4541 31.7802C19.8144 32.1405 20.303 32.3432 20.8125 32.3438H23.375V34.2656C23.375 34.4355 23.4425 34.5985 23.5626 34.7186C23.6828 34.8388 23.8457 34.9062 24.0156 34.9062C24.1855 34.9062 24.3485 34.8388 24.4686 34.7186C24.5888 34.5985 24.6562 34.4355 24.6562 34.2656V32.3438H27.2188C27.7283 32.3432 28.2168 32.1405 28.5771 31.7802C28.9374 31.4199 29.1401 30.9314 29.1406 30.4219C29.1406 30.252 29.0731 30.089 28.953 29.9689C28.8329 29.8487 28.6699 29.7812 28.5 29.7812C28.3301 29.7812 28.1671 29.8487 28.047 29.9689C27.9269 30.089 27.8594 30.252 27.8594 30.4219C27.8592 30.5917 27.7916 30.7545 27.6715 30.8746C27.5514 30.9947 27.3886 31.0623 27.2188 31.0625H24.6562V27.8594H27.8594C28.3689 27.8588 28.8574 27.6562 29.2177 27.2959C29.578 26.9356 29.7807 26.447 29.7812 25.9375C29.7812 25.7676 29.7138 25.6046 29.5936 25.4845C29.4735 25.3644 29.3105 25.2969 29.1406 25.2969C28.9707 25.2969 28.8078 25.3644 28.6876 25.4845C28.5675 25.6046 28.5 25.7676 28.5 25.9375C28.4998 26.1073 28.4322 26.2702 28.3121 26.3902C28.192 26.5103 28.0292 26.5779 27.8594 26.5781H24.6562V23.375H28.5Z" fill="#FFAB91"/>
<path d="M24.6562 43.2344V41.3125C24.6562 41.1426 24.5888 40.9796 24.4686 40.8595C24.3485 40.7394 24.1855 40.6719 24.0156 40.6719C23.8457 40.6719 23.6828 40.7394 23.5626 40.8595C23.4425 40.9796 23.375 41.1426 23.375 41.3125V43.2344H24.6562Z" fill="#616161"/>
<path d="M36.8281 46.4375C42.1352 46.4375 46.4375 42.1352 46.4375 36.8281C46.4375 31.521 42.1352 27.2188 36.8281 27.2188C31.521 27.2188 27.2188 31.521 27.2188 36.8281C27.2188 42.1352 31.521 46.4375 36.8281 46.4375Z" fill="#EEEEEE"/>
<path d="M36.8281 27.2188C36.2912 27.222 35.7555 27.2702 35.2266 27.3628C37.465 27.7389 39.4978 28.8961 40.9639 30.629C42.4299 32.3619 43.2344 34.5583 43.2344 36.8281C43.2344 39.098 42.4299 41.2944 40.9639 43.0273C39.4978 44.7601 37.465 45.9174 35.2266 46.2934C36.5373 46.5157 37.8799 46.4635 39.1694 46.14C40.4589 45.8166 41.6672 45.229 42.7178 44.4144C43.7685 43.5998 44.6386 42.5759 45.2731 41.4076C45.9075 40.2394 46.2926 38.9521 46.4038 37.6273C46.515 36.3025 46.35 34.9691 45.9193 33.7114C45.4885 32.4537 44.8013 31.2991 43.9012 30.3207C43.0011 29.3423 41.9077 28.5614 40.6902 28.0275C39.4727 27.4935 38.1576 27.2181 36.8281 27.2188Z" fill="#E0E0E0"/>
<path d="M41.3125 34.2656C40.9209 35.1144 40.2395 35.7958 39.3907 36.1875C39.3896 30.8354 34.9063 30.4219 34.9063 30.4219C35.4909 31.306 35.747 32.3672 35.6299 33.4207C35.5129 34.4742 35.0301 35.4532 34.2657 36.1875C33.4155 35.7978 32.7335 35.1158 32.3438 34.2656C31.4761 35.3553 31.0222 36.717 31.0625 38.1094C31.127 39.4843 31.5704 40.8145 32.3438 41.9531H41.3125C42.0859 40.8145 42.5293 39.4843 42.5938 38.1094C42.6341 36.717 42.1802 35.3553 41.3125 34.2656Z" fill="#EF5350"/>
<path d="M35.4059 31.4277C36.463 32.2284 37.4688 32.9517 37.4688 36.8281C38.13 36.6822 38.7741 36.4675 39.3906 36.1875C39.3895 30.8354 34.9062 30.4219 34.9062 30.4219C35.1038 30.739 35.2677 31.0758 35.3954 31.4269C35.3991 31.4268 35.4022 31.4278 35.4059 31.4277Z" fill="#E53935"/>
<path d="M42.5938 38.1094C42.5287 39.4841 42.0853 40.8143 41.3125 41.9531H39.3906C40.1634 40.8143 40.6068 39.4841 40.6719 38.1094C40.6742 37.2861 40.5244 36.4694 40.2298 35.7006C40.6802 35.2969 41.0479 34.8096 41.3125 34.2656C42.1806 35.3551 42.6346 36.7169 42.5938 38.1094Z" fill="#E53935"/>
<path d="M36.1874 37.4688C36.3705 37.8711 36.4652 38.308 36.4652 38.75C36.4652 39.192 36.3705 39.6289 36.1874 40.0312C35.6955 39.9847 35.2386 39.7563 34.9062 39.3906C34.7231 39.793 34.6284 40.2299 34.6284 40.6719C34.6284 41.1139 34.7231 41.5508 34.9062 41.9531H38.7499C40.0312 38.1094 36.1874 37.4688 36.1874 37.4688Z" fill="#FFB74D"/>
<path d="M38.75 41.9531H36.8281C37.347 40.3964 37.0267 39.3714 36.463 38.6923C36.452 38.2704 36.3584 37.8547 36.1875 37.4688C36.1875 37.4688 40.0312 38.1094 38.75 41.9531Z" fill="#FFB74D"/>
<path d="M9.92188 9.92188L10.9833 13.9024C11.1797 14.6388 11.5202 15.329 11.985 15.933C12.4498 16.537 13.0298 17.0429 13.6913 17.4214C14.3529 17.7998 15.083 18.0434 15.8392 18.1379C16.5955 18.2324 17.3631 18.1761 18.0974 17.9721L21.6698 16.9797C22.3444 16.7924 22.939 16.3891 23.3626 15.8318C23.7863 15.2744 24.0156 14.5936 24.0156 13.8935C24.0156 14.5936 24.245 15.2744 24.6687 15.8318C25.0923 16.3891 25.6869 16.7924 26.3615 16.9797L29.9338 17.9721C30.6682 18.1761 31.4357 18.2324 32.192 18.1379C32.9483 18.0434 33.6783 17.7998 34.3399 17.4214C35.0015 17.0429 35.5814 16.537 36.0463 15.933C36.5111 15.329 36.8515 14.6388 37.0479 13.9024L38.1094 9.92188H9.92188Z" fill="#FFCCBC"/>
<path d="M15.6875 15.0469C16.0413 15.0469 16.3281 14.7601 16.3281 14.4062C16.3281 14.0524 16.0413 13.7656 15.6875 13.7656C15.3337 13.7656 15.0469 14.0524 15.0469 14.4062C15.0469 14.7601 15.3337 15.0469 15.6875 15.0469Z" fill="#A1887F"/>
<path d="M32.3438 15.0469C32.6976 15.0469 32.9844 14.7601 32.9844 14.4062C32.9844 14.0524 32.6976 13.7656 32.3438 13.7656C31.9899 13.7656 31.7031 14.0524 31.7031 14.4062C31.7031 14.7601 31.9899 15.0469 32.3438 15.0469Z" fill="#A1887F"/>
<path d="M45.8901 32.0445C45.8509 31.9699 45.7973 31.9038 45.7325 31.85C45.6677 31.7962 45.5929 31.7556 45.5124 31.7307C45.4319 31.7058 45.3473 31.6971 45.2634 31.7049C45.1795 31.7128 45.098 31.7371 45.0235 31.7766C44.949 31.816 44.883 31.8697 44.8294 31.9347C44.7757 31.9996 44.7354 32.0745 44.7107 32.1551C44.686 32.2356 44.6774 32.3203 44.6855 32.4041C44.6936 32.488 44.7181 32.5695 44.7577 32.6438C45.4434 33.9319 45.8003 35.3694 45.7969 36.8286C45.7942 39.2064 44.8484 41.4861 43.167 43.1675C41.4857 44.8489 39.206 45.7946 36.8281 45.7973C34.824 45.8012 32.8781 45.1234 31.3099 43.8754H32.3438C32.5137 43.8754 32.6766 43.8079 32.7967 43.6878C32.9169 43.5677 32.9844 43.4047 32.9844 43.2348C32.9844 43.0649 32.9169 42.902 32.7967 42.7818C32.6766 42.6617 32.5137 42.5942 32.3438 42.5942H29.7812C29.6113 42.5942 29.4484 42.6617 29.3283 42.7818C29.2081 42.902 29.1406 43.0649 29.1406 43.2348V45.7973C29.1406 45.9672 29.2081 46.1302 29.3283 46.2503C29.4484 46.3704 29.6113 46.4379 29.7812 46.4379C29.9512 46.4379 30.1141 46.3704 30.2342 46.2503C30.3544 46.1302 30.4219 45.9672 30.4219 45.7973V44.799C32.2564 46.2775 34.545 47.0778 36.9012 47.0646C39.2574 47.0514 41.5368 46.2256 43.3547 44.7266C45.1726 43.2276 46.4176 41.1473 46.8795 38.8368C47.3415 36.5263 46.992 34.1272 45.8901 32.0445Z" fill="#64B5F6"/>
<path d="M27.8594 36.8277C27.8539 35.1463 28.3226 33.4975 29.2118 32.0706C30.101 30.6436 31.3746 29.4964 32.8864 28.7605C34.3981 28.0246 36.0868 27.73 37.7584 27.9105C39.43 28.091 41.0168 28.7392 42.3367 29.7808H41.3125C41.1426 29.7808 40.9797 29.8483 40.8595 29.9684C40.7394 30.0886 40.6719 30.2515 40.6719 30.4214C40.6719 30.5913 40.7394 30.7543 40.8595 30.8744C40.9797 30.9946 41.1426 31.062 41.3125 31.062H43.875C44.0449 31.062 44.2079 30.9946 44.328 30.8744C44.4482 30.7543 44.5157 30.5913 44.5157 30.4214V27.8589C44.5157 27.689 44.4482 27.5261 44.328 27.4059C44.2079 27.2858 44.0449 27.2183 43.875 27.2183C43.7051 27.2183 43.5422 27.2858 43.422 27.4059C43.3019 27.5261 43.2344 27.689 43.2344 27.8589V28.8596C41.4002 27.3802 39.1116 26.5792 36.7552 26.5919C34.3988 26.6047 32.119 27.4303 30.3009 28.9295C28.4828 30.4286 27.2378 32.5093 26.7763 34.8201C26.3148 37.1309 26.665 39.5302 27.7677 41.6127C27.8477 41.7623 27.9838 41.8741 28.1461 41.9236C28.3084 41.973 28.4836 41.9561 28.6335 41.8765C28.7833 41.7969 28.8955 41.6611 28.9453 41.499C28.9952 41.3368 28.9787 41.1615 28.8995 41.0114C28.2123 39.7243 27.8549 38.2868 27.8594 36.8277Z" fill="#64B5F6"/>
<path d="M36.4865 9.92188L35.6562 13.0355C35.477 13.7073 35.163 14.3356 34.7333 14.8823C34.3036 15.4289 33.7672 15.8824 33.1567 16.2151C32.5461 16.5478 31.8743 16.7528 31.182 16.8176C30.4897 16.8825 29.7915 16.8057 29.1298 16.5921L26.3615 15.6985C25.6869 15.5111 25.0923 15.1079 24.6687 14.5505C24.245 13.9931 24.0156 13.3123 24.0156 12.6122V13.8935C24.0156 14.5936 24.245 15.2744 24.6687 15.8318C25.0923 16.3891 25.6869 16.7924 26.3615 16.9797L29.9338 17.9721C30.6682 18.1761 31.4357 18.2324 32.192 18.1379C32.9483 18.0434 33.6783 17.7998 34.3399 17.4214C35.0015 17.0429 35.5814 16.537 36.0463 15.933C36.5111 15.329 36.8515 14.6388 37.0479 13.9024L38.1094 9.92188H36.4865Z" fill="#FFAB91"/>
<path d="M24.0156 12.6123V13.8936C24.0158 14.5937 23.7867 15.2747 23.3633 15.8323C22.9399 16.39 22.3454 16.7936 21.6709 16.9814L18.0962 17.9743C16.6904 18.3647 15.1888 18.2067 13.895 17.5325C12.6012 16.8582 11.6116 15.7179 11.1262 14.342C12.3626 16.1934 15.1774 17.7234 18.9034 16.5906L21.6709 15.7001C22.3454 15.5123 22.9399 15.1087 23.3633 14.5511C23.7867 13.9935 24.0158 13.3125 24.0156 12.6123Z" fill="#FFAB91"/>
</svg>
