<svg width="57" height="57" viewBox="0 0 57 57" fill="none" xmlns="http://www.w3.org/2000/svg">
<rect x="0.5" y="0.5" width="56" height="56" rx="11.5" fill="#F5F5F5"/>
<rect x="0.5" y="0.5" width="56" height="56" rx="11.5" stroke="#14AE00"/>
<path d="M17.1381 37.8252C13.0191 38.5908 10.5078 40.1221 10.5078 41.5155C10.5078 42.9089 13.0191 44.4479 17.1381 45.2135C17.8091 44.0981 18.1637 42.821 18.1637 41.5193C18.1637 40.2177 17.8091 38.9406 17.1381 37.8252Z" fill="#E0ECB7"/>
<path d="M24.2966 46.4773C25.1501 47.496 26.2962 48.2275 27.5795 48.5727C28.8628 48.9178 30.2213 48.8599 31.4705 48.4067C30.5273 47.7897 29.7408 46.9613 29.1737 45.9873C27.5622 46.2702 25.9321 46.4339 24.2966 46.4773Z" fill="#E3AB4A"/>
<path d="M23.6307 36.5468C23.783 35.5328 24.1509 34.5633 24.7095 33.7035C25.2682 32.8437 26.0047 32.1137 26.8693 31.5626C26.1653 31.3061 25.4213 31.1765 24.672 31.1797C23.08 31.1818 21.5441 31.7673 20.3547 32.8255C19.1653 33.8836 18.4051 35.341 18.2178 36.9219C19.8474 36.6756 21.4927 36.5476 23.1407 36.5391L23.6307 36.5468Z" fill="#E3AB4A"/>
<path d="M41.5156 35.7735C40.2171 35.7692 38.9559 36.2074 37.9399 37.0161C36.9238 37.8247 36.2137 38.9554 35.9265 40.2218C35.9118 40.2913 35.8772 40.3551 35.8269 40.4054C35.7766 40.4557 35.7128 40.4903 35.6432 40.505C35.5762 40.5233 35.5054 40.5222 35.439 40.5019C35.3727 40.4815 35.3134 40.4428 35.2681 40.3902C33.645 38.5757 28.6607 37.3277 23.1406 37.3277C21.398 37.3236 19.6576 37.4516 17.9343 37.7105C18.586 38.8812 18.928 40.1988 18.928 41.5386C18.928 42.8784 18.586 44.1961 17.9343 45.3667C19.6578 45.6229 21.3982 45.7483 23.1406 45.7419C28.6607 45.7419 33.645 44.4786 35.2681 42.6794C35.3029 42.6383 35.3463 42.6053 35.3952 42.5828C35.4442 42.5603 35.4975 42.5489 35.5514 42.5492H35.6432C35.7128 42.564 35.7766 42.5986 35.8269 42.6489C35.8772 42.6992 35.9118 42.763 35.9265 42.8325C36.217 44.0953 36.9287 45.2216 37.9445 46.0259C38.9604 46.8302 40.2199 47.2647 41.5156 47.2578C41.9455 47.2579 42.3741 47.2117 42.7942 47.12C41.8213 46.5443 41.0152 45.725 40.4552 44.743C39.8953 43.7609 39.6008 42.65 39.6008 41.5195C39.6008 40.389 39.8953 39.278 40.4552 38.296C41.0152 37.3139 41.8213 36.4947 42.7942 35.9189C42.3744 35.8248 41.9458 35.7761 41.5156 35.7735Z" fill="#5B7FAD"/>
<path d="M51.0093 18.4546C50.4553 15.8678 49.0619 13.5367 47.0458 11.8238C45.0297 10.111 42.5041 9.11256 39.8618 8.98382C36.7606 8.85479 33.7339 9.95542 31.4399 12.0463C31.9564 12.9027 32.3337 13.8356 32.5577 14.8102C33.5448 13.6731 34.8317 12.8364 36.2716 12.3955C37.7114 11.9547 39.2461 11.9275 40.7007 12.3171C42.1552 12.7067 43.4709 13.4973 44.4977 14.5988C45.5244 15.7003 46.2208 17.0682 46.5074 18.5465C46.5175 18.6047 46.5145 18.6645 46.4986 18.7214C46.4827 18.7784 46.4543 18.8311 46.4155 18.8757C46.3768 18.9197 46.3281 18.9537 46.2735 18.975C46.2188 18.9964 46.1599 19.0043 46.1016 18.9982C45.9026 18.9982 45.7112 18.9982 45.5121 18.9982C43.5843 19.0022 41.7366 19.7698 40.3735 21.133C39.0103 22.4962 38.2427 24.3438 38.2387 26.2716C38.2407 26.5289 38.183 26.7832 38.0701 27.0143C37.9572 27.2455 37.7921 27.4473 37.5879 27.6038C37.3294 27.791 37.0189 27.8927 36.6998 27.8948C36.552 27.897 36.4048 27.8763 36.2633 27.8335C35.0309 27.4533 33.9078 26.7826 32.9884 25.878C32.0691 24.9733 31.3805 23.8611 30.9805 22.6349C30.6809 23.0588 30.3481 23.4582 29.9852 23.8293C29.4783 24.3275 28.9187 24.7691 28.3162 25.1462C29.0339 27.0017 30.203 28.649 31.7176 29.939C33.2322 31.229 35.0446 32.1211 36.9907 32.5344H37.0979C37.5074 32.6196 37.9311 32.6093 38.336 32.5044C38.741 32.3995 39.1163 32.2028 39.433 31.9296C39.7908 31.6284 40.0759 31.2502 40.2668 30.8233C40.4577 30.3963 40.5496 29.9318 40.5355 29.4643C40.5341 28.8429 40.606 28.2236 40.7499 27.6191C41.05 26.2909 41.7209 25.075 42.6844 24.1128C43.648 23.1506 44.8648 22.4815 46.1935 22.1832C46.7794 22.0548 47.3776 21.9906 47.9774 21.9918C48.4459 22.0108 48.9125 21.922 49.3413 21.7321C49.7701 21.5423 50.1495 21.2566 50.4504 20.8969C50.7225 20.5794 50.919 20.2043 51.0251 19.7998C51.1312 19.3953 51.1441 18.972 51.0629 18.5618L51.0093 18.4546Z" fill="#E3AB4A"/>
<path d="M36.4855 27.0304C36.5939 27.0653 36.7092 27.0731 36.8213 27.053C36.9334 27.033 37.0389 26.9858 37.1286 26.9156C37.2358 26.8355 37.3228 26.7315 37.3826 26.6119C37.4424 26.4923 37.4734 26.3603 37.4731 26.2265C37.4711 24.0917 38.3167 22.0434 39.8241 20.5317C41.3315 19.0199 43.3774 18.1685 45.5122 18.1645H45.6423C45.279 16.839 44.5473 15.6438 43.532 14.7175C42.5167 13.7912 41.2595 13.1719 39.9064 12.9314C38.5533 12.691 37.1597 12.8392 35.8874 13.3589C34.6151 13.8786 33.5163 14.7485 32.7186 15.8676C32.7569 16.1815 32.7798 16.5031 32.7875 16.8246C32.8273 18.536 32.4041 20.2263 31.5625 21.717C31.8488 22.9549 32.4537 24.0965 33.3172 25.0285C34.1808 25.9606 35.2729 26.6507 36.4855 27.0304Z" fill="#F5846F"/>
<path d="M32.022 16.8168C32.0007 15.6288 31.7379 14.4575 31.2496 13.3742C30.7612 12.291 30.0576 11.3184 29.1815 10.5157C27.5661 9.04858 25.4667 8.22815 23.2846 8.21121C21.1025 8.19426 18.9906 8.98198 17.3526 10.4238C16.4499 11.2251 15.7233 12.205 15.2186 13.3014C14.7138 14.3978 14.442 15.587 14.4203 16.7938C14.409 20.077 13.1245 23.2279 10.8371 25.5832L10.416 26.0043C10.3552 26.0639 10.2763 26.1015 10.1917 26.1112C10.1071 26.1209 10.0217 26.1022 9.949 26.0579C9.438 25.7574 8.84158 25.6354 8.25363 25.7111C7.66568 25.7867 7.11958 26.0557 6.70128 26.4758C6.28299 26.8958 6.01625 27.4431 5.94306 28.0313C5.86986 28.6196 5.99437 29.2155 6.29697 29.7252C6.55042 30.1509 6.91754 30.4975 7.35709 30.7261C7.79664 30.9546 8.29121 31.0561 8.78525 31.0191C8.88572 31.0229 8.98121 31.0638 9.05322 31.134C9.09139 31.1732 9.12071 31.2201 9.1392 31.2717C9.15769 31.3232 9.16492 31.378 9.16041 31.4326C9.12502 31.9223 9.22524 32.4123 9.45008 32.8488C9.67492 33.2853 10.0157 33.6514 10.4349 33.9069C10.8542 34.1624 11.3358 34.2974 11.8268 34.2972C12.3178 34.297 12.7992 34.1615 13.2182 33.9055C13.8168 33.5361 14.2467 32.9468 14.4156 32.264C14.5845 31.5812 14.479 30.8594 14.1217 30.2535C14.0802 30.1808 14.0638 30.0965 14.0749 30.0135C14.0859 29.9305 14.1239 29.8535 14.1829 29.7941L14.604 29.373C16.9347 27.0814 20.0711 25.7949 23.3398 25.7899C24.5 25.774 25.6456 25.5289 26.7108 25.0687C27.776 24.6085 28.7397 23.9424 29.5465 23.1085C30.3533 22.2746 30.9874 21.2895 31.4122 20.2097C31.8371 19.13 32.0443 17.9769 32.022 16.8168Z" fill="#EF7C32"/>
<path d="M27.007 13.1874C26.5093 12.6897 25.9185 12.2949 25.2682 12.0255C24.6179 11.7561 23.921 11.6175 23.2171 11.6175C22.5133 11.6175 21.8163 11.7561 21.166 12.0255C20.5158 12.2949 19.9249 12.6897 19.4273 13.1874L18.3401 12.1079C18.98 11.4678 19.7397 10.96 20.5758 10.6136C21.412 10.2672 22.3082 10.0889 23.2133 10.0889C24.1184 10.0889 25.0146 10.2672 25.8507 10.6136C26.6869 10.96 27.4466 11.4678 28.0865 12.1079L27.007 13.1874Z" fill="#E3AB4A"/>
<path d="M15.4844 41.5156C15.9072 41.5156 16.25 41.1728 16.25 40.75C16.25 40.3272 15.9072 39.9844 15.4844 39.9844C15.0615 39.9844 14.7188 40.3272 14.7188 40.75C14.7188 41.1728 15.0615 41.5156 15.4844 41.5156Z" fill="#686E2B"/>
</svg>
