<svg width="24" height="25" viewBox="0 0 24 25" fill="none" xmlns="http://www.w3.org/2000/svg">
<path d="M13.5 16.2861C13.5 14.4005 13.5 13.4577 14.0858 12.8719C14.6716 12.2861 15.6144 12.2861 17.5 12.2861C19.3856 12.2861 20.3284 12.2861 20.9142 12.8719C21.5 13.4577 21.5 14.4005 21.5 16.2861V18.2861C21.5 20.1718 21.5 21.1146 20.9142 21.7003C20.3284 22.2861 19.3856 22.2861 17.5 22.2861C15.6144 22.2861 14.6716 22.2861 14.0858 21.7003C13.5 21.1146 13.5 20.1718 13.5 18.2861V16.2861Z" stroke="#505050" stroke-width="1.5"/>
<path d="M2 9.28613C2 11.1718 2 12.1146 2.58579 12.7003C3.17157 13.2861 4.11438 13.2861 6 13.2861C7.88562 13.2861 8.82843 13.2861 9.41421 12.7003C10 12.1146 10 11.1718 10 9.28613V7.28613C10 5.40051 10 4.45771 9.41421 3.87192C8.82843 3.28613 7.88562 3.28613 6 3.28613C4.11438 3.28613 3.17157 3.28613 2.58579 3.87192C2 4.45771 2 5.40051 2 7.28613V9.28613Z" stroke="#505050" stroke-width="1.5"/>
<path d="M13.5 6.28613C13.5 5.35425 13.5 4.88831 13.6522 4.52077C13.8552 4.03071 14.2446 3.64136 14.7346 3.43837C15.1022 3.28613 15.5681 3.28613 16.5 3.28613H18.5C19.4319 3.28613 19.8978 3.28613 20.2654 3.43837C20.7554 3.64136 21.1448 4.03071 21.3478 4.52077C21.5 4.88831 21.5 5.35425 21.5 6.28613C21.5 7.21802 21.5 7.68396 21.3478 8.0515C21.1448 8.54156 20.7554 8.9309 20.2654 9.13389C19.8978 9.28613 19.4319 9.28613 18.5 9.28613H16.5C15.5681 9.28613 15.1022 9.28613 14.7346 9.13389C14.2446 8.9309 13.8552 8.54156 13.6522 8.0515C13.5 7.68396 13.5 7.21802 13.5 6.28613Z" stroke="#505050" stroke-width="1.5"/>
<path d="M2 19.2861C2 20.218 2 20.684 2.15224 21.0515C2.35523 21.5416 2.74458 21.9309 3.23463 22.1339C3.60218 22.2861 4.06812 22.2861 5 22.2861H7C7.93188 22.2861 8.39782 22.2861 8.76537 22.1339C9.25542 21.9309 9.64477 21.5416 9.84776 21.0515C10 20.684 10 20.218 10 19.2861C10 18.3542 10 17.8883 9.84776 17.5208C9.64477 17.0307 9.25542 16.6414 8.76537 16.4384C8.39782 16.2861 7.93188 16.2861 7 16.2861H5C4.06812 16.2861 3.60218 16.2861 3.23463 16.4384C2.74458 16.6414 2.35523 17.0307 2.15224 17.5208C2 17.8883 2 18.3542 2 19.2861Z" stroke="#505050" stroke-width="1.5"/>
</svg>
