<svg width="24" height="25" viewBox="0 0 24 25" fill="none" xmlns="http://www.w3.org/2000/svg">
<g clip-path="url(#clip0_1225_184)">
<path d="M23.1562 1.38965H22.1538C21.6885 1.38965 21.3101 1.76816 21.3101 2.2334V4.96893H20.9295V4.94634C20.9295 4.4249 20.5053 4.00068 19.9838 4.00068H18.5537C18.0323 4.00068 17.608 4.4249 17.608 4.94634V4.96893H14.5677V4.73624C14.5677 3.42313 13.4994 2.35485 12.1863 2.35485H11.8136C10.5006 2.35485 9.43228 3.42313 9.43228 4.73624V4.96893H6.39192V4.94634C6.39192 4.4249 5.9677 4.00068 5.44627 4.00068H4.01616C3.49472 4.00068 3.0705 4.4249 3.0705 4.94634V4.96893H2.68997V2.2334C2.68997 1.76816 2.31145 1.38965 1.84622 1.38965H0.84375C0.378516 1.38965 0 1.76816 0 2.2334V3.81782C0 4.01198 0.157406 4.16938 0.351562 4.16938C0.545719 4.16938 0.703125 4.01198 0.703125 3.81782V2.2334C0.703125 2.15587 0.766219 2.09277 0.84375 2.09277H1.84622C1.92375 2.09277 1.98684 2.15587 1.98684 2.2334V8.40805C1.98684 8.48559 1.92375 8.54868 1.84622 8.54868H0.84375C0.766219 8.54868 0.703125 8.48559 0.703125 8.40805V5.45845C0.703125 5.26429 0.545719 5.10688 0.351562 5.10688C0.157406 5.10688 0 5.26429 0 5.45845V8.40805C0 8.87329 0.378516 9.2518 0.84375 9.2518H1.84622C2.31145 9.2518 2.68997 8.87329 2.68997 8.40805V5.67205H3.09281C3.13908 5.90029 3.25523 6.1033 3.4177 6.25823V10.7585C3.4177 11.1945 3.61955 11.5676 3.97144 11.7821C4.38239 12.0325 4.93837 12.033 5.42278 11.7832C6.41991 11.2676 7.22775 10.747 7.95323 10.1518C8.04052 10.3585 8.1495 10.5565 8.27826 10.7421C8.60625 11.2137 8.79169 11.7779 8.81962 12.3821C8.63377 12.3019 8.42972 12.2575 8.21681 12.2575C7.45045 12.2575 6.79823 12.8307 6.6997 13.5906L6.45778 15.4567C6.37434 16.1002 6.43875 16.7657 6.64392 17.3812C6.7673 17.7515 6.82987 18.1371 6.82987 18.5272V20.9315L5.95392 22.3978C5.8447 22.5805 5.787 22.7896 5.787 23.0026C5.787 23.6528 6.31603 24.1819 6.96623 24.1819H8.75855C9.10786 24.1819 9.43702 24.0284 9.66164 23.7609C9.88627 23.4934 9.98044 23.1427 9.92002 22.7986L9.6037 20.9979V18.5272C9.6037 18.1635 9.65878 17.8041 9.76608 17.4571C10.1731 17.6152 10.6096 17.6977 11.0489 17.6977H12.9511C13.3904 17.6977 13.8269 17.6152 14.2339 17.4571C14.3412 17.804 14.3963 18.1635 14.3963 18.5272V20.9979L14.08 22.7986C14.0196 23.1426 14.1137 23.4934 14.3384 23.7609C14.563 24.0284 14.8921 24.1819 15.2415 24.1819H17.0338C17.684 24.1819 18.213 23.6528 18.213 23.0026C18.213 22.7897 18.1553 22.5807 18.0461 22.3978L17.1701 20.9315V20.2548C17.1701 20.0607 17.0127 19.9033 16.8185 19.9033C16.6243 19.9033 16.467 20.0607 16.467 20.2548V20.6769H15.0994V18.5271C15.0994 18.0613 15.0247 17.6009 14.8773 17.1589C14.7055 16.6433 14.6516 16.086 14.7214 15.5471L14.9633 13.681C15.0166 13.2703 15.369 12.9606 15.7831 12.9606C16.1973 12.9606 16.5497 13.2703 16.6029 13.681L16.8449 15.5471C16.9147 16.086 16.8608 16.6434 16.689 17.1589C16.5416 17.601 16.467 18.0614 16.467 18.5272V18.6142C16.467 18.8084 16.6243 18.9658 16.8185 18.9658C17.0127 18.9658 17.1701 18.8084 17.1701 18.6142V18.5272C17.1701 18.1371 17.2327 17.7515 17.356 17.3812C17.5612 16.7657 17.6256 16.1002 17.5422 15.4567L17.3002 13.5906C17.2017 12.8306 16.5495 12.2575 15.7832 12.2575C15.5703 12.2575 15.3662 12.3019 15.1804 12.3821C15.2083 11.7778 15.3938 11.2137 15.722 10.7418C15.8505 10.5565 15.9594 10.3586 16.0468 10.1517C16.7724 10.7471 17.5802 11.2676 18.5776 11.7834C19.0616 12.033 19.6177 12.0325 20.0286 11.7821C20.3805 11.5676 20.5823 11.1945 20.5823 10.7585V6.25823C20.7447 6.10326 20.8609 5.90029 20.9071 5.67205H21.31V8.40801C21.31 8.87324 21.6885 9.25176 22.1537 9.25176H23.1562C23.6215 9.25176 24 8.87324 24 8.40801V2.2334C24 1.76816 23.6215 1.38965 23.1562 1.38965ZM18.5537 4.7038H19.9838C20.1176 4.7038 20.2264 4.8126 20.2264 4.94634V5.44944C20.2264 5.67838 20.0401 5.86462 19.8113 5.86462H18.7264C18.4974 5.86462 18.3112 5.67834 18.3112 5.44944V4.94634C18.3112 4.8126 18.42 4.7038 18.5537 4.7038ZM17.6304 5.67205C17.7069 6.04945 17.9742 6.35826 18.3267 6.49368V7.54902C17.9595 7.10709 17.514 6.75918 16.9797 6.49504C16.5822 6.29859 16.1255 6.19476 15.6591 6.19476H14.541C14.5581 6.08179 14.5678 5.96268 14.5678 5.83649V5.6721L17.6304 5.67205ZM14.9744 10.6106C14.6459 11.1842 14.4731 11.8456 14.4731 12.5425V12.5887C13.921 12.7734 13.4661 13.1631 13.2007 13.6895C13.1501 13.7896 13.0493 13.8517 12.9375 13.8517H11.0625C10.9507 13.8517 10.8498 13.7895 10.7994 13.6897C10.5339 13.1631 10.079 12.7734 9.52688 12.5887V12.5425C9.52688 11.8455 9.35409 11.1841 9.02559 10.6106C9.40969 9.53418 9.42169 8.20823 9.34936 6.89784H9.69009C9.79111 7.09359 9.92067 7.2748 10.075 7.4361C10.0376 7.65093 10.0185 7.87293 10.0185 8.09877C10.0185 9.65273 10.8889 10.87 12 10.87C13.111 10.87 13.9814 9.65273 13.9814 8.09877C13.9814 7.87143 13.962 7.64793 13.9241 7.43179C14.0598 7.28685 14.197 7.11055 14.3098 6.89788H14.6505C14.5783 8.20823 14.5903 9.53418 14.9744 10.6106ZM11.7022 8.34904H12.2978C12.6531 8.34904 12.9968 8.23026 13.2759 8.01332C13.2767 8.04182 13.2783 8.07009 13.2783 8.09877C13.2783 9.21984 12.6929 10.1669 12 10.1669C11.3071 10.1669 10.7217 9.21979 10.7217 8.09877C10.7217 8.07009 10.7233 8.04177 10.7241 8.01327C11.0032 8.23021 11.3469 8.34904 11.7022 8.34904ZM10.1354 4.73624C10.1354 3.81084 10.8883 3.05798 11.8136 3.05798H12.1863C13.1117 3.05798 13.8646 3.81084 13.8646 4.73624V5.83645C13.8646 6.46612 13.5472 6.8692 13.0652 7.26477C12.9862 7.32955 12.9218 7.38248 12.8703 7.43765C12.71 7.57209 12.5075 7.64591 12.2977 7.64591H11.7022C11.4862 7.64591 11.2777 7.56754 11.1152 7.42527L10.6853 7.04882C10.3358 6.74287 10.1354 6.30093 10.1354 5.83645V4.73624ZM9.46045 6.19471H8.34328C7.85686 6.19471 7.37461 6.31101 6.94837 6.53123C6.44536 6.79162 6.02353 7.12771 5.67323 7.54902V6.49368C6.02578 6.3583 6.29306 6.04945 6.36961 5.67205H9.43228V5.83645C9.43228 5.95729 9.44203 6.07696 9.46045 6.19471ZM3.77358 4.94634C3.77358 4.8126 3.88238 4.7038 4.01611 4.7038H5.44622C5.57995 4.7038 5.68875 4.8126 5.68875 4.94634V5.44944C5.68875 5.67838 5.50252 5.86462 5.27358 5.86462H4.1888C3.95986 5.86462 3.77362 5.67834 3.77362 5.44944L3.77358 4.94634ZM8.14823 9.4071C7.95792 9.35676 7.7542 9.40209 7.60312 9.52865C6.89189 10.1253 6.09647 10.6432 5.10014 11.1585C4.83666 11.2944 4.53727 11.3035 4.33734 11.1817C4.19372 11.0941 4.12083 10.9518 4.12083 10.7585V6.56559C4.14333 6.56695 4.16597 6.56784 4.18884 6.56784H4.9702V8.35288C4.9702 8.60329 5.17317 8.80729 5.4247 8.80729C5.58698 8.80729 5.74097 8.72019 5.82295 8.57319C6.1747 7.94188 6.64861 7.4782 7.27144 7.15584C7.59811 6.98709 7.96875 6.89788 8.34338 6.89788H8.64595C8.68988 7.64099 8.72752 8.75498 8.53716 9.72454C8.45944 9.56877 8.31825 9.45205 8.14823 9.4071ZM7.15509 15.5472L7.39702 13.6811C7.45027 13.2704 7.80267 12.9607 8.21681 12.9607C8.63091 12.9607 8.98336 13.2704 9.03661 13.6811L9.27853 15.5472C9.34838 16.0861 9.29447 16.6435 9.12263 17.159C8.9753 17.6011 8.90058 18.0614 8.90058 18.5273V20.6771H7.533V18.5273C7.533 18.0614 7.45828 17.601 7.31095 17.159C7.13911 16.6434 7.0852 16.086 7.15509 15.5472ZM9.12319 23.3089C9.03249 23.4169 8.89959 23.4788 8.75855 23.4788H6.96623C6.70369 23.4788 6.49012 23.2652 6.49012 23.0027C6.49012 22.9167 6.51342 22.8323 6.55753 22.7585L7.38094 21.3802H8.95697L9.22753 22.9203C9.25195 23.0592 9.21389 23.2009 9.12319 23.3089ZM11.0489 16.9947C10.6689 16.9947 10.2916 16.9178 9.94411 16.7708C10.0208 16.3376 10.0323 15.8922 9.97584 15.4567C9.97584 15.4567 9.72094 13.5066 9.71212 13.4655C9.90361 13.6047 10.0617 13.7882 10.1717 14.0066C10.3426 14.3448 10.684 14.5549 11.0625 14.5549H12.9375C13.3161 14.5549 13.6574 14.3448 13.8285 14.0062C13.9385 13.7881 14.0965 13.6046 14.288 13.4655C14.2791 13.5066 14.2717 13.5483 14.2662 13.5906L14.0243 15.4568C13.9678 15.8922 13.9793 16.3376 14.056 16.7708C13.7084 16.9178 13.3312 16.9947 12.9512 16.9947H11.0489ZM16.6191 21.3802L17.4425 22.7585C17.4866 22.8323 17.5099 22.9168 17.5099 23.0027C17.5099 23.2652 17.2963 23.4788 17.0338 23.4788H15.2414C15.1004 23.4788 14.9675 23.4169 14.8768 23.3089C14.7862 23.2009 14.7481 23.0593 14.7725 22.9204L15.043 21.3802H16.6191V21.3802ZM19.8792 10.7585C19.8792 10.9517 19.8064 11.0941 19.6627 11.1816C19.4629 11.3035 19.1634 11.2944 18.9002 11.1587C17.9035 10.6432 17.1081 10.1253 16.3966 9.52841C16.2458 9.40213 16.042 9.3568 15.8518 9.4071C15.6817 9.45205 15.5404 9.56891 15.4629 9.72445C15.2726 8.75488 15.3102 7.64095 15.3541 6.89788H15.6591C16.018 6.89788 16.367 6.97654 16.6681 7.12537C17.32 7.44768 17.8137 7.9213 18.1772 8.57338C18.2591 8.72024 18.4131 8.80734 18.5753 8.80734C18.8267 8.80734 19.0298 8.60338 19.0298 8.35293V6.56788C19.0298 6.56788 19.8567 6.56699 19.8792 6.56563V10.7585H19.8792ZM23.2969 8.40801C23.2969 8.48554 23.2338 8.54863 23.1562 8.54863H22.1538C22.0763 8.54863 22.0132 8.48554 22.0132 8.40801V2.2334C22.0132 2.15587 22.0763 2.09277 22.1538 2.09277H23.1562C23.2338 2.09277 23.2969 2.15587 23.2969 2.2334V8.40801Z" fill="#505050"/>
</g>
<defs>
<clipPath id="clip0_1225_184">
<rect width="24" height="24" fill="white" transform="translate(0 0.786133)"/>
</clipPath>
</defs>
</svg>
