<svg width="60" height="61" viewBox="0 0 60 61" fill="none" xmlns="http://www.w3.org/2000/svg">
<path d="M23.4376 38C25.2178 41.5618 25.3123 45.733 23.6954 49.3719L22.5001 52.0625H17.8126L16.193 37.482C15.9411 35.2153 17.034 33.0097 18.9903 31.8371C19.1841 31.7204 19.385 31.6155 19.5915 31.523C20.0721 31.3063 20.5798 31.1557 21.1008 31.0754L22.9372 30.793L30.0258 29.7031L30.9376 29.5625L34.6876 38H23.4376Z" fill="#FDC5CA"/>
<path d="M48.1641 29.5625H38.4375L38.1176 29.334L36.5695 28.2289L35.3836 27.3805L33.8355 26.2754L31.875 24.875C31.3151 25.4348 30.4597 25.5737 29.7516 25.2195L29.0625 24.875L28.9734 25.4949C28.418 29.3856 26.8301 33.0561 24.375 36.125C21.2921 36.1254 18.2517 35.4075 15.4945 34.0285L14.0625 33.3125L13.125 31.4375L16.0816 30.452C17.8489 29.8629 19.6996 29.5625 21.5625 29.5625H21.6059C20.1764 27.7618 20.3245 25.1752 21.9504 23.5496L22.5 23V22.2149C22.4995 20.9115 22.6395 19.6118 22.9172 18.3383C23.0556 17.6956 23.2293 17.0611 23.4375 16.4375L27.5004 10.3438L29.0625 8.00001L30.1605 7.4504C31.8586 6.60196 33.8241 6.46251 35.625 7.06251H40.3125L40.4613 7.1961L47.5781 13.625L48.1641 29.5625Z" fill="#FDC5CA"/>
<path d="M16.875 11.75L18.75 13.625L20.625 17.375L22.5 16.4375L25.3125 17.375L31.875 10.8125L30 8.9375H21.5625L16.875 11.75Z" fill="#FDC5CA"/>
<path d="M30 8.9375L21.5625 3.3125L12.1875 10.8125L13.1988 12.161C14.1308 13.4036 15.8937 13.6555 17.1363 12.7235C17.1852 12.6868 17.2328 12.6486 17.2792 12.6089L21.5625 8.9375L23.9808 9.74363C26.004 10.418 28.2254 10.1205 30 8.9375Z" fill="#BA8B5D"/>
<path d="M28.125 38H57.1875V42.6875H28.125V38Z" fill="#E04446"/>
<path d="M28.125 42.6875H33.75V57.6875H28.125V42.6875Z" fill="#68737F"/>
<path d="M51.5625 42.6875H57.1875V57.6875H51.5625V42.6875Z" fill="#68737F"/>
<path d="M23.4375 57.6875H10.3125C10.312 57.0431 10.442 56.4054 10.6945 55.8125C10.8572 55.4257 11.0708 55.0623 11.3297 54.732C11.9883 53.8873 12.9108 53.2875 13.95 53.0281L17.8125 52.0625H22.5L23.1246 55.8125L23.4375 57.6875Z" fill="#529DDF"/>
<path d="M53.7199 34.9508L53.4879 35.5297C52.8913 37.0216 51.4465 37.9999 49.8398 38H34.6875L30.9375 29.5625H50.0719C52.2416 29.5621 54.0008 31.3207 54.0012 33.4904C54.0013 33.9907 53.9058 34.4864 53.7199 34.9508Z" fill="#68737F"/>
<path d="M50.2863 34.7445C50.2805 34.7668 50.2746 34.7867 50.2699 34.8043C50.2002 35.0478 50.1081 35.2844 49.9945 35.5109L49.8867 35.7277C49.189 37.1195 47.7661 37.9986 46.2094 38H45C46.7809 41.5617 46.8755 45.7332 45.2578 49.3719L44.0625 52.0625H39.375L37.6594 34.9063C37.5574 33.8811 37.8435 32.855 38.4609 32.0305L39.0797 31.2066C39.7645 30.2935 40.7982 29.7064 41.9332 29.5859C41.9613 29.5824 41.9895 29.5801 42.0188 29.5777C42.1336 29.5672 42.2508 29.5625 42.368 29.5625H46.3172C48.5876 29.5624 50.4283 31.4029 50.4283 33.6733C50.4284 34.0351 50.3806 34.3952 50.2863 34.7445Z" fill="#FDC5CA"/>
<path d="M45 57.6875H31.875C31.8745 57.0431 32.0045 56.4054 32.257 55.8125C32.4198 55.4257 32.6333 55.0623 32.8922 54.732C33.5508 53.8873 34.4733 53.2875 35.5125 53.0281L39.375 52.0625H44.0625L44.6871 55.8125L45 57.6875Z" fill="#529DDF"/>
<path d="M50.625 25.8125L52.5 31.4375L49.6875 34.25L47.8125 30.5L45.9375 29.5625L43.125 30.5L42.1875 29.5625L46.875 23.9375L46.5 21.3125C46.2656 19.6718 46.55 17.9989 47.3133 16.5277C47.3132 16.5264 47.3135 16.5252 47.3145 16.5242C44.6264 16.907 41.9432 15.7959 40.3125 13.625H36.5625C35.3707 13.6254 34.3083 12.8738 33.9117 11.75C33.8041 11.4492 33.7494 11.132 33.75 10.8125C33.7497 9.08867 34.7238 7.51285 36.266 6.74258L36.5391 6.60547C37.1711 6.2893 37.868 6.12477 38.5746 6.125H40.3031C41.5097 6.12512 42.6667 6.60441 43.5199 7.45742L44.0625 8H47.1117C49.3377 8 51.4487 8.98871 52.8738 10.6988L55.3125 13.625C54.6928 17.3455 53.4176 20.9265 51.5461 24.2012L50.625 25.8125Z" fill="#FDC5CA"/>
<path d="M7.5 33.3125C10.0888 33.3125 12.1875 31.2138 12.1875 28.625C12.1875 26.0362 10.0888 23.9375 7.5 23.9375C4.91117 23.9375 2.8125 26.0362 2.8125 28.625C2.8125 31.2138 4.91117 33.3125 7.5 33.3125Z" fill="#68737F"/>
<path d="M11.25 35.1875C13.8388 35.1875 15.9375 33.0888 15.9375 30.5C15.9375 27.9112 13.8388 25.8125 11.25 25.8125C8.66117 25.8125 6.5625 27.9112 6.5625 30.5C6.5625 33.0888 8.66117 35.1875 11.25 35.1875Z" fill="#68737F"/>
<path d="M27.1333 25.9264L25.272 25.6992C25.1221 26.9099 24.5732 28.0361 23.7119 28.9L25.0378 30.2258C26.1948 29.0653 26.932 27.5525 27.1333 25.9264Z" fill="black"/>
<path d="M11.25 31.4375C11.7678 31.4375 12.1875 31.0178 12.1875 30.5C12.1875 29.9822 11.7678 29.5625 11.25 29.5625C10.7322 29.5625 10.3125 29.9822 10.3125 30.5C10.3125 31.0178 10.7322 31.4375 11.25 31.4375Z" fill="black"/>
<path d="M57.1876 37.0625H53.6809C53.9609 36.7014 54.1889 36.3028 54.3585 35.8785L54.5903 35.299C55.4346 33.1919 54.7079 30.781 52.8397 29.4916L51.6471 25.9138L52.3598 24.6664C54.2883 21.2962 55.6012 17.6096 56.2375 13.7792C56.2823 13.5101 56.2076 13.2346 56.0329 13.0249L53.5942 10.0985C51.993 8.1723 49.6171 7.05937 47.1123 7.06253H44.4509L44.1834 6.79499C43.1564 5.76234 41.7589 5.18355 40.3027 5.18753H38.5744C37.7225 5.18847 36.8825 5.38675 36.1202 5.76679L35.8464 5.90366C35.7472 5.95323 35.6504 6.00609 35.5554 6.06081C33.6169 5.50921 31.542 5.70597 29.7418 6.6123L28.8622 7.0521L22.0828 2.53253C21.7431 2.30601 21.2959 2.32534 20.977 2.58046L11.602 10.0805C11.2066 10.3969 11.1339 10.9699 11.4377 11.375L12.4492 12.7235C13.0725 13.5519 14.0099 14.0864 15.0401 14.2011C15.1746 14.2159 15.31 14.2234 15.4453 14.2233C16.153 14.2226 16.8463 14.0226 17.4457 13.6464L17.9797 14.1804L19.7868 17.7943C20.0179 18.2572 20.5805 18.4452 21.0434 18.2141C21.0437 18.2139 21.0442 18.2137 21.0445 18.2135L22.1052 17.6832C21.7446 19.1667 21.5625 20.6879 21.5627 22.2146V22.6118L21.288 22.8864C19.7696 24.4079 19.2816 26.677 20.04 28.6884C18.924 28.7818 17.8191 28.9781 16.7392 29.2745C16.1988 26.8726 14.1619 25.0994 11.7084 24.8953C10.6453 23.685 9.11086 22.9939 7.50012 23C4.39395 22.9996 1.87547 25.5171 1.875 28.6233C1.87453 31.5525 4.12242 33.9916 7.04191 34.2298C9.07195 36.5253 12.5677 36.7692 14.8968 34.7777L15.0757 34.8673C15.203 34.9309 15.3318 34.9916 15.4603 35.0525C15.2347 35.8769 15.167 36.7365 15.2607 37.586L16.7903 51.3518L13.7232 52.1185C11.1661 52.7546 9.37207 55.0525 9.37512 57.6875C9.37512 58.2053 9.79488 58.625 10.3126 58.625H23.4376C23.9554 58.625 24.3751 58.2053 24.3751 57.6875C24.3751 57.6359 24.3709 57.5843 24.3623 57.5334L23.4711 52.186L24.5525 49.7528C26.0803 46.3305 26.1942 42.4434 24.8695 38.9376H27.1876V57.6876C27.1876 58.2054 27.6074 58.6251 28.1251 58.6251H29.0626V43.625H32.8126V51.125H34.6876V43.625H37.5893L38.3617 51.3496L35.2857 52.1187C32.7286 52.7546 30.9346 55.0525 30.9376 57.6875C30.9376 58.2053 31.3574 58.625 31.8751 58.625H45.0001C45.5179 58.625 45.9376 58.2053 45.9376 57.6875C45.9376 57.6359 45.9334 57.5843 45.9248 57.5334L45.0336 52.186L46.115 49.7529C46.9736 47.8264 47.3938 45.7335 47.3454 43.625H50.6251V57.6875C50.6251 58.2053 51.0449 58.625 51.5626 58.625H57.1876C57.7054 58.625 58.1251 58.2053 58.1251 57.6875V38C58.1251 37.4823 57.7054 37.0625 57.1876 37.0625ZM52.8582 32.4053C53.1339 33.1124 53.1307 33.8978 52.8493 34.6025L52.6175 35.1819C52.2081 36.2143 51.2576 36.9326 50.1525 37.0444C50.374 36.7658 50.5658 36.465 50.7247 36.1466L50.8327 35.9307C51.1471 35.2994 51.3261 34.6093 51.3584 33.9048L52.8582 32.4053ZM15.2445 12.3374C14.7284 12.2829 14.2586 12.015 13.9489 11.5985L13.4828 10.9769L21.6129 4.4728L28.144 8.82691C26.8943 9.26741 25.533 9.27702 24.2773 8.85409L21.8591 8.04808C21.5467 7.94402 21.2026 8.0114 20.9525 8.22573L16.6692 11.8971C16.2766 12.2364 15.7601 12.3961 15.2445 12.3374ZM21.1788 30.5045L21.8372 31.163C22.2036 31.5287 22.7973 31.5282 23.163 31.1617C23.5283 30.7957 23.5283 30.2031 23.163 29.837L22.6138 29.2877C21.2122 27.8862 21.2121 25.6138 22.6137 24.2122L22.6138 24.2121L23.163 23.6628C23.3388 23.4869 23.4376 23.2486 23.4376 22.9999V22.2145C23.4375 20.7655 23.6194 19.3223 23.9791 17.9187L25.016 18.2644C25.3529 18.3766 25.7243 18.289 25.9755 18.0378L28.788 15.2253L27.4622 13.8995L25.0594 16.3023L22.7966 15.548C22.5607 15.4693 22.3032 15.4876 22.0808 15.5989L21.0444 16.1171L19.5886 13.2056C19.5435 13.1155 19.4842 13.0332 19.413 12.962L18.9029 12.4519L21.7697 9.99468L23.6844 10.633C25.9814 11.4067 28.5076 11.0684 30.5201 9.71741C30.9502 9.43159 31.0671 8.85116 30.7813 8.42109C30.742 8.36202 30.6962 8.30765 30.6446 8.25902C31.6275 7.77808 32.7205 7.56679 33.8119 7.64683C33.159 8.57319 32.8099 9.67933 32.8126 10.8125H34.6876C34.6829 9.44273 35.4575 8.18941 36.6847 7.58085L36.9586 7.44398C37.4605 7.19378 38.0135 7.06323 38.5744 7.06253H40.3027C41.2615 7.05995 42.1815 7.44105 42.8576 8.12085L43.3997 8.66296C43.5755 8.83874 43.8139 8.93753 44.0626 8.93753H47.1123C49.0604 8.93519 50.9084 9.80073 52.1538 11.2987L54.3147 13.892C53.6905 17.3537 52.4788 20.6831 50.7318 23.7362L49.8111 25.3474C49.6788 25.579 49.6514 25.856 49.7357 26.109L51.4275 31.1843L49.9445 32.6674L48.6512 30.0807C48.5605 29.8993 48.4134 29.7523 48.232 29.6616L46.357 28.7241C46.1346 28.6128 45.8772 28.5946 45.6413 28.6731L43.5754 29.3618L47.5955 24.5376C47.7654 24.3339 47.841 24.0676 47.8034 23.8049L47.4284 21.18C47.1213 18.9939 47.8559 16.7901 49.4133 15.2255L48.0874 13.8996C47.5652 14.4226 47.1108 15.0092 46.7348 15.6456C45.0272 15.7701 43.3395 15.2155 42.0387 14.1021C42.8727 13.6832 43.5483 13.005 43.9639 12.1693L42.2869 11.3307C41.8736 12.1645 41.0221 12.6907 40.0916 12.6875H37.5001V14.5625H38.4376V16.5984C38.4383 16.8472 38.3394 17.0859 38.1629 17.2612L35.2112 20.213C34.8736 20.5513 34.3355 20.581 33.9627 20.2821L30.5857 17.5805L29.4145 19.0446L32.7915 21.7462C33.9102 22.6428 35.5243 22.5534 36.5372 21.5388L39.4889 18.5871C40.0181 18.0608 40.3147 17.3447 40.3126 16.5983V15.0524C41.7954 16.5513 43.7893 17.4355 45.8958 17.5281C45.497 18.7932 45.3864 20.1316 45.572 21.4451L45.888 23.6575L41.7485 28.625H38.826L41.913 25.538L40.5872 24.2121L37.2424 27.5569L36.055 26.7087L39.1005 23.6631L37.7747 22.3372L34.5081 25.6038L33.3206 24.7556L33.4755 24.6007C33.842 24.235 33.8426 23.6413 33.4768 23.2748C33.1111 22.9084 32.5174 22.9078 32.151 23.2735C32.1505 23.274 32.1502 23.2744 32.1497 23.2748L31.2302 24.1943C30.9451 24.48 30.5091 24.5508 30.1482 24.37L25.7319 22.1618L24.8933 23.8389L28.0382 25.4113C27.5214 28.9658 26.1047 32.3292 23.9225 35.1824C21.2201 35.1137 18.5633 34.47 16.1291 33.2943C16.4998 32.65 16.738 31.9382 16.83 31.2005C18.2416 30.7732 19.7045 30.5392 21.1788 30.5045ZM38.3295 30.6443L37.7112 31.4685C36.951 32.48 36.5995 33.7407 36.7268 34.9997L36.933 37.0625H35.297L32.3803 30.5H38.4442C38.4055 30.5477 38.3665 30.5951 38.3295 30.6443ZM29.8045 26.238C30.4954 26.4335 31.2348 26.357 31.8708 26.0239L35.5121 28.625H30.9376C30.933 28.625 30.9286 28.6259 30.9239 28.6259C30.8944 28.6262 30.8646 28.6282 30.8347 28.6315C30.8268 28.6324 30.8188 28.633 30.8108 28.6341C30.8055 28.6348 30.8003 28.635 30.7949 28.6358L29.1891 28.8828C29.4464 28.0142 29.6518 27.1311 29.8045 26.238ZM3.75012 28.625C3.75352 26.5506 5.43785 24.8716 7.5123 24.875C8.09156 24.876 8.66273 25.0109 9.18117 25.2691C9.15562 25.2793 9.13055 25.2905 9.10523 25.3009C9.08109 25.3109 4.7482 27.0217 5.81133 31.939C5.81473 31.9516 5.81695 31.9646 5.82035 31.9773C4.55215 31.3408 3.75129 30.0438 3.75012 28.625ZM11.2501 34.25C9.17906 34.25 7.50012 32.5711 7.50012 30.5C7.50012 28.429 9.17906 26.75 11.2501 26.75C13.3212 26.75 15.0001 28.429 15.0001 30.5C15.0159 32.5553 13.3625 34.2342 11.3073 34.25C11.2882 34.2501 11.2692 34.2501 11.2501 34.25ZM11.3646 56.75C11.7098 55.3642 12.7922 54.2823 14.1782 53.9375L17.9279 53H21.7059L22.331 56.75H11.3646ZM24.3751 37.0625H23.4376C22.9199 37.0625 22.5001 37.4822 22.5001 37.9999C22.5001 38.1456 22.534 38.2891 22.5991 38.4193C24.2605 41.7289 24.3486 45.6095 22.8393 48.9912L21.8909 51.125H18.6517L17.1244 37.3788C17.0658 36.8469 17.0947 36.3089 17.2102 35.7864C19.5055 36.6274 21.9306 37.0592 24.3751 37.0625C24.6599 37.0625 24.9293 36.9332 25.1072 36.7107C26.5173 34.9468 27.6592 32.9843 28.4959 30.8867L30.3718 30.5981L33.2449 37.0625H24.3751ZM31.8751 41.75H29.0626V38.9375H37.1205L37.4018 41.75H31.8751ZM32.9271 56.75C33.2723 55.3642 34.3547 54.2823 35.7407 53.9375L39.4904 53H43.2684L43.8935 56.75H32.9271ZM44.4018 48.9914L43.4534 51.125H40.2236L38.5923 34.8132C38.5124 34.0219 38.7333 33.2294 39.2111 32.5936L39.8293 31.7694C40.3174 31.1166 41.0389 30.6776 41.8432 30.5442L42.4621 31.1631C42.7132 31.4142 43.0847 31.5019 43.4216 31.3896L45.8655 30.5749L47.1137 31.1989L48.849 34.6694C48.9246 34.8197 49.0393 34.9467 49.1811 35.0372C49.1725 35.0556 49.1647 35.0743 49.1556 35.0925L49.0477 35.3085C48.5133 36.3864 47.4125 37.0666 46.2095 37.0626H45.5793L44.901 35.706L43.2239 36.5443L44.1613 38.4193C45.8229 41.7289 45.911 45.6096 44.4018 48.9914ZM46.4309 38.9375H56.2501V41.75H47.1758C47.0242 40.7896 46.7745 39.8471 46.4309 38.9375ZM56.2501 56.75H52.5001V43.625H56.2501V56.75Z" fill="black"/>
</svg>
