<svg width="40" height="40" viewBox="0 0 40 40" fill="none" xmlns="http://www.w3.org/2000/svg">
<g clip-path="url(#clip0_357_8128)">
<path fill-rule="evenodd" clip-rule="evenodd" d="M4.51245 30.0103H9.85308V38.7501H4.51245V30.0103Z" fill="#05E39C"/>
<path fill-rule="evenodd" clip-rule="evenodd" d="M13.0579 24.054H18.3985V38.75H13.0579V24.054Z" fill="#FFE177"/>
<path fill-rule="evenodd" clip-rule="evenodd" d="M21.6023 27.821H26.9429V38.75H21.6023V27.821Z" fill="#2FB1D4"/>
<path fill-rule="evenodd" clip-rule="evenodd" d="M30.1469 21.0469H35.4875V38.75H30.1469V21.0469Z" fill="#FF5A5A"/>
<path d="M7.18284 26.1438C8.35299 26.1438 9.30159 25.1952 9.30159 24.025C9.30159 22.8548 8.35299 21.9062 7.18284 21.9062C6.01268 21.9062 5.06409 22.8548 5.06409 24.025C5.06409 25.1952 6.01268 26.1438 7.18284 26.1438Z" fill="#05E39C"/>
<path d="M17.8075 16.681C18.0287 15.5319 17.2764 14.4211 16.1273 14.1999C14.9783 13.9788 13.8675 14.731 13.6463 15.8801C13.4251 17.0292 14.1774 18.14 15.3265 18.3611C16.4756 18.5823 17.5864 17.8301 17.8075 16.681Z" fill="#FFE177"/>
<path d="M24.4476 23.5296C25.613 23.4278 26.4753 22.4005 26.3735 21.235C26.2717 20.0695 25.2444 19.2073 24.0789 19.3091C22.9134 19.4109 22.0512 20.4382 22.153 21.6037C22.2548 22.7692 23.2821 23.6314 24.4476 23.5296Z" fill="#2FB1D4"/>
<path d="M33.6367 15.3442C34.7179 14.896 35.2311 13.6562 34.783 12.575C34.3348 11.4938 33.095 10.9806 32.0138 11.4288C30.9325 11.8769 30.4193 13.1167 30.8675 14.198C31.3157 15.2792 32.5555 15.7924 33.6367 15.3442Z" fill="#FF5A5A"/>
<path d="M7.3125 13.375C10.6607 13.375 13.375 10.6607 13.375 7.3125C13.375 3.96427 10.6607 1.25 7.3125 1.25C3.96427 1.25 1.25 3.96427 1.25 7.3125C1.25 10.6607 3.96427 13.375 7.3125 13.375Z" fill="#2FB1D4"/>
<path fill-rule="evenodd" clip-rule="evenodd" d="M7.3125 1.25C10.6609 1.25 13.375 3.96406 13.375 7.3125H7.3125V1.25Z" fill="#FF5A5A"/>
<path fill-rule="evenodd" clip-rule="evenodd" d="M13.375 7.3125C13.3734 9.19297 12.5 11.0461 10.8578 12.2305L7.3125 7.3125H9.34219H13.375Z" fill="#FFE177"/>
<path fill-rule="evenodd" clip-rule="evenodd" d="M19.3024 2.84229H23.2188V5.80947H19.3024V2.84229Z" fill="#2FB1D4"/>
<path fill-rule="evenodd" clip-rule="evenodd" d="M19.3024 8.11011H23.2188V11.0773H19.3024V8.11011Z" fill="#FF5A5A"/>
<path fill-rule="evenodd" clip-rule="evenodd" d="M19.7711 8.57891H22.75V10.6086H19.7711V8.57891ZM19.3023 11.5461H23.2188C23.4773 11.5461 23.6875 11.3359 23.6875 11.0773V8.11016C23.6875 7.85156 23.4773 7.64141 23.2188 7.64141H19.3023C19.043 7.64141 18.8336 7.85156 18.8336 8.11016V11.0773C18.8336 11.3359 19.043 11.5461 19.3023 11.5461ZM24.9445 10.5828C24.9445 10.3242 25.1547 10.1141 25.4133 10.1141H27.982C28.2406 10.1141 28.4508 10.3242 28.4508 10.5828C28.4508 10.8422 28.2406 11.0516 27.982 11.0516H25.4133C25.1547 11.0516 24.9445 10.8422 24.9445 10.5828ZM24.9445 8.60391C24.9445 8.34453 25.1547 8.13516 25.4133 8.13516H31.3164C31.5758 8.13516 31.7852 8.34453 31.7852 8.60391C31.7852 8.8625 31.5758 9.07266 31.3164 9.07266H25.4133C25.1547 9.07266 24.9445 8.8625 24.9445 8.60391ZM19.7711 3.31094H22.75V5.34062H19.7711V3.31094ZM19.3023 6.27812H23.2188C23.4773 6.27812 23.6875 6.06797 23.6875 5.80937V2.84219C23.6875 2.58359 23.4773 2.37344 23.2188 2.37344H19.3023C19.043 2.37344 18.8336 2.58359 18.8336 2.84219V5.80937C18.8336 6.06797 19.043 6.27812 19.3023 6.27812ZM24.9445 5.31563C24.9445 5.05703 25.1547 4.84688 25.4133 4.84688H27.982C28.2406 4.84688 28.4508 5.05703 28.4508 5.31563C28.4508 5.57422 28.2406 5.78438 27.982 5.78438H25.4133C25.1547 5.78438 24.9445 5.57422 24.9445 5.31563ZM24.9445 3.33594C24.9445 3.07656 25.1547 2.86719 25.4133 2.86719H31.3164C31.5758 2.86719 31.7852 3.07734 31.7852 3.33594C31.7852 3.59453 31.5758 3.80469 31.3164 3.80469H25.4133C25.1547 3.80469 24.9445 3.59531 24.9445 3.33594ZM6.84375 1.73984V7.3125C6.84375 7.41406 6.87656 7.50938 6.93281 7.58672H6.93203L10.1906 12.107C9.34922 12.6141 8.36484 12.9062 7.3125 12.9062C4.22812 12.9062 1.71875 10.3969 1.71875 7.3125C1.71875 4.38594 3.97812 1.97891 6.84375 1.73984ZM7.78125 1.73828V6.84375H12.8867C12.6609 4.13203 10.493 1.96406 7.78125 1.73828ZM10.95 11.557C12.0352 10.6258 12.7594 9.2875 12.8852 7.78125H8.22813L10.95 11.557ZM7.3125 13.8438C10.9141 13.8438 13.8438 10.9141 13.8438 7.3125C13.8438 3.71094 10.9141 0.78125 7.3125 0.78125C3.71094 0.78125 0.78125 3.71094 0.78125 7.3125C0.78125 10.9141 3.71094 13.8438 7.3125 13.8438ZM15.7273 14.632C16.6375 14.632 17.3781 15.3727 17.3781 16.282C17.3781 17.1914 16.6375 17.932 15.7273 17.932C14.818 17.932 14.0773 17.1914 14.0773 16.282C14.0773 15.3727 14.818 14.632 15.7273 14.632ZM7.18281 25.675C6.27344 25.675 5.53281 24.9344 5.53281 24.025C5.53281 23.1156 6.27344 22.375 7.18281 22.375C8.09297 22.375 8.83359 23.1156 8.83359 24.025C8.83359 24.9352 8.09297 25.675 7.18281 25.675ZM24.2727 19.768C25.182 19.768 25.9227 20.5086 25.9227 21.418C25.9227 22.3281 25.182 23.068 24.2727 23.068C23.3625 23.068 22.6219 22.3281 22.6219 21.418C22.6219 20.5086 23.3625 19.768 24.2727 19.768ZM32.8172 11.7453C33.7266 11.7453 34.4672 12.4859 34.4672 13.3953C34.4672 14.3055 33.7266 15.0453 32.8172 15.0453C31.907 15.0453 31.1664 14.3055 31.1664 13.3953C31.1664 12.4859 31.907 11.7453 32.8172 11.7453ZM13.5281 17.643C13.282 17.2477 13.1398 16.7812 13.1398 16.282C13.1398 14.8555 14.3008 13.6945 15.7273 13.6945C17.1547 13.6945 18.3156 14.8555 18.3156 16.282C18.3156 16.6016 18.2563 16.9086 18.15 17.1914L22.3344 19.7063C22.8086 19.1695 23.5016 18.8305 24.2727 18.8305C24.8461 18.8305 25.3766 19.018 25.8055 19.3352L30.6422 14.7945C30.3813 14.3906 30.2289 13.9109 30.2289 13.3953C30.2289 11.968 31.3898 10.8078 32.8172 10.8078C34.2438 10.8078 35.4047 11.9688 35.4047 13.3953C35.4047 14.8227 34.2438 15.9828 32.8172 15.9828C32.243 15.9828 31.7133 15.7953 31.2836 15.4781L26.4477 20.0187C26.7078 20.4227 26.8602 20.9023 26.8602 21.418C26.8602 22.8445 25.6992 24.0055 24.2727 24.0055C22.8453 24.0055 21.6844 22.8445 21.6844 21.418C21.6844 21.0984 21.743 20.7914 21.85 20.5086L17.6656 17.9938C17.1914 18.5305 16.4984 18.8695 15.7273 18.8695C15.1375 18.8695 14.5938 18.6711 14.1578 18.3367L9.38281 22.6641C9.62813 23.0594 9.77109 23.5258 9.77109 24.025C9.77109 25.4523 8.61016 26.6125 7.18281 26.6125C5.75625 26.6125 4.59531 25.4516 4.59531 24.025C4.59531 22.5984 5.75625 21.4375 7.18281 21.4375C7.77344 21.4375 8.31719 21.6359 8.75313 21.9695L13.5281 17.643ZM4.98203 30.4789H9.38438V38.2812H4.98203V30.4789ZM13.5266 24.5227V38.2812H17.9289V24.5227H13.5266ZM22.0711 28.2898H26.4734V38.2812H22.0711V28.2898ZM30.6156 21.5156V38.2812H35.018V21.5156H30.6156ZM38.75 38.2812H35.9555V21.0469C35.9555 20.7883 35.7461 20.5781 35.4867 20.5781H30.1469C29.8875 20.5781 29.6781 20.7883 29.6781 21.0469V38.2812H27.4109V27.8211C27.4109 27.5625 27.2016 27.3523 26.9422 27.3523H21.6023C21.343 27.3523 21.1336 27.5625 21.1336 27.8211V38.2812H18.8664V24.0539C18.8664 23.7953 18.657 23.5852 18.3977 23.5852H13.0578C12.7984 23.5852 12.5891 23.7953 12.5891 24.0539V38.2812H10.3219V30.0102C10.3219 29.7508 10.1125 29.5414 9.85313 29.5414H4.51328C4.25391 29.5414 4.04453 29.7508 4.04453 30.0102V38.2812H1.25C0.991406 38.2812 0.78125 38.4914 0.78125 38.75C0.78125 39.0086 0.991406 39.2188 1.25 39.2188H38.75C39.0086 39.2188 39.2188 39.0086 39.2188 38.75C39.2188 38.4914 39.0086 38.2812 38.75 38.2812Z" fill="#222124"/>
</g>
<defs>
<clipPath id="clip0_357_8128">
<rect width="40" height="40" fill="white"/>
</clipPath>
</defs>
</svg>
