<svg width="40" height="40" viewBox="0 0 40 40" fill="none" xmlns="http://www.w3.org/2000/svg">
<path d="M5.43921 0.586182H34.5613V36.9888H5.43921V0.586182Z" fill="#E9F1FF"/>
<path d="M34.5613 39.414C35.9016 39.414 36.9882 38.3275 36.9882 36.9872V10.2935H34.5613L34.5613 36.9887L32.1345 36.9856V36.9887C32.1344 38.3288 33.2213 39.4149 34.5613 39.414Z" fill="#FAC600"/>
<path d="M33.697 36.9857V13.5815H13.3669L10.94 11.1547H9.3455V0.586182H5.43909V36.9888H33.697C33.697 36.9877 33.697 36.9867 33.697 36.9857Z" fill="#D7E4F7"/>
<path d="M7.86597 3.01294H17.5733V12.7203H7.86597V3.01294Z" fill="#77D4F5"/>
<path d="M7.86597 12.7203H12.5058L10.94 11.1546H9.34556V3.01294H7.86597V12.7203Z" fill="#68B3F3"/>
<path d="M34.5613 39.4126H5.439C4.09878 39.4126 3.01233 38.3261 3.01233 36.9859V12.7173H10.2929L12.7197 15.1441H32.1344V36.9857C32.1344 38.326 33.221 39.4126 34.5613 39.4126Z" fill="#FFE07D"/>
<path d="M6.91875 36.9859V12.7173H3.01233V36.9859C3.01233 38.3261 4.09878 39.4126 5.439 39.4126H9.34541C8.00528 39.4126 6.91875 38.3261 6.91875 36.9859Z" fill="#FFD064"/>
<path d="M12.7196 7.86676C13.3898 7.86676 13.933 7.3235 13.933 6.65335C13.933 5.9832 13.3898 5.43994 12.7196 5.43994C12.0495 5.43994 11.5062 5.9832 11.5062 6.65335C11.5062 7.3235 12.0495 7.86676 12.7196 7.86676Z" fill="#FED2A4"/>
<path d="M15.1466 10.2935H10.2928V9.93788C10.2928 8.794 11.2202 7.8667 12.364 7.8667H13.0754C14.2193 7.8667 15.1466 8.794 15.1466 9.93788V10.2935Z" fill="#FF5576"/>
<path d="M13.3264 24.8538H24.2472V33.3523H13.3264V24.8538Z" fill="#82D65F"/>
<path d="M13.3264 24.8538H15.6703V33.3523H13.3264V24.8538Z" fill="#77BF51"/>
<path d="M18.7868 29.5216C19.4569 29.5216 20.0002 28.9783 20.0002 28.3081C20.0002 27.638 19.4569 27.0947 18.7868 27.0947C18.1166 27.0947 17.5734 27.638 17.5734 28.3081C17.5734 28.9783 18.1166 29.5216 18.7868 29.5216Z" fill="#77BF51"/>
<path d="M22.4364 24.8537H19.991V22.4269C19.991 21.7629 19.4508 21.2228 18.7869 21.2228C18.1229 21.2228 17.5827 21.7629 17.5827 22.4269V24.8537H15.1373V22.4269C15.1373 20.4145 16.7745 18.7773 18.7869 18.7773C20.7992 18.7773 22.4364 20.4145 22.4364 22.4269V24.8537Z" fill="#E9F1FF"/>
<path d="M19.5681 18.8616C19.3163 18.8064 19.0549 18.7773 18.7869 18.7773C16.7745 18.7773 15.1373 20.4145 15.1373 22.4269V24.8537H16.6999V22.4269C16.6999 20.6826 17.9299 19.2203 19.5681 18.8616Z" fill="#D7E4F7"/>
<path d="M20.3494 21.2227C20.0515 21.2227 19.7786 21.3314 19.5681 21.5113C19.8267 21.7323 19.9909 22.0607 19.9909 22.4268V24.8536H21.5535V22.4268C21.5535 21.7628 21.0133 21.2227 20.3494 21.2227Z" fill="#D7E4F7"/>
<path d="M20.0002 6.02563C19.6767 6.02563 19.4143 5.76329 19.4143 5.4397C19.4143 5.1161 19.6767 4.85376 20.0002 4.85376C20.3238 4.85376 20.5862 5.1161 20.5862 5.4397C20.5862 5.76337 20.3238 6.02563 20.0002 6.02563Z" fill="#252525"/>
<path d="M20.0002 8.45264C19.6767 8.45264 19.4143 8.19029 19.4143 7.8667C19.4143 7.54311 19.6767 7.28076 20.0002 7.28076C20.3238 7.28076 20.5862 7.54311 20.5862 7.8667C20.5862 8.19029 20.3238 8.45264 20.0002 8.45264Z" fill="#252525"/>
<path d="M20.0002 10.8794C19.6767 10.8794 19.4143 10.6171 19.4143 10.2935C19.4143 9.96986 19.6767 9.70752 20.0002 9.70752C20.3238 9.70752 20.5862 9.96986 20.5862 10.2935C20.5862 10.6171 20.3238 10.8794 20.0002 10.8794Z" fill="#252525"/>
<path d="M36.9881 9.70753H35.147V6.71669C35.147 6.39309 34.8847 6.13073 34.5611 6.13073C34.2375 6.13073 33.9751 6.39309 33.9751 6.71669V36.4031H32.7204V15.1444C32.7204 14.8208 32.458 14.5584 32.1344 14.5584H18.8502C18.5266 14.5584 18.2643 14.8208 18.2643 15.1444C18.2643 15.468 18.5266 15.7304 18.8502 15.7304H31.5485V36.986V36.9882V36.9891V36.9912C31.5496 37.664 31.77 38.3031 32.1759 38.8267H5.43865C4.42369 38.8267 3.59795 38.0009 3.59795 36.986V13.3029L10.0534 13.3063L12.305 15.5586C12.415 15.6686 12.564 15.7304 12.7194 15.7304H16.2962C16.6198 15.7304 16.8821 15.468 16.8821 15.1444C16.8821 14.8208 16.6198 14.5584 16.2962 14.5584H12.9623L11.7106 13.3064H17.5735C17.8971 13.3064 18.1594 13.044 18.1594 12.7204V3.01294C18.1594 2.68933 17.8971 2.42698 17.5735 2.42698H7.86602C7.54242 2.42698 7.28006 2.68933 7.28006 3.01294V12.131H6.0254V1.17193H33.975V4.16346C33.975 4.48707 34.2374 4.74942 34.561 4.74942C34.8846 4.74942 35.147 4.48707 35.147 4.16346V0.585963C35.147 0.262355 34.8846 0 34.561 0H5.43944C5.11583 0 4.85347 0.262355 4.85347 0.585963V12.131H3.01199C2.68838 12.131 2.42603 12.3933 2.42603 12.717V36.986C2.42603 38.6471 3.77749 39.9986 5.43865 39.9986C5.43865 39.9986 34.5477 40 34.5612 40C36.2225 40 37.574 38.6485 37.574 36.9871V10.2935C37.5741 9.96988 37.3117 9.70753 36.9881 9.70753ZM8.45199 3.5989H16.9874V12.1343H10.3554C10.3347 12.1321 10.3138 12.131 10.2928 12.131H8.45199V3.5989ZM36.4022 36.9872C36.4022 37.9908 35.595 38.8093 34.5958 38.8278C34.5844 38.8271 34.5727 38.8267 34.5611 38.8267C34.0697 38.8267 33.6075 38.6352 33.2597 38.2873C33.0559 38.0835 32.9057 37.8404 32.8163 37.5751H34.5611C34.8847 37.5751 35.147 37.3128 35.147 36.9892V10.8795H36.4022V36.9872Z" fill="#252525"/>
<path d="M15.1466 10.8793C15.4702 10.8793 15.7325 10.617 15.7325 10.2934C15.7482 9.22168 15.2808 8.07585 14.2705 7.56489C14.4284 7.29738 14.519 6.98565 14.519 6.65313C14.519 5.6609 13.7118 4.85376 12.7197 4.85376C11.7274 4.85376 10.9203 5.66098 10.9203 6.65313C10.9203 6.98565 11.0109 7.29738 11.1688 7.56489C10.1585 8.07585 9.6911 9.22168 9.7068 10.2934C9.7068 10.617 9.96916 10.8793 10.2928 10.8793H15.1466ZM12.7197 6.02561C13.0657 6.02561 13.3472 6.3071 13.3472 6.65306C13.3472 6.99901 13.0657 7.2805 12.7197 7.2805C12.3738 7.2805 12.0923 6.99901 12.0923 6.65306C12.0923 6.3071 12.3737 6.02561 12.7197 6.02561ZM12.364 8.45251H13.0754C13.816 8.45251 14.4318 8.99745 14.5428 9.70741H10.8966C11.0076 8.99745 11.6234 8.45251 12.364 8.45251Z" fill="#252525"/>
<path d="M32.1344 4.85376H22.427C22.1034 4.85376 21.8411 5.11611 21.8411 5.43972C21.8411 5.76333 22.1034 6.02569 22.427 6.02569H32.1344C32.458 6.02569 32.7204 5.76333 32.7204 5.43972C32.7204 5.11611 32.458 4.85376 32.1344 4.85376Z" fill="#252525"/>
<path d="M32.1344 7.28076H22.427C22.1034 7.28076 21.8411 7.54312 21.8411 7.86672C21.8411 8.19033 22.1034 8.45269 22.427 8.45269H32.1344C32.458 8.45269 32.7204 8.19033 32.7204 7.86672C32.7204 7.54312 32.458 7.28076 32.1344 7.28076Z" fill="#252525"/>
<path d="M32.1344 9.70679H22.427C22.1034 9.70679 21.8411 9.96914 21.8411 10.2927C21.8411 10.6164 22.1034 10.8787 22.427 10.8787H32.1344C32.458 10.8787 32.7204 10.6164 32.7204 10.2927C32.7204 9.96914 32.458 9.70679 32.1344 9.70679Z" fill="#252525"/>
<path d="M18.7868 31.321C19.1104 31.321 19.3728 31.0586 19.3728 30.735V30.0096C20.0782 29.766 20.5862 29.0953 20.5862 28.3082C20.5862 27.3159 19.779 26.5088 18.7868 26.5088C17.7946 26.5088 16.9874 27.316 16.9874 28.3082C16.9874 29.0953 17.4954 29.766 18.2008 30.0096V30.735C18.2008 31.0586 18.4632 31.321 18.7868 31.321ZM18.7868 27.6807C19.1328 27.6807 19.4142 27.9622 19.4142 28.3082C19.4142 28.6541 19.1328 28.9356 18.7868 28.9356C18.4408 28.9356 18.1594 28.6541 18.1594 28.3082C18.1594 27.9622 18.4408 27.6807 18.7868 27.6807Z" fill="#252525"/>
<path d="M18.7868 18.1914C16.4513 18.1914 14.5513 20.0914 14.5513 22.4269V24.2675H13.3264C13.0028 24.2675 12.7405 24.5299 12.7405 24.8535V33.3523C12.7405 33.6759 13.0028 33.9383 13.3264 33.9383H24.2472C24.5708 33.9383 24.8332 33.6759 24.8332 33.3523V29.5849C24.8332 29.2613 24.5708 28.999 24.2472 28.999C23.9236 28.999 23.6613 29.2613 23.6613 29.5849V32.7663H13.9124V25.4395H23.6613V27.0309C23.6613 27.3545 23.9236 27.6169 24.2472 27.6169C24.5708 27.6169 24.8332 27.3545 24.8332 27.0309V24.8535C24.8332 24.5299 24.5708 24.2675 24.2472 24.2675H23.0222V22.4269C23.0222 20.0915 21.1222 18.1914 18.7868 18.1914ZM15.7232 22.4269C15.7232 20.7376 17.0975 19.3633 18.7868 19.3633C20.476 19.3633 21.8503 20.7376 21.8503 22.4269V24.2675H20.5768V22.4269C20.5768 21.4398 19.7738 20.6368 18.7868 20.6368C17.7997 20.6368 16.9967 21.4398 16.9967 22.4269V24.2675H15.7232V22.4269ZM19.4049 24.2675H18.1686V22.4269C18.1686 22.086 18.4459 21.8087 18.7868 21.8087C19.1276 21.8087 19.4049 22.086 19.4049 22.4269V24.2675Z" fill="#252525"/>
</svg>
