<svg width="40" height="40" viewBox="0 0 40 40" fill="none" xmlns="http://www.w3.org/2000/svg">
<path d="M12.4182 14.5334H16.9083V24.4116H12.4182V14.5334Z" fill="#FD4755"/>
<path d="M20.1155 10.6973H24.6056V24.4116H20.1155V10.6973Z" fill="#01D0FB"/>
<path d="M27.8126 6.95703H32.3027V24.4116H27.8126V6.95703Z" fill="#6FD7A3"/>
<path d="M35.5099 3.3125H40V24.4115H35.5099V3.3125Z" fill="#FFD15B"/>
<path d="M29.8397 26.3682H25.205C23.3327 28.7147 20.4488 30.2189 17.2134 30.2189C11.5698 30.2189 6.99438 25.6437 6.99438 20C6.99438 14.4051 11.4909 9.86137 17.0671 9.78301L21.6914 6.58387C21.3892 6.48301 21.0827 6.39137 20.7719 6.31043L19.3136 2.91426C18.6245 2.83074 17.9245 2.78613 17.2137 2.78613C16.5023 2.78613 15.8016 2.83066 15.1132 2.91426L13.6549 6.31043C12.3748 6.64355 11.1646 7.15113 10.052 7.80559L6.61727 6.43418C5.51062 7.29918 4.51273 8.29777 3.64727 9.40402L5.01859 12.8382C4.36422 13.9514 3.85672 15.1614 3.52437 16.4418L0.127891 17.8998C0.0439062 18.588 0 19.289 0 20.0005C0 20.7109 0.0439062 21.4108 0.127891 22.1001L3.5243 23.5582C3.85664 24.8385 4.36414 26.0485 5.01852 27.1615L3.64719 30.5959C4.51266 31.7024 5.51055 32.7009 6.61719 33.5657L10.0519 32.1944C11.1645 32.8489 12.3746 33.3564 13.6548 33.6882L15.1131 37.0857C15.8015 37.1692 16.5023 37.2138 17.2136 37.2138C17.9245 37.2138 18.6245 37.1693 19.3135 37.0857L20.7718 33.6882C22.052 33.3564 23.2616 32.8489 24.3748 32.1944L27.8088 33.5657C28.9153 32.701 29.9137 31.7024 30.7787 30.5959L29.4071 27.1615C29.5598 26.9025 29.7035 26.6375 29.8397 26.3682Z" fill="#3A313A"/>
<path d="M12.7357 14.8508H16.5909V24.094H12.7357V14.8508Z" fill="#FD4755"/>
<path d="M20.4329 11.0146H24.288V24.0939H20.4329V11.0146Z" fill="#01D0FB"/>
<path d="M28.1301 7.27441H31.9853V24.094H28.1301V7.27441Z" fill="#6FD7A3"/>
<path d="M35.8274 3.63013H39.6825V24.0941H35.8274V3.63013Z" fill="#FFD15B"/>
<path d="M30.4159 30.543L29.1124 27.2791C29.076 27.1879 29.0838 27.085 29.1337 27.0004C29.1938 26.8982 29.2537 26.7931 29.3131 26.6856H25.3565C23.3445 29.135 20.3855 30.5363 17.2134 30.5363C11.4036 30.5363 6.67688 25.8097 6.67688 19.9999C6.67688 17.2119 7.75532 14.5838 9.71375 12.5997C11.6473 10.6408 14.2191 9.53062 16.9653 9.46727L20.9738 6.69422C20.8794 6.6675 20.7854 6.64188 20.692 6.61758C20.5971 6.59289 20.519 6.5257 20.4803 6.43562L19.0945 3.20836C18.4656 3.13875 17.8338 3.10352 17.2138 3.10352C16.5927 3.10352 15.9607 3.13875 15.3325 3.20828L13.9467 6.43562C13.908 6.5257 13.8298 6.59297 13.7349 6.61758C12.5008 6.93859 11.3159 7.43039 10.213 8.07914C10.1284 8.12891 10.0254 8.13648 9.93438 8.10031L6.67008 6.79695C5.68969 7.58039 4.79626 8.47391 4.01024 9.4568L5.31336 12.7204C5.34977 12.8116 5.34196 12.9144 5.29219 12.999C4.64313 14.1032 4.15172 15.2884 3.83157 16.5214C3.80688 16.6164 3.73977 16.6946 3.64954 16.7334L0.421958 18.119C0.352583 18.743 0.317505 19.375 0.317505 20.0004C0.317505 20.6241 0.352583 21.2558 0.421958 21.8807L3.64954 23.2663C3.73977 23.305 3.80688 23.3832 3.83157 23.4782C4.15172 24.7113 4.64313 25.8964 5.29219 27.0005C5.34196 27.0851 5.34977 27.1879 5.31336 27.2791L4.01016 30.5428C4.79626 31.5259 5.68969 32.4195 6.66993 33.2027L9.93422 31.8994C10.0252 31.863 10.1282 31.8708 10.2128 31.9205C11.3169 32.57 12.5017 33.0613 13.7345 33.3806C13.8295 33.4052 13.9078 33.4725 13.9466 33.5627L15.3323 36.7913C15.9607 36.8609 16.5926 36.8961 17.2136 36.8961C17.8337 36.8961 18.4654 36.8609 19.0944 36.7913L20.4802 33.5627C20.5189 33.4725 20.5972 33.4052 20.6923 33.3806C21.9241 33.0615 23.1089 32.5702 24.214 31.9205C24.2986 31.8708 24.4014 31.8631 24.4926 31.8994L27.7561 33.2027C28.7374 32.4186 29.6309 31.5251 30.4159 30.543Z" fill="#3A313A"/>
<path d="M13.5293 14.8508H16.5908V23.3004H13.5293V14.8508Z" fill="#FE646F"/>
<path d="M21.2266 11.0146H24.288V23.3004H21.2266V11.0146Z" fill="#62DBFB"/>
<path d="M28.9238 7.27441H31.9853V23.3004H28.9238V7.27441Z" fill="#9BE69D"/>
<path d="M36.621 3.63013H39.6825V23.3005H36.621V3.63013Z" fill="#FEE45A"/>
<path d="M17.6104 36.1027C17.0803 36.1027 16.5403 36.0762 16.002 36.0241L14.7081 33.0095C14.6202 32.8051 14.4463 32.6557 14.231 32.5998C13.034 32.2897 11.8834 31.8127 10.811 31.1819C10.7013 31.1174 10.576 31.0833 10.4489 31.0833C10.3577 31.0833 10.2686 31.1004 10.184 31.1341L7.13597 32.3511C6.30824 31.6705 5.5448 30.9071 4.86199 30.077L6.07886 27.0295C6.16128 26.8229 6.14402 26.5945 6.03128 26.4027C5.40082 25.3303 4.92347 24.1794 4.61253 22.9818C4.55675 22.7666 4.40746 22.5928 4.20308 22.5049L1.18949 21.2112C1.13753 20.6756 1.11121 20.1359 1.11121 19.6036C1.11121 19.0696 1.13746 18.5296 1.18941 17.9948L4.20292 16.7012C4.40746 16.6133 4.55675 16.4395 4.61253 16.2242C4.92347 15.0267 5.40074 13.8758 6.03121 12.8034C6.14394 12.6116 6.16136 12.383 6.07878 12.1765L4.86191 9.12914C5.54464 8.29937 6.30808 7.53586 7.13597 6.85508L10.1839 8.07195C10.2688 8.10578 10.3578 8.12281 10.4489 8.12281C10.5761 8.12281 10.7013 8.08875 10.8109 8.0243C11.8823 7.39406 13.0331 6.91648 14.2316 6.60477C14.4435 6.54969 14.6217 6.39664 14.7082 6.19523L16.002 3.18211C16.5403 3.12992 17.0803 3.10352 17.6105 3.10352C18.1401 3.10352 18.68 3.12992 19.2185 3.18219L20.5125 6.19531C20.536 6.25016 20.5658 6.30109 20.6009 6.34727L17.2332 8.67703C14.4297 8.77195 11.8041 9.92219 9.82816 11.9241C7.79605 13.9829 6.67691 16.7099 6.67691 19.603C6.67691 25.6316 11.5816 30.5362 17.6103 30.5362C20.8313 30.5362 23.8557 29.1352 25.9389 26.6855H29.0947C29.0819 26.8012 29.097 26.9198 29.1407 27.0295L30.3579 30.0771C29.6759 30.9064 28.9125 31.6698 28.0839 32.351L25.0367 31.1341C24.9518 31.1002 24.8627 31.0832 24.7717 31.0832C24.6445 31.0832 24.5193 31.1173 24.4097 31.1817C23.3365 31.8127 22.1858 32.2899 20.9896 32.5998C20.7742 32.6557 20.6003 32.805 20.5125 33.0093L19.2185 36.0239C18.6798 36.0762 18.14 36.1027 17.6104 36.1027Z" fill="#685E68"/>
</svg>
