<svg width="40" height="40" viewBox="0 0 40 40" fill="none" xmlns="http://www.w3.org/2000/svg">
<g clip-path="url(#clip0_357_8329)">
<path d="M25.7635 33.6103C25.1412 33.3303 24.6184 32.8681 24.2642 32.2848C21.3551 31.1382 17.4672 31.2048 14.7629 32.7764V39.3939H27.2726V33.9394L25.7635 33.6103Z" fill="#82BCF4"/>
<path d="M6.06066 29.697C0.606113 29.697 1.21217 39.394 1.21217 39.394C1.49702 39.394 9.26793 39.394 9.24369 39.394V35.1019C9.17278 32.6746 8.57399 29.697 6.06066 29.697Z" fill="#FFDE76"/>
<path d="M10.1564 32.0958C7.87153 28.9509 9.27275 24.2424 13.9394 24.2424C16.6709 24.2424 18.7388 26.0606 18.7879 28.4849C17.666 28.453 16.592 28.0234 15.7576 27.2727C15.3342 27.8373 14.7852 28.2955 14.154 28.611C13.5229 28.9266 12.8269 29.0909 12.1212 29.0909C12.1212 29.0909 12.6637 31.8024 10.1576 32.0958" fill="#F8834B"/>
<path d="M32.7272 0.605957H7.27263C6.62968 0.605957 6.01307 0.861368 5.55843 1.316C5.1038 1.77063 4.84839 2.38725 4.84839 3.0302V13.9393C4.84839 14.5822 5.1038 15.1989 5.55843 15.6535C6.01307 16.1081 6.62968 16.3635 7.27263 16.3635L7.87869 18.1817L9.69687 16.3635H12.1211L13.3332 19.9999L14.5454 16.3635H18.7878L19.9999 18.7878L21.212 16.3635H25.4545L26.6666 19.9999L27.8787 16.3635H30.3029L32.1211 18.1817L32.7272 16.3635C33.3701 16.3635 33.9867 16.1081 34.4414 15.6535C34.896 15.1989 35.1514 14.5822 35.1514 13.9393V3.0302C35.1514 2.38725 34.896 1.77063 34.4414 1.316C33.9867 0.861368 33.3701 0.605957 32.7272 0.605957Z" fill="#F26674"/>
<path d="M22.4243 29.697C23.0098 22.9006 34.4643 24.6588 31.7292 32.0818C30.7456 31.9008 29.8228 31.4769 29.0446 30.8488C28.2664 30.2206 27.6574 29.4081 27.2728 28.4849C25.4546 30.9091 22.4243 29.697 22.4243 29.697Z" fill="#425B72"/>
<path d="M8.48486 39.394C8.48486 33.9394 11.143 32.7273 13.9394 32.7273C16.7358 32.7273 19.394 34.3485 19.394 39.394H8.48486Z" fill="#B5E08C"/>
<path d="M32.0915 29.2799C32.0159 28.6277 31.7827 28.0037 31.4121 27.4617C31.9478 27.2541 32.4132 26.8979 32.7535 26.435C33.0938 25.9721 33.295 25.4217 33.3333 24.8484C34.8805 25.4263 36.5616 25.5448 38.1745 25.1896C37.963 29.0781 34.8351 30.4769 32.0897 29.2823" fill="#F6CCAF"/>
<path d="M38.1745 25.1892C38.5894 25.1087 38.9972 24.9948 39.3939 24.8486C39.1805 18.0001 27.7199 18.5971 28.5157 25.5874C29.6858 25.8204 30.7222 26.4927 31.412 27.4662C31.9484 27.2582 32.4142 26.9014 32.7545 26.4377C33.0949 25.9739 33.2957 25.4226 33.3332 24.8486C34.8804 25.4263 36.5616 25.5445 38.1745 25.1892Z" fill="#F16F39"/>
<path d="M32.6206 39.3939C32.3667 38.02 31.6794 35.7679 30.7576 35.0618C30.7694 34.0135 30.9327 32.9725 31.2424 31.9709C31.4297 32.0236 31.5951 32.06 31.7273 32.0842C31.9194 31.5693 32.0405 31.0306 32.0873 30.483C32.3215 30.2268 32.6081 30.0239 32.9277 29.8883C33.2473 29.7526 33.5923 29.6874 33.9394 29.697C39.3939 29.697 38.7879 39.3939 38.7879 39.3939H32.6206Z" fill="#FFDE76"/>
<path d="M23.6365 29.9715C24.3203 30.0742 25.0192 29.9903 25.6592 29.7286C26.2993 29.4669 26.8568 29.0372 27.2728 28.4849C27.5698 29.222 28.0147 29.8905 28.5799 30.4491C29.1452 31.0077 29.8189 31.4445 30.5595 31.7327C28.9462 35.3291 23.6971 34.4479 23.6365 29.9715Z" fill="#FFDEC7"/>
<path d="M23.8419 26.6753C22.2334 26.5522 20.0001 25.9625 20.0001 23.6365C20.0128 24.2237 19.833 24.7989 19.4882 25.2744C19.1434 25.7498 18.6525 26.0994 18.0904 26.2698C18.5333 26.9247 18.7757 27.6945 18.788 28.485C18.3731 28.4714 17.9617 28.4058 17.5631 28.2898C17.6147 29.0377 17.5043 29.7879 17.2395 30.4892C17.6669 30.8629 18.166 31.1457 18.7062 31.3203C19.2465 31.495 19.8166 31.5577 20.3819 31.5048C20.9472 31.4519 21.4958 31.2844 21.9943 31.0126C22.4928 30.7408 22.9307 30.3703 23.2813 29.9237C22.9891 29.8756 22.7022 29.7997 22.4244 29.6971C22.4338 29.1218 22.5644 28.5549 22.8079 28.0336C23.0513 27.5123 23.402 27.0482 23.8371 26.6716" fill="#F6CCAF"/>
<path d="M18.0897 26.2691C17.7255 25.7523 17.2608 25.3142 16.7235 24.981C16.1862 24.6478 15.5872 24.4263 14.9624 24.3297C15.6897 22.4806 17.3691 21.2122 20 21.2122C23.2679 21.2122 25.0679 23.1703 25.3988 25.7667C24.8253 25.9656 24.2953 26.2728 23.8376 26.6716L23.8418 26.6758C22.2333 26.5522 20 25.9625 20 23.6364C20.0126 24.2236 19.8327 24.7988 19.4878 25.2742C19.1428 25.7495 18.6518 26.099 18.0897 26.2691Z" fill="#F16F39"/>
<path d="M9.18656 27.6722C8.51354 27.5461 7.90123 27.2007 7.44531 26.6899C6.98939 26.179 6.71554 25.5315 6.66656 24.8485C4.7074 25.5508 2.56512 25.5508 0.605957 24.8485C0.685351 18.4504 11.352 18.4067 11.515 24.7879C10.9337 25.0608 10.422 25.4622 10.0186 25.9619C9.61521 26.4615 9.33069 27.0464 9.18656 27.6722Z" fill="#425B72"/>
<path d="M9.09453 28.3987C9.10392 28.154 9.13474 27.9107 9.18665 27.6714C8.51373 27.5454 7.90148 27.2001 7.44557 26.6893C6.98966 26.1786 6.71576 25.5312 6.66665 24.8484C5.11954 25.4265 3.43825 25.5447 1.82544 25.189C2.00726 29.6648 6.48423 30.9908 9.09817 28.4011" fill="#F6CCAF"/>
<path d="M11.3625 31.6412C12.4607 30.7879 12.1213 29.0909 12.1213 29.0909C12.827 29.0909 13.523 28.9266 14.1541 28.611C14.7853 28.2954 15.3343 27.8372 15.7577 27.2727C16.2634 27.7591 16.8845 28.1091 17.5625 28.2897C17.8438 32.3879 13.791 34.0218 11.3613 31.6412" fill="#FFDEC7"/>
<path d="M27.5757 14.3934H25.7575C25.637 14.3934 25.5214 14.3455 25.4361 14.2602C25.3509 14.175 25.303 14.0594 25.303 13.9388C25.303 13.8183 25.3509 13.7027 25.4361 13.6174C25.5214 13.5322 25.637 13.4843 25.7575 13.4843H27.5757C27.7765 13.4841 27.969 13.4043 28.111 13.2624C28.253 13.1205 28.333 12.9281 28.3333 12.7273V10.9091C28.3333 10.7886 28.3812 10.673 28.4664 10.5877C28.5517 10.5025 28.6673 10.4546 28.7878 10.4546C28.9084 10.4546 29.024 10.5025 29.1092 10.5877C29.1945 10.673 29.2424 10.7886 29.2424 10.9091V12.7273C29.2419 13.1691 29.0661 13.5927 28.7536 13.9051C28.4412 14.2174 28.0175 14.3931 27.5757 14.3934Z" fill="#252525"/>
<path d="M11.2121 6.66669C11.0916 6.66669 10.9759 6.6188 10.8907 6.53356C10.8055 6.44831 10.7576 6.3327 10.7576 6.21214V4.39396C10.758 3.95208 10.9338 3.52844 11.2463 3.21598C11.5587 2.90353 11.9824 2.72778 12.4242 2.72729H14.2424C14.363 2.72729 14.4786 2.77518 14.5638 2.86043C14.6491 2.94567 14.697 3.06129 14.697 3.18184C14.697 3.30239 14.6491 3.41801 14.5638 3.50325C14.4786 3.5885 14.363 3.63639 14.2424 3.63639H12.4242C12.2234 3.63671 12.0309 3.71663 11.8889 3.85863C11.7469 4.00063 11.667 4.19314 11.6667 4.39396V6.21214C11.6667 6.3327 11.6188 6.44831 11.5335 6.53356C11.4483 6.6188 11.3327 6.66669 11.2121 6.66669Z" fill="#252525"/>
<path d="M20 3.03027C18.5533 3.03027 17.1659 3.60495 16.143 4.62787C15.1201 5.6508 14.5454 7.03818 14.5454 8.48482C14.8248 15.7169 25.1763 15.7151 25.4545 8.48482C25.4545 7.03818 24.8798 5.6508 23.8569 4.62787C22.834 3.60495 21.4466 3.03027 20 3.03027ZM20 11.5151C19.5079 11.5113 19.0241 11.3883 18.5899 11.1567C18.1557 10.9251 17.7841 10.5918 17.5069 10.1852C17.2296 9.77873 17.0549 9.31109 16.9978 8.82234C16.9406 8.33359 17.0027 7.83828 17.1787 7.37876L21.1036 11.3036C20.7523 11.4428 20.3779 11.5146 20 11.5151ZM22.8212 9.59149L18.8945 5.66482C19.4429 5.4572 20.0395 5.4123 20.6127 5.5355C21.186 5.6587 21.7115 5.94476 22.1261 6.35934C22.5408 6.77392 22.8269 7.29938 22.9502 7.87261C23.0735 8.44585 23.0287 9.04249 22.8212 9.59088V9.59149Z" fill="white"/>
<path d="M21.8182 39.394C21.7485 32.0752 32.7879 32.1413 32.7273 39.394H21.8182Z" fill="#B5E08C"/>
<path d="M19.9964 14.5455C28.0431 14.2091 28.0364 2.74424 19.9728 2.42424C11.9394 2.80424 11.9394 14.1776 19.9964 14.5455ZM19.9964 3.63636C26.4158 3.87879 26.4128 13.08 20.02 13.3333C18.7341 13.3365 17.4997 12.8287 16.5882 11.9216C15.6767 11.0146 15.1629 9.78257 15.1597 8.49667C15.1566 7.21077 15.6644 5.97629 16.5715 5.06481C17.4785 4.15333 18.7105 3.6395 19.9964 3.63636ZM1.26366 25.6849C1.31846 26.5095 1.57294 27.3085 2.00519 28.0129C2.43744 28.7173 3.03448 29.3061 3.74487 29.7285C0.398208 31.5049 0.487905 39.2006 0.606086 39.4321C0.616132 39.5929 0.68962 39.743 0.810382 39.8496C0.931144 39.9561 1.08929 40.0104 1.25003 40.0003C1.41076 39.9903 1.56093 39.9168 1.66748 39.796C1.77404 39.6753 1.82825 39.5171 1.81821 39.3564C1.72609 38.9764 1.57033 30.3061 5.87881 30.3194C5.99045 30.327 6.10252 30.3258 6.21397 30.3158C8.00488 30.4442 8.517 32.74 8.62063 34.7509C7.97336 36.0612 7.8679 37.7127 7.877 39.3515C7.87193 39.5123 7.93093 39.6684 8.04101 39.7857C8.15109 39.9029 8.30323 39.9716 8.46397 39.9767C8.6247 39.9817 8.78087 39.9227 8.89811 39.8127C9.01535 39.7026 9.08405 39.5504 9.08912 39.3897C8.98063 35.8394 9.79215 33.2594 13.7806 33.3376C13.8921 33.3476 14.0043 33.3476 14.1158 33.3376C17.6643 33.3133 18.7697 35.9242 18.7867 39.3982C18.7878 39.5582 18.8522 39.7113 18.9657 39.824C19.0792 39.9367 19.2327 40 19.3928 40C20.1328 39.9758 20.0049 39.1558 19.9734 38.6224C19.9498 37.3023 19.6396 36.003 19.0643 34.8145C19.0188 34.7236 18.9643 34.6382 18.914 34.5503C18.8721 34.4806 18.8309 34.4097 18.7861 34.343C18.3253 33.558 17.6328 32.935 16.8037 32.5594C17.7881 32.2732 18.8076 32.1258 19.8328 32.1212C19.9658 32.1304 20.0993 32.129 20.2321 32.117C21.4694 32.1373 22.6947 32.3626 23.8582 32.7836C24.1408 33.1647 24.4751 33.5045 24.8515 33.7933C23.9395 34.1432 23.1346 34.725 22.5163 35.4813C21.898 36.2376 21.4877 37.1421 21.3261 38.1055C21.2703 38.6988 20.8782 39.9346 21.8146 40.0049C21.8946 40.0049 21.9738 39.989 22.0476 39.9583C22.1215 39.9275 22.1885 39.8824 22.2448 39.8256C22.3012 39.7688 22.3457 39.7015 22.3759 39.6274C22.4061 39.5533 22.4213 39.4739 22.4206 39.3939C22.3947 38.7698 22.495 38.1468 22.7157 37.5623C22.9364 36.9779 23.2728 36.444 23.7048 35.9927C24.1368 35.5414 24.6554 35.182 25.2297 34.936C25.804 34.69 26.422 34.5626 27.0467 34.5612C27.1849 34.5764 27.3243 34.5764 27.4625 34.5612C28.0894 34.5598 28.7101 34.6853 29.2873 34.93C29.8645 35.1747 30.3863 35.5336 30.8211 35.9852C31.256 36.4368 31.595 36.9717 31.8179 37.5577C32.0407 38.1437 32.1426 38.7687 32.1176 39.3952C32.117 39.4752 32.1322 39.5545 32.1623 39.6286C32.1925 39.7027 32.237 39.7701 32.2934 39.8268C32.3497 39.8836 32.4168 39.9287 32.4906 39.9595C32.5645 39.9902 32.6437 40.0061 32.7237 40.0061C33.6618 39.9358 33.2691 38.6982 33.2121 38.1055C32.9997 36.8209 32.3494 35.6494 31.3715 34.7897C31.3993 34.0824 31.4957 33.3795 31.6594 32.6909C31.7931 32.7016 31.9267 32.6695 32.0408 32.599C32.1549 32.5286 32.2436 32.4237 32.294 32.2994C32.4824 31.7971 32.6167 31.2762 32.6946 30.7455C33.7443 29.8903 35.4291 30.3691 36.2764 31.3109C38.5024 33.6721 38.1818 39.3 38.1818 39.3564C38.1769 39.436 38.1877 39.5157 38.2136 39.5912C38.2395 39.6666 38.28 39.7362 38.3328 39.7959C38.3856 39.8557 38.4496 39.9045 38.5213 39.9395C38.5929 39.9745 38.6707 39.9951 38.7503 40C38.8299 40.0049 38.9097 39.9942 38.9851 39.9683C39.0605 39.9424 39.1301 39.9019 39.1899 39.8491C39.2497 39.7963 39.2984 39.7322 39.3335 39.6606C39.3685 39.5889 39.389 39.5111 39.394 39.4315C39.5085 39.1994 39.6 31.5073 36.254 29.7297C37.6758 28.9758 38.5121 27.5194 38.734 25.683C39.0344 25.6101 39.3303 25.5194 39.62 25.4115C39.7355 25.3653 39.834 25.2847 39.9021 25.1806C39.9701 25.0765 40.0046 24.954 40.0006 24.8297C39.9006 17.5649 27.8794 17.7048 27.8721 24.8842C27.2044 24.8096 26.529 24.8436 25.8721 24.9848C24.9206 19.7727 16.7849 19.0503 14.6115 23.6739C13.7454 23.5812 12.8694 23.6668 12.0376 23.9255C10.8885 17.5182 0.0200257 18 0.00366211 24.8927C0.129117 25.5152 0.531541 25.4449 1.26366 25.6849ZM6.25881 29.0988C6.12043 29.0882 5.98144 29.0882 5.84306 29.0988C5.00063 29.0479 4.20349 28.7001 3.59322 28.1171C2.98296 27.5342 2.59906 26.7538 2.50972 25.9145C3.74107 26.0769 4.99256 25.9878 6.18851 25.6527C6.36658 26.2069 6.6678 26.7136 7.06959 27.1349C7.47138 27.5561 7.96332 27.8808 8.50851 28.0849L8.50488 28.1212C7.8854 28.6873 7.09523 29.0312 6.25881 29.0988ZM8.117 29.8261C8.25679 29.7578 8.39457 29.6822 8.53033 29.5994C8.57128 29.907 8.63592 30.2109 8.72366 30.5085C8.55253 30.2552 8.34852 30.0257 8.117 29.8261ZM9.70003 33.3564C9.63898 32.9264 9.54846 32.5012 9.42912 32.0836C9.5976 32.4 9.84791 32.7849 10.2582 32.6952C10.6165 32.6521 10.9648 32.5486 11.2885 32.3891C11.3206 32.4146 11.3546 32.4358 11.3873 32.46C10.7698 32.641 10.1957 32.946 9.70003 33.3564ZM16.957 28.883C16.9412 30.5091 15.8097 32.0473 14.1443 32.1291C14.0044 32.1212 13.8642 32.1212 13.7243 32.1291C13.19 32.0827 12.6775 31.8957 12.2388 31.5873C12.6074 31.0129 12.7934 30.3403 12.7721 29.6582C13.9339 29.5099 15.0104 28.9701 15.8243 28.1279C16.1753 28.3777 16.557 28.5814 16.96 28.7339C16.9622 28.7837 16.9612 28.8335 16.957 28.883ZM21.8182 29.6212C21.8047 29.7403 21.8261 29.8607 21.88 29.9678C21.9338 30.0749 22.0176 30.164 22.1212 30.2242C21.5927 30.6189 20.9613 30.8524 20.3031 30.8964C20.0934 30.8907 19.8843 30.8907 19.6758 30.8964C19.0568 30.8441 18.4621 30.6314 17.9503 30.2794C18.057 29.8726 18.13 29.4576 18.1685 29.0388C18.5509 29.0727 18.9364 29.1945 19.2182 28.9103C19.6552 28.2691 19.1818 27.1636 18.9364 26.5364C19.3417 26.2952 19.7001 25.9829 19.9946 25.6145C20.6668 26.4149 21.6033 26.9483 22.6346 27.1182C22.1342 27.8528 21.8531 28.7146 21.8243 29.603V29.6176C21.8243 29.6176 21.8182 29.6188 21.8182 29.6212ZM22.8188 31.2121C22.9267 31.1327 23.0321 31.0503 23.1334 30.9612C23.1552 31.0824 23.1873 31.1921 23.217 31.3067C23.0855 31.2727 22.9515 31.2418 22.8188 31.2121ZM27.3885 33.3442C26.621 33.3662 25.8738 33.0954 25.2986 32.5866C24.7235 32.0779 24.3634 31.3694 24.2915 30.6049C25.3253 30.5877 26.3212 30.2134 27.1103 29.5455C27.7236 30.6008 28.6285 31.4567 29.7164 32.0103C29.4623 32.4016 29.1185 32.7266 28.7137 32.9585C28.3089 33.1904 27.8546 33.3224 27.3885 33.3436V33.3442ZM30.2134 34.0352C30.0339 33.9411 29.8498 33.8562 29.6618 33.7806C29.9028 33.605 30.1247 33.4045 30.3237 33.1824C30.2784 33.4535 30.2416 33.7382 30.2134 34.0352ZM35.8103 28.5952C35.3363 28.873 34.8057 29.0402 34.258 29.0844C33.7103 29.1285 33.1597 29.0485 32.6473 28.8503C32.563 28.4539 32.4292 28.0697 32.2491 27.7067C32.9997 27.2344 33.5522 26.5045 33.8031 25.6539C34.9976 25.9888 36.2476 26.0783 37.4776 25.917C37.4063 26.4562 37.2207 26.9741 36.9331 27.4358C36.6456 27.8976 36.2628 28.2932 35.8103 28.5952ZM30.7879 21.5673C33.5043 19.7703 38.1691 20.397 38.7503 24.4218C38.5685 24.4758 38.3261 24.5376 38.0485 24.5958C36.771 24.8734 35.4457 24.8414 34.1831 24.5024C33.7976 24.4261 33.3703 24.0782 32.9885 24.3473C32.9009 24.4077 32.8303 24.4896 32.7833 24.5851C32.7363 24.6805 32.7145 24.7865 32.72 24.8927C32.6818 25.261 32.5585 25.6153 32.3598 25.9277C32.1611 26.2401 31.8925 26.502 31.5752 26.6927C30.9034 25.9482 30.0411 25.4013 29.0812 25.1109C29.0277 24.4222 29.1575 23.7316 29.4572 23.1092C29.7569 22.4868 30.2161 21.9548 30.7879 21.5673ZM31.4788 29.3073C31.4822 29.3694 31.4949 29.4307 31.5164 29.4891C31.5415 29.7574 31.5415 30.0275 31.5164 30.2958C31.434 30.6497 31.4237 31.0291 31.32 31.3618C30.0638 31.0017 28.9802 30.1995 28.2691 29.103C27.9182 28.6564 27.7794 27.5642 26.98 27.9606C26.6594 28.1909 26.4625 28.5667 26.1225 28.7855C25.4288 29.2781 24.574 29.4888 23.7309 29.3752C23.6964 29.3704 23.6616 29.3678 23.6267 29.3673H23.6243C23.5491 29.3582 23.4776 29.3473 23.4085 29.3358C23.2982 29.3073 23.1837 29.2915 23.0903 29.2667C23.205 28.5724 23.511 27.9239 23.974 27.3939C24.0406 27.3224 24.1 27.2461 24.1728 27.1788C24.1788 27.1745 24.1818 27.1673 24.1879 27.163C24.6262 26.786 25.129 26.4914 25.6721 26.2933C28.0431 25.5152 31.1449 26.7018 31.4806 29.3073H31.4788ZM19.9964 21.8182C22.5485 21.8182 24.2443 23.1079 24.7152 25.3764C24.3303 25.5524 23.9693 25.7764 23.6406 26.043C22.4285 25.9297 20.937 25.483 20.6521 24.137C20.5788 23.6642 20.6618 23.057 19.9964 23.0297C19.8357 23.0297 19.6815 23.0936 19.5678 23.2072C19.4542 23.3209 19.3903 23.475 19.3903 23.6358C19.4017 24.0228 19.3025 24.405 19.1045 24.7378C18.9064 25.0705 18.6177 25.3399 18.2721 25.5145C17.6158 24.7734 16.7716 24.2231 15.8285 23.9218C16.6285 22.5588 18.0824 21.8182 19.9964 21.8182ZM11.7794 25.3291C11.7968 25.3185 11.8136 25.307 11.8297 25.2945C14.034 24.1733 17.5873 25.1958 18.0928 27.7945C17.3787 27.6651 16.716 27.3355 16.1818 26.8442C16.1182 26.7819 16.0417 26.7343 15.9577 26.7047C15.8737 26.675 15.7842 26.6641 15.6955 26.6727C15.6069 26.6812 15.5211 26.709 15.4443 26.7541C15.3675 26.7993 15.3015 26.8606 15.2509 26.9339C14.8847 27.4177 14.4109 27.8097 13.8671 28.0788C13.3233 28.348 12.7244 28.487 12.1176 28.4849C12.0232 28.4876 11.9307 28.5117 11.847 28.5554C11.7632 28.5991 11.6905 28.6612 11.6343 28.737C11.578 28.8129 11.5397 28.9005 11.5222 28.9933C11.5048 29.0861 11.5086 29.1816 11.5334 29.2727C11.6546 30.1339 11.4121 31.1945 10.4334 31.4261C9.2873 29.5891 9.42063 27.123 11.0631 25.7758C11.2859 25.6027 11.526 25.4531 11.7794 25.3291ZM6.01881 20.6315C8.22245 20.6182 10.6115 21.8042 10.8812 24.4315C9.93758 25.0035 9.20349 25.8645 8.7879 26.8867C8.37283 26.7179 8.01186 26.4388 7.74413 26.0795C7.47641 25.7202 7.31213 25.2945 7.26912 24.8485C7.26769 24.6882 7.20338 24.5349 7.09003 24.4215C6.97668 24.3082 6.82335 24.2439 6.66306 24.2424C6.31094 24.2909 5.98245 24.4758 5.6376 24.5418C4.18462 24.8895 2.66562 24.8477 1.23397 24.4206C1.50245 21.84 3.84669 20.6455 6.01881 20.6315ZM19.997 12.1358C20.6673 12.1558 22.26 11.8382 21.5303 10.8758L17.6055 6.95091C17.5347 6.88084 17.4479 6.82917 17.3526 6.80042C17.2572 6.77166 17.1563 6.76669 17.0586 6.78594C16.9609 6.80519 16.8694 6.84808 16.7921 6.91086C16.7148 6.97364 16.6541 7.05439 16.6152 7.14606C15.5709 9.37152 17.5921 12.2061 19.997 12.1358ZM19.8576 10.9176C19.2658 10.8677 18.7108 10.6099 18.2909 10.1899C17.871 9.76992 17.6134 9.21483 17.5637 8.62303L19.8576 10.9176ZM20.1897 7.82121L22.3873 10.0188C22.4577 10.0896 22.5444 10.1419 22.6399 10.1711C22.7353 10.2003 22.8365 10.2055 22.9344 10.1861C23.0323 10.1668 23.1239 10.1236 23.2012 10.0604C23.2784 9.99716 23.3388 9.91583 23.377 9.82364C23.6481 9.16684 23.7144 8.44343 23.5671 7.74832C23.4197 7.05321 23.0658 6.41885 22.5515 5.92849C22.061 5.41474 21.4267 5.06116 20.7317 4.91408C20.0368 4.767 19.3136 4.83329 18.657 5.10424C18.5659 5.14353 18.4857 5.20441 18.4233 5.28162C18.361 5.35884 18.3183 5.45006 18.2991 5.54743C18.2799 5.6448 18.2847 5.74538 18.313 5.84049C18.3414 5.9356 18.3925 6.02238 18.4618 6.09333L20.1897 7.82121ZM21.697 6.78788C22.1195 7.20404 22.3799 7.7571 22.4315 8.34788L20.1346 6.05212C20.7263 6.10363 21.2803 6.36451 21.697 6.78788ZM6.82124 16.9364L7.30003 18.3727C7.33363 18.47 7.39127 18.5572 7.46761 18.6262C7.54394 18.6952 7.63648 18.7438 7.73663 18.7674C7.83678 18.7911 7.94128 18.789 8.04041 18.7614C8.13955 18.7339 8.23011 18.6817 8.30366 18.6097L9.94427 16.9697H11.6806L12.7546 20.1915C12.7944 20.3128 12.8715 20.4183 12.9749 20.4932C13.0783 20.568 13.2027 20.6083 13.3303 20.6083C13.458 20.6083 13.5823 20.568 13.6857 20.4932C13.7891 20.4183 13.8662 20.3128 13.9061 20.1915L14.9788 16.9697H18.4097L19.4546 19.0582C19.5105 19.1521 19.5899 19.2299 19.6849 19.2839C19.7799 19.338 19.8874 19.3664 19.9967 19.3664C20.106 19.3664 20.2135 19.338 20.3085 19.2839C20.4035 19.2299 20.4829 19.1521 20.5388 19.0582L21.5831 16.9697H25.014L26.0879 20.1915C26.1278 20.3128 26.2049 20.4183 26.3083 20.4932C26.4116 20.568 26.536 20.6083 26.6637 20.6083C26.7913 20.6083 26.9157 20.568 27.0191 20.4932C27.1224 20.4183 27.1996 20.3128 27.2394 20.1915L28.3121 16.9697H30.0485L31.6891 18.6097C31.7627 18.6817 31.8532 18.7339 31.9524 18.7614C32.0515 18.789 32.156 18.7911 32.2561 18.7674C32.3563 18.7438 32.4488 18.6952 32.5252 18.6262C32.6015 18.5572 32.6592 18.47 32.6928 18.3727L33.1715 16.9364C33.8893 16.8282 34.5445 16.4664 35.0183 15.9165C35.4921 15.3667 35.7531 14.6652 35.754 13.9394V3.0303C35.753 2.22691 35.4334 1.4567 34.8653 0.888618C34.2973 0.320535 33.5271 0.000962338 32.7237 0L7.26912 0C6.46573 0.000962338 5.69552 0.320535 5.12743 0.888618C4.55935 1.4567 4.23978 2.22691 4.23881 3.0303V13.9394C4.2397 14.6652 4.50072 15.3667 4.97452 15.9165C5.44832 16.4664 6.10351 16.8282 6.82124 16.9364ZM5.45094 3.0303C5.45094 2.54809 5.64249 2.08563 5.98347 1.74465C6.32444 1.40368 6.78691 1.21212 7.26912 1.21212H32.7237C33.2059 1.21212 33.6683 1.40368 34.0093 1.74465C34.3503 2.08563 34.5418 2.54809 34.5418 3.0303V13.9394C34.5418 14.4216 34.3503 14.8841 34.0093 15.225C33.6683 15.566 33.2059 15.7576 32.7237 15.7576C32.0891 15.74 32.04 16.6345 31.8528 17.0594L30.7273 15.9345C30.6137 15.8213 30.4598 15.7576 30.2994 15.7576H27.8752C27.7479 15.7575 27.6239 15.7976 27.5207 15.872C27.4174 15.9464 27.3402 16.0514 27.3 16.1721L26.6631 18.0836L26.0261 16.1721C25.9859 16.0514 25.9087 15.9464 25.8055 15.872C25.7022 15.7976 25.5782 15.7575 25.4509 15.7576H21.2085C21.0954 15.757 20.9843 15.788 20.8879 15.8473C20.7915 15.9065 20.7136 15.9915 20.6631 16.0927L19.9964 17.4321L19.3261 16.0927C19.2758 15.9921 19.1985 15.9074 19.1028 15.8482C19.0071 15.789 18.8968 15.7576 18.7843 15.7576H14.5418C14.4146 15.7575 14.2906 15.7976 14.1873 15.872C14.0841 15.9464 14.0069 16.0514 13.9667 16.1721L13.3297 18.0836L12.6928 16.1721C12.6525 16.0514 12.5753 15.9464 12.4721 15.872C12.3689 15.7976 12.2449 15.7575 12.1176 15.7576H9.69336C9.53272 15.7575 9.37861 15.8211 9.26487 15.9345L8.14003 17.0594C7.95215 16.6352 7.90184 15.7388 7.26912 15.7576C6.78691 15.7576 6.32444 15.566 5.98347 15.225C5.64249 14.8841 5.45094 14.4216 5.45094 13.9394V3.0303Z" fill="#252525"/>
</g>
<defs>
<clipPath id="clip0_357_8329">
<rect width="40" height="40" fill="white"/>
</clipPath>
</defs>
</svg>
